  0
SECTION
  2
HEADER
  9
$ACADVER
  1
AC1009
  9
$FILLMODE
 70
0
  9
$EXTMIN
 10
-1.5240
 20
-0.7112
 30
0.0000
  9
$EXTMAX
 10
19.1986
 20
12.8016
 30
0.0000
  0
ENDSEC
  0
SECTION
  2
TABLES
  0
TABLE
  2
LTYPE
 70
1
  0
LTYPE
  2
CONTINUOUS
 70
64
  3
Solid line
 72
65
 73
0
 40
0
  0
ENDTAB
  0
TABLE
  2
LAYER
 70
255
  0
LAYER
  2
1
 70
64
 62
12
  6
CONTINUOUS
  0
LAYER
  2
2
 70
64
 62
41
  6
CONTINUOUS
  0
LAYER
  2
15
 70
64
 62
30
  6
CONTINUOUS
  0
LAYER
  2
16
 70
64
 62
132
  6
CONTINUOUS
  0
LAYER
  2
17
 70
64
 62
110
  6
CONTINUOUS
  0
LAYER
  2
18
 70
64
 62
110
  6
CONTINUOUS
  0
LAYER
  2
19
 70
64
 62
53
  6
CONTINUOUS
  0
LAYER
  2
20
 70
64
 62
31
  6
CONTINUOUS
  0
LAYER
  2
21
 70
64
 62
253
  6
CONTINUOUS
  0
LAYER
  2
22
 70
64
 62
253
  6
CONTINUOUS
  0
LAYER
  2
23
 70
64
 62
53
  6
CONTINUOUS
  0
LAYER
  2
24
 70
64
 62
53
  6
CONTINUOUS
  0
LAYER
  2
29
 70
64
 62
253
  6
CONTINUOUS
  0
LAYER
  2
39
 70
64
 62
12
  6
CONTINUOUS
  0
LAYER
  2
40
 70
64
 62
132
  6
CONTINUOUS
  0
LAYER
  2
41
 70
64
 62
12
  6
CONTINUOUS
  0
LAYER
  2
42
 70
64
 62
132
  6
CONTINUOUS
  0
LAYER
  2
43
 70
64
 62
110
  6
CONTINUOUS
  0
LAYER
  2
45
 70
64
 62
253
  6
CONTINUOUS
  0
LAYER
  2
48
 70
64
 62
253
  6
CONTINUOUS
  0
LAYER
  2
49
 70
64
 62
253
  6
CONTINUOUS
  0
LAYER
  2
52
 70
64
 62
253
  6
CONTINUOUS
  0
LAYER
  2
100
 70
64
 62
253
  6
CONTINUOUS
  0
LAYER
  2
101
 70
64
 62
253
  6
CONTINUOUS
  0
LAYER
  2
102
 70
64
 62
253
  6
CONTINUOUS
  0
LAYER
  2
103
 70
64
 62
253
  6
CONTINUOUS
  0
LAYER
  2
104
 70
64
 62
253
  6
CONTINUOUS
  0
LAYER
  2
105
 70
64
 62
253
  6
CONTINUOUS
  0
LAYER
  2
106
 70
64
 62
253
  6
CONTINUOUS
  0
LAYER
  2
107
 70
64
 62
253
  6
CONTINUOUS
  0
LAYER
  2
108
 70
64
 62
253
  6
CONTINUOUS
  0
LAYER
  2
109
 70
64
 62
253
  6
CONTINUOUS
  0
LAYER
  2
110
 70
64
 62
253
  6
CONTINUOUS
  0
LAYER
  2
111
 70
64
 62
253
  6
CONTINUOUS
  0
LAYER
  2
112
 70
64
 62
253
  6
CONTINUOUS
  0
LAYER
  2
113
 70
64
 62
253
  6
CONTINUOUS
  0
LAYER
  2
114
 70
64
 62
253
  6
CONTINUOUS
  0
LAYER
  2
115
 70
64
 62
253
  6
CONTINUOUS
  0
LAYER
  2
116
 70
64
 62
253
  6
CONTINUOUS
  0
LAYER
  2
117
 70
64
 62
253
  6
CONTINUOUS
  0
LAYER
  2
118
 70
64
 62
253
  6
CONTINUOUS
  0
LAYER
  2
121
 70
64
 62
253
  6
CONTINUOUS
  0
LAYER
  2
122
 70
64
 62
253
  6
CONTINUOUS
  0
LAYER
  2
123
 70
64
 62
253
  6
CONTINUOUS
  0
LAYER
  2
124
 70
64
 62
253
  6
CONTINUOUS
  0
LAYER
  2
125
 70
64
 62
253
  6
CONTINUOUS
  0
LAYER
  2
126
 70
64
 62
253
  6
CONTINUOUS
  0
LAYER
  2
127
 70
64
 62
253
  6
CONTINUOUS
  0
LAYER
  2
128
 70
64
 62
253
  6
CONTINUOUS
  0
LAYER
  2
129
 70
64
 62
253
  6
CONTINUOUS
  0
LAYER
  2
131
 70
64
 62
253
  6
CONTINUOUS
  0
LAYER
  2
132
 70
64
 62
253
  6
CONTINUOUS
  0
LAYER
  2
144
 70
64
 62
253
  6
CONTINUOUS
  0
LAYER
  2
150
 70
64
 62
253
  6
CONTINUOUS
  0
LAYER
  2
151
 70
64
 62
253
  6
CONTINUOUS
  0
LAYER
  2
152
 70
64
 62
253
  6
CONTINUOUS
  0
LAYER
  2
153
 70
64
 62
253
  6
CONTINUOUS
  0
LAYER
  2
154
 70
64
 62
253
  6
CONTINUOUS
  0
LAYER
  2
155
 70
64
 62
253
  6
CONTINUOUS
  0
LAYER
  2
199
 70
64
 62
253
  6
CONTINUOUS
  0
LAYER
  2
200
 70
64
 62
253
  6
CONTINUOUS
  0
LAYER
  2
201
 70
64
 62
253
  6
CONTINUOUS
  0
LAYER
  2
202
 70
64
 62
253
  6
CONTINUOUS
  0
LAYER
  2
203
 70
64
 62
253
  6
CONTINUOUS
  0
LAYER
  2
204
 70
64
 62
253
  6
CONTINUOUS
  0
LAYER
  2
205
 70
64
 62
253
  6
CONTINUOUS
  0
LAYER
  2
206
 70
64
 62
253
  6
CONTINUOUS
  0
LAYER
  2
207
 70
64
 62
253
  6
CONTINUOUS
  0
LAYER
  2
208
 70
64
 62
253
  6
CONTINUOUS
  0
LAYER
  2
209
 70
64
 62
253
  6
CONTINUOUS
  0
LAYER
  2
210
 70
64
 62
253
  6
CONTINUOUS
  0
LAYER
  2
211
 70
64
 62
253
  6
CONTINUOUS
  0
LAYER
  2
212
 70
64
 62
253
  6
CONTINUOUS
  0
LAYER
  2
213
 70
64
 62
253
  6
CONTINUOUS
  0
LAYER
  2
214
 70
64
 62
253
  6
CONTINUOUS
  0
LAYER
  2
215
 70
64
 62
253
  6
CONTINUOUS
  0
LAYER
  2
216
 70
64
 62
253
  6
CONTINUOUS
  0
LAYER
  2
217
 70
64
 62
253
  6
CONTINUOUS
  0
LAYER
  2
218
 70
64
 62
253
  6
CONTINUOUS
  0
LAYER
  2
219
 70
64
 62
253
  6
CONTINUOUS
  0
LAYER
  2
220
 70
64
 62
253
  6
CONTINUOUS
  0
LAYER
  2
221
 70
64
 62
253
  6
CONTINUOUS
  0
LAYER
  2
222
 70
64
 62
253
  6
CONTINUOUS
  0
LAYER
  2
223
 70
64
 62
253
  6
CONTINUOUS
  0
LAYER
  2
224
 70
64
 62
253
  6
CONTINUOUS
  0
LAYER
  2
225
 70
64
 62
253
  6
CONTINUOUS
  0
LAYER
  2
226
 70
64
 62
253
  6
CONTINUOUS
  0
LAYER
  2
227
 70
64
 62
253
  6
CONTINUOUS
  0
LAYER
  2
228
 70
64
 62
253
  6
CONTINUOUS
  0
LAYER
  2
229
 70
64
 62
253
  6
CONTINUOUS
  0
LAYER
  2
230
 70
64
 62
253
  6
CONTINUOUS
  0
LAYER
  2
231
 70
64
 62
253
  6
CONTINUOUS
  0
LAYER
  2
248
 70
64
 62
253
  6
CONTINUOUS
  0
LAYER
  2
249
 70
64
 62
253
  6
CONTINUOUS
  0
LAYER
  2
250
 70
64
 62
253
  6
CONTINUOUS
  0
LAYER
  2
251
 70
64
 62
253
  6
CONTINUOUS
  0
LAYER
  2
254
 70
64
 62
253
  6
CONTINUOUS
  0
LAYER
  2
255
 70
64
 62
253
  6
CONTINUOUS
  0
ENDTAB
  0
ENDSEC
  0
SECTION
  2
BLOCKS
  0
BLOCK
  8
0
  2
RECT
 70
64
 10
0.0000
 20
0.0000
 30
0.0000
  3
RECT
  0
SOLID
  8
0
 10
-0.5000
 20
-0.5000
 30
0.0000
 11
0.5000
 21
-0.5000
 31
0.0000
 12
-0.5000
 22
0.5000
 32
0.0000
 13
0.5000
 23
0.5000
 33
0.0000
  0
ENDBLK
  8
0
  0
BLOCK
  8
0
  2
PIE
 70
64
 10
0.0000
 20
0.0000
 30
0.0000
  3
PIE
  0
CIRCLE
  8
0
 10
0.0000
 20
0.0000
 30
0.0000
 40
0.5000
  0
ENDBLK
  8
0
  0
BLOCK
  8
0
  2
OCTAGONP
 70
64
 10
0.0000
 20
0.0000
 30
0.0000
  3
OCTAGONP
  0
POLYLINE
  8
0
 66
1
 10
0.0000
 20
0.0000
 30
0.0000
 40
0.0000
 41
0.0000
 70
1
  0
VERTEX
  8
0
 10
-0.5000
 20
-0.2071
 30
0.0000
  0
VERTEX
  8
0
 10
-0.5000
 20
0.2071
 30
0.0000
  0
VERTEX
  8
0
 10
-0.2071
 20
0.5000
 30
0.0000
  0
VERTEX
  8
0
 10
0.2071
 20
0.5000
 30
0.0000
  0
VERTEX
  8
0
 10
0.5000
 20
0.2071
 30
0.0000
  0
VERTEX
  8
0
 10
0.5000
 20
-0.2071
 30
0.0000
  0
VERTEX
  8
0
 10
0.2071
 20
-0.5000
 30
0.0000
  0
VERTEX
  8
0
 10
-0.2071
 20
-0.5000
 30
0.0000
  0
SEQEND
  8
0
  0
ENDBLK
  8
0
  0
BLOCK
  8
0
  2
SQUAREP
 70
64
 10
0.0000
 20
0.0000
 30
0.0000
  3
SQUAREP
  0
SOLID
  8
0
 10
-0.5000
 20
-0.5000
 30
0.0000
 11
0.5000
 21
-0.5000
 31
0.0000
 12
-0.5000
 22
0.5000
 32
0.0000
 13
0.5000
 23
0.5000
 33
0.0000
  0
ENDBLK
  8
0
  0
BLOCK
  8
0
  2
ROUNDP
 70
64
 10
0.0000
 20
0.0000
 30
0.0000
  3
ROUNDP
  0
CIRCLE
  8
0
 10
0.0000
 20
0.0000
 30
0.0000
 40
0.5000
  0
ENDBLK
  8
0
  0
BLOCK
  8
0
  2
ANNULUSP
 70
64
 10
0.0000
 20
0.0000
 30
0.0000
  3
ANNULUSP
  0
CIRCLE
  8
0
 10
0.0000
 20
0.0000
 30
0.0000
 40
0.5000
  0
ENDBLK
  8
0
  0
BLOCK
  8
0
  2
THERMALP
 70
64
 10
0.0000
 20
0.0000
 30
0.0000
  3
THERMALP
  0
POLYLINE
  8
0
 66
1
 10
0.0000
 20
0.0000
 30
0.0000
 40
0.0000
 41
0.0000
 70
1
  0
VERTEX
  8
0
 10
-0.2379
 20
0.4000
 30
0.0000
  0
VERTEX
  8
0
 10
0.2379
 20
0.4000
 30
0.0000
 42
1.0000
  0
VERTEX
  8
0
 10
0.2379
 20
0.5000
 30
0.0000
  0
VERTEX
  8
0
 10
-0.2379
 20
0.5000
 30
0.0000
 42
1.0000
  0
SEQEND
  8
0
  0
POLYLINE
  8
0
 66
1
 10
0.0000
 20
0.0000
 30
0.0000
 40
0.0000
 41
0.0000
 70
1
  0
VERTEX
  8
0
 10
0.4000
 20
0.2379
 30
0.0000
  0
VERTEX
  8
0
 10
0.4000
 20
-0.2379
 30
0.0000
 42
1.0000
  0
VERTEX
  8
0
 10
0.5000
 20
-0.2379
 30
0.0000
  0
VERTEX
  8
0
 10
0.5000
 20
0.2379
 30
0.0000
 42
1.0000
  0
SEQEND
  8
0
  0
POLYLINE
  8
0
 66
1
 10
0.0000
 20
0.0000
 30
0.0000
 40
0.0000
 41
0.0000
 70
1
  0
VERTEX
  8
0
 10
0.2379
 20
-0.4000
 30
0.0000
  0
VERTEX
  8
0
 10
-0.2379
 20
-0.4000
 30
0.0000
 42
1.0000
  0
VERTEX
  8
0
 10
-0.2379
 20
-0.5000
 30
0.0000
  0
VERTEX
  8
0
 10
0.2379
 20
-0.5000
 30
0.0000
 42
1.0000
  0
SEQEND
  8
0
  0
POLYLINE
  8
0
 66
1
 10
0.0000
 20
0.0000
 30
0.0000
 40
0.0000
 41
0.0000
 70
1
  0
VERTEX
  8
0
 10
-0.4000
 20
-0.2379
 30
0.0000
  0
VERTEX
  8
0
 10
-0.4000
 20
0.2379
 30
0.0000
 42
1.0000
  0
VERTEX
  8
0
 10
-0.5000
 20
0.2379
 30
0.0000
  0
VERTEX
  8
0
 10
-0.5000
 20
-0.2379
 30
0.0000
 42
1.0000
  0
SEQEND
  8
0
  0
ENDBLK
  8
0
  0
BLOCK
  8
0
  2
OCTAGONV
 70
64
 10
0.0000
 20
0.0000
 30
0.0000
  3
OCTAGONV
  0
POLYLINE
  8
0
 66
1
 10
0.0000
 20
0.0000
 30
0.0000
 40
0.0000
 41
0.0000
 70
1
  0
VERTEX
  8
0
 10
-0.5000
 20
-0.2071
 30
0.0000
  0
VERTEX
  8
0
 10
-0.5000
 20
0.2071
 30
0.0000
  0
VERTEX
  8
0
 10
-0.2071
 20
0.5000
 30
0.0000
  0
VERTEX
  8
0
 10
0.2071
 20
0.5000
 30
0.0000
  0
VERTEX
  8
0
 10
0.5000
 20
0.2071
 30
0.0000
  0
VERTEX
  8
0
 10
0.5000
 20
-0.2071
 30
0.0000
  0
VERTEX
  8
0
 10
0.2071
 20
-0.5000
 30
0.0000
  0
VERTEX
  8
0
 10
-0.2071
 20
-0.5000
 30
0.0000
  0
SEQEND
  8
0
  0
ENDBLK
  8
0
  0
BLOCK
  8
0
  2
SQUAREV
 70
64
 10
0.0000
 20
0.0000
 30
0.0000
  3
SQUAREV
  0
SOLID
  8
0
 10
-0.5000
 20
-0.5000
 30
0.0000
 11
0.5000
 21
-0.5000
 31
0.0000
 12
-0.5000
 22
0.5000
 32
0.0000
 13
0.5000
 23
0.5000
 33
0.0000
  0
ENDBLK
  8
0
  0
BLOCK
  8
0
  2
ROUNDV
 70
64
 10
0.0000
 20
0.0000
 30
0.0000
  3
ROUNDV
  0
CIRCLE
  8
0
 10
0.0000
 20
0.0000
 30
0.0000
 40
0.5000
  0
ENDBLK
  8
0
  0
BLOCK
  8
0
  2
ANNULUSV
 70
64
 10
0.0000
 20
0.0000
 30
0.0000
  3
ANNULUSV
  0
CIRCLE
  8
0
 10
0.0000
 20
0.0000
 30
0.0000
 40
0.5000
  0
ENDBLK
  8
0
  0
BLOCK
  8
0
  2
THERMALV
 70
64
 10
0.0000
 20
0.0000
 30
0.0000
  3
THERMALV
  0
POLYLINE
  8
0
 66
1
 10
0.0000
 20
0.0000
 30
0.0000
 40
0.0000
 41
0.0000
 70
1
  0
VERTEX
  8
0
 10
-0.2379
 20
0.4000
 30
0.0000
  0
VERTEX
  8
0
 10
0.2379
 20
0.4000
 30
0.0000
 42
1.0000
  0
VERTEX
  8
0
 10
0.2379
 20
0.5000
 30
0.0000
  0
VERTEX
  8
0
 10
-0.2379
 20
0.5000
 30
0.0000
 42
1.0000
  0
SEQEND
  8
0
  0
POLYLINE
  8
0
 66
1
 10
0.0000
 20
0.0000
 30
0.0000
 40
0.0000
 41
0.0000
 70
1
  0
VERTEX
  8
0
 10
0.4000
 20
0.2379
 30
0.0000
  0
VERTEX
  8
0
 10
0.4000
 20
-0.2379
 30
0.0000
 42
1.0000
  0
VERTEX
  8
0
 10
0.5000
 20
-0.2379
 30
0.0000
  0
VERTEX
  8
0
 10
0.5000
 20
0.2379
 30
0.0000
 42
1.0000
  0
SEQEND
  8
0
  0
POLYLINE
  8
0
 66
1
 10
0.0000
 20
0.0000
 30
0.0000
 40
0.0000
 41
0.0000
 70
1
  0
VERTEX
  8
0
 10
0.2379
 20
-0.4000
 30
0.0000
  0
VERTEX
  8
0
 10
-0.2379
 20
-0.4000
 30
0.0000
 42
1.0000
  0
VERTEX
  8
0
 10
-0.2379
 20
-0.5000
 30
0.0000
  0
VERTEX
  8
0
 10
0.2379
 20
-0.5000
 30
0.0000
 42
1.0000
  0
SEQEND
  8
0
  0
POLYLINE
  8
0
 66
1
 10
0.0000
 20
0.0000
 30
0.0000
 40
0.0000
 41
0.0000
 70
1
  0
VERTEX
  8
0
 10
-0.4000
 20
-0.2379
 30
0.0000
  0
VERTEX
  8
0
 10
-0.4000
 20
0.2379
 30
0.0000
 42
1.0000
  0
VERTEX
  8
0
 10
-0.5000
 20
0.2379
 30
0.0000
  0
VERTEX
  8
0
 10
-0.5000
 20
-0.2379
 30
0.0000
 42
1.0000
  0
SEQEND
  8
0
  0
ENDBLK
  8
0
  0
ENDSEC
  0
SECTION
  2
ENTITIES
  0
LINE
  8
20
 10
0.0000
 20
0.0000
 30
0.0000
 11
9.0170
 21
0.0000
 31
0.0000
  0
LINE
  8
20
 10
9.0170
 20
0.0000
 30
0.0000
 11
9.0170
 21
12.3190
 31
0.0000
  0
LINE
  8
20
 10
9.0170
 20
12.3190
 30
0.0000
 11
0.0000
 21
12.3190
 31
0.0000
  0
LINE
  8
20
 10
0.0000
 20
12.3190
 30
0.0000
 11
0.0000
 21
0.0000
 31
0.0000
  0
POLYLINE
  8
21
 66
1
 10
0.0000
 20
0.0000
 30
0.0000
 40
0.0000
 41
0.0000
 70
1
  0
VERTEX
  8
21
 10
4.5212
 20
0.0000
 30
0.0000
  0
VERTEX
  8
21
 10
4.5212
 20
12.3190
 30
0.0000
 42
1.0000
  0
VERTEX
  8
21
 10
4.3688
 20
12.3190
 30
0.0000
  0
VERTEX
  8
21
 10
4.3688
 20
0.0000
 30
0.0000
 42
1.0000
  0
SEQEND
  8
0
  0
POLYLINE
  8
21
 66
1
 10
0.0000
 20
0.0000
 30
0.0000
 40
0.0000
 41
0.0000
 70
1
  0
VERTEX
  8
21
 10
0.5207
 20
9.2456
 30
0.0000
  0
VERTEX
  8
21
 10
0.8763
 20
9.2456
 30
0.0000
 42
1.0000
  0
VERTEX
  8
21
 10
0.8763
 20
9.2710
 30
0.0000
  0
VERTEX
  8
21
 10
0.5207
 20
9.2710
 30
0.0000
 42
1.0000
  0
SEQEND
  8
0
  0
POLYLINE
  8
21
 66
1
 10
0.0000
 20
0.0000
 30
0.0000
 40
0.0000
 41
0.0000
 70
1
  0
VERTEX
  8
21
 10
0.8636
 20
9.2583
 30
0.0000
  0
VERTEX
  8
21
 10
0.8636
 20
9.1595
 30
0.0000
 42
1.0000
  0
VERTEX
  8
21
 10
0.8890
 20
9.1595
 30
0.0000
  0
VERTEX
  8
21
 10
0.8890
 20
9.2583
 30
0.0000
 42
1.0000
  0
SEQEND
  8
0
  0
POLYLINE
  8
21
 66
1
 10
0.0000
 20
0.0000
 30
0.0000
 40
0.0000
 41
0.0000
 70
1
  0
VERTEX
  8
21
 10
0.6914
 20
9.1595
 30
0.0000
 42
1.0000
  0
VERTEX
  8
21
 10
0.6660
 20
9.1595
 30
0.0000
 42
1.0000
  0
VERTEX
  8
21
 10
0.8890
 20
9.1595
 30
0.0000
 42
1.0000
  0
VERTEX
  8
21
 10
0.8636
 20
9.1595
 30
0.0000
 42
-1.0000
  0
SEQEND
  8
0
  0
POLYLINE
  8
21
 66
1
 10
0.0000
 20
0.0000
 30
0.0000
 40
0.0000
 41
0.0000
 70
1
  0
VERTEX
  8
21
 10
0.6914
 20
9.1595
 30
0.0000
  0
VERTEX
  8
21
 10
0.6914
 20
9.2583
 30
0.0000
 42
1.0000
  0
VERTEX
  8
21
 10
0.6660
 20
9.2583
 30
0.0000
  0
VERTEX
  8
21
 10
0.6660
 20
9.1595
 30
0.0000
 42
1.0000
  0
SEQEND
  8
0
  0
POLYLINE
  8
21
 66
1
 10
0.0000
 20
0.0000
 30
0.0000
 40
0.0000
 41
0.0000
 70
1
  0
VERTEX
  8
21
 10
0.8763
 20
8.9140
 30
0.0000
  0
VERTEX
  8
21
 10
0.5207
 20
8.9140
 30
0.0000
 42
1.0000
  0
VERTEX
  8
21
 10
0.5207
 20
8.8886
 30
0.0000
  0
VERTEX
  8
21
 10
0.8763
 20
8.8886
 30
0.0000
 42
1.0000
  0
SEQEND
  8
0
  0
POLYLINE
  8
21
 66
1
 10
0.0000
 20
0.0000
 30
0.0000
 40
0.0000
 41
0.0000
 70
1
  0
VERTEX
  8
21
 10
0.5080
 20
8.9408
 30
0.0000
  0
VERTEX
  8
21
 10
0.5080
 20
8.8618
 30
0.0000
 42
1.0000
  0
VERTEX
  8
21
 10
0.5334
 20
8.8618
 30
0.0000
  0
VERTEX
  8
21
 10
0.5334
 20
8.9408
 30
0.0000
 42
1.0000
  0
SEQEND
  8
0
  0
POLYLINE
  8
21
 66
1
 10
0.0000
 20
0.0000
 30
0.0000
 40
0.0000
 41
0.0000
 70
1
  0
VERTEX
  8
21
 10
0.8636
 20
8.9408
 30
0.0000
  0
VERTEX
  8
21
 10
0.8636
 20
8.8618
 30
0.0000
 42
1.0000
  0
VERTEX
  8
21
 10
0.8890
 20
8.8618
 30
0.0000
  0
VERTEX
  8
21
 10
0.8890
 20
8.9408
 30
0.0000
 42
1.0000
  0
SEQEND
  8
0
  0
POLYLINE
  8
21
 66
1
 10
0.0000
 20
0.0000
 30
0.0000
 40
0.0000
 41
0.0000
 70
1
  0
VERTEX
  8
21
 10
0.5334
 20
8.5557
 30
0.0000
  0
VERTEX
  8
21
 10
0.5334
 20
8.7137
 30
0.0000
 42
1.0000
  0
VERTEX
  8
21
 10
0.5080
 20
8.7137
 30
0.0000
  0
VERTEX
  8
21
 10
0.5080
 20
8.5557
 30
0.0000
 42
1.0000
  0
SEQEND
  8
0
  0
POLYLINE
  8
21
 66
1
 10
0.0000
 20
0.0000
 30
0.0000
 40
0.0000
 41
0.0000
 70
1
  0
VERTEX
  8
21
 10
0.5207
 20
8.7010
 30
0.0000
  0
VERTEX
  8
21
 10
0.8763
 20
8.7010
 30
0.0000
 42
1.0000
  0
VERTEX
  8
21
 10
0.8763
 20
8.7264
 30
0.0000
  0
VERTEX
  8
21
 10
0.5207
 20
8.7264
 30
0.0000
 42
1.0000
  0
SEQEND
  8
0
  0
POLYLINE
  8
21
 66
1
 10
0.0000
 20
0.0000
 30
0.0000
 40
0.0000
 41
0.0000
 70
1
  0
VERTEX
  8
21
 10
0.8636
 20
8.7137
 30
0.0000
  0
VERTEX
  8
21
 10
0.8636
 20
8.5557
 30
0.0000
 42
1.0000
  0
VERTEX
  8
21
 10
0.8890
 20
8.5557
 30
0.0000
  0
VERTEX
  8
21
 10
0.8890
 20
8.7137
 30
0.0000
 42
1.0000
  0
SEQEND
  8
0
  0
POLYLINE
  8
21
 66
1
 10
0.0000
 20
0.0000
 30
0.0000
 40
0.0000
 41
0.0000
 70
1
  0
VERTEX
  8
21
 10
0.7056
 20
8.7137
 30
0.0000
  0
VERTEX
  8
21
 10
0.7056
 20
8.5952
 30
0.0000
 42
1.0000
  0
VERTEX
  8
21
 10
0.7310
 20
8.5952
 30
0.0000
  0
VERTEX
  8
21
 10
0.7310
 20
8.7137
 30
0.0000
 42
1.0000
  0
SEQEND
  8
0
  0
POLYLINE
  8
21
 66
1
 10
0.0000
 20
0.0000
 30
0.0000
 40
0.0000
 41
0.0000
 70
1
  0
VERTEX
  8
21
 10
0.5207
 20
8.4038
 30
0.0000
  0
VERTEX
  8
21
 10
0.8763
 20
8.4038
 30
0.0000
 42
1.0000
  0
VERTEX
  8
21
 10
0.8763
 20
8.4292
 30
0.0000
  0
VERTEX
  8
21
 10
0.5207
 20
8.4292
 30
0.0000
 42
1.0000
  0
SEQEND
  8
0
  0
POLYLINE
  8
21
 66
1
 10
0.0000
 20
0.0000
 30
0.0000
 40
0.0000
 41
0.0000
 70
1
  0
VERTEX
  8
21
 10
0.8636
 20
8.4165
 30
0.0000
  0
VERTEX
  8
21
 10
0.8636
 20
8.2585
 30
0.0000
 42
1.0000
  0
VERTEX
  8
21
 10
0.8890
 20
8.2585
 30
0.0000
  0
VERTEX
  8
21
 10
0.8890
 20
8.4165
 30
0.0000
 42
1.0000
  0
SEQEND
  8
0
  0
POLYLINE
  8
21
 66
1
 10
0.0000
 20
0.0000
 30
0.0000
 40
0.0000
 41
0.0000
 70
1
  0
VERTEX
  8
21
 10
0.7056
 20
8.4165
 30
0.0000
  0
VERTEX
  8
21
 10
0.7056
 20
8.2585
 30
0.0000
 42
1.0000
  0
VERTEX
  8
21
 10
0.7310
 20
8.2585
 30
0.0000
  0
VERTEX
  8
21
 10
0.7310
 20
8.4165
 30
0.0000
 42
1.0000
  0
SEQEND
  8
0
  0
POLYLINE
  8
21
 66
1
 10
0.0000
 20
0.0000
 30
0.0000
 40
0.0000
 41
0.0000
 70
1
  0
VERTEX
  8
21
 10
0.5080
 20
7.9485
 30
0.0000
  0
VERTEX
  8
21
 10
0.5080
 20
7.8498
 30
0.0000
 42
1.0000
  0
VERTEX
  8
21
 10
0.5334
 20
7.8498
 30
0.0000
  0
VERTEX
  8
21
 10
0.5334
 20
7.9485
 30
0.0000
 42
1.0000
  0
SEQEND
  8
0
  0
POLYLINE
  8
21
 66
1
 10
0.0000
 20
0.0000
 30
0.0000
 40
0.0000
 41
0.0000
 70
1
  0
VERTEX
  8
21
 10
0.5334
 20
7.8498
 30
0.0000
 42
1.0000
  0
VERTEX
  8
21
 10
0.5080
 20
7.8498
 30
0.0000
 42
1.0000
  0
VERTEX
  8
21
 10
0.7310
 20
7.8498
 30
0.0000
 42
1.0000
  0
VERTEX
  8
21
 10
0.7056
 20
7.8498
 30
0.0000
 42
-1.0000
  0
SEQEND
  8
0
  0
POLYLINE
  8
21
 66
1
 10
0.0000
 20
0.0000
 30
0.0000
 40
0.0000
 41
0.0000
 70
1
  0
VERTEX
  8
21
 10
0.8636
 20
7.9485
 30
0.0000
  0
VERTEX
  8
21
 10
0.8636
 20
7.8300
 30
0.0000
 42
1.0000
  0
VERTEX
  8
21
 10
0.8890
 20
7.8300
 30
0.0000
  0
VERTEX
  8
21
 10
0.8890
 20
7.9485
 30
0.0000
 42
1.0000
  0
SEQEND
  8
0
  0
POLYLINE
  8
21
 66
1
 10
0.0000
 20
0.0000
 30
0.0000
 40
0.0000
 41
0.0000
 70
1
  0
VERTEX
  8
21
 10
0.7310
 20
7.8300
 30
0.0000
 42
1.0000
  0
VERTEX
  8
21
 10
0.7056
 20
7.8300
 30
0.0000
 42
1.0000
  0
VERTEX
  8
21
 10
0.8890
 20
7.8300
 30
0.0000
 42
1.0000
  0
VERTEX
  8
21
 10
0.8636
 20
7.8300
 30
0.0000
 42
-1.0000
  0
SEQEND
  8
0
  0
POLYLINE
  8
21
 66
1
 10
0.0000
 20
0.0000
 30
0.0000
 40
0.0000
 41
0.0000
 70
1
  0
VERTEX
  8
21
 10
0.7310
 20
7.8300
 30
0.0000
  0
VERTEX
  8
21
 10
0.7310
 20
7.9090
 30
0.0000
 42
1.0000
  0
VERTEX
  8
21
 10
0.7056
 20
7.9090
 30
0.0000
  0
VERTEX
  8
21
 10
0.7056
 20
7.8300
 30
0.0000
 42
1.0000
  0
SEQEND
  8
0
  0
POLYLINE
  8
21
 66
1
 10
0.0000
 20
0.0000
 30
0.0000
 40
0.0000
 41
0.0000
 70
1
  0
VERTEX
  8
21
 10
0.7874
 20
7.4208
 30
0.0000
 42
1.0000
  0
VERTEX
  8
21
 10
0.7874
 20
7.3954
 30
0.0000
 42
0.4142
  0
VERTEX
  8
21
 10
0.8890
 20
7.4970
 30
0.0000
 42
1.0000
  0
VERTEX
  8
21
 10
0.8636
 20
7.4970
 30
0.0000
 42
-0.4142
  0
SEQEND
  8
0
  0
POLYLINE
  8
21
 66
1
 10
0.0000
 20
0.0000
 30
0.0000
 40
0.0000
 41
0.0000
 70
1
  0
VERTEX
  8
21
 10
0.8636
 20
7.4970
 30
0.0000
 42
1.0000
  0
VERTEX
  8
21
 10
0.8890
 20
7.4970
 30
0.0000
 42
0.3252
  0
VERTEX
  8
21
 10
0.8012
 20
7.6177
 30
0.0000
 42
1.0000
  0
VERTEX
  8
21
 10
0.7934
 20
7.5936
 30
0.0000
 42
-0.3252
  0
SEQEND
  8
0
  0
POLYLINE
  8
21
 66
1
 10
0.0000
 20
0.0000
 30
0.0000
 40
0.0000
 41
0.0000
 70
1
  0
VERTEX
  8
21
 10
0.7274
 20
7.4465
 30
0.0000
 42
1.0000
  0
VERTEX
  8
21
 10
0.7091
 20
7.4290
 30
0.0000
 42
0.2052
  0
VERTEX
  8
21
 10
0.7874
 20
7.3954
 30
0.0000
 42
1.0000
  0
VERTEX
  8
21
 10
0.7874
 20
7.4208
 30
0.0000
 42
-0.2052
  0
SEQEND
  8
0
  0
POLYLINE
  8
21
 66
1
 10
0.0000
 20
0.0000
 30
0.0000
 40
0.0000
 41
0.0000
 70
1
  0
VERTEX
  8
21
 10
0.7265
 20
7.4474
 30
0.0000
  0
VERTEX
  8
21
 10
0.5289
 20
7.6153
 30
0.0000
 42
1.0000
  0
VERTEX
  8
21
 10
0.5125
 20
7.5960
 30
0.0000
  0
VERTEX
  8
21
 10
0.7100
 20
7.4280
 30
0.0000
 42
1.0000
  0
SEQEND
  8
0
  0
POLYLINE
  8
21
 66
1
 10
0.0000
 20
0.0000
 30
0.0000
 40
0.0000
 41
0.0000
 70
1
  0
VERTEX
  8
21
 10
0.5080
 20
7.6056
 30
0.0000
  0
VERTEX
  8
21
 10
0.5080
 20
7.4081
 30
0.0000
 42
1.0000
  0
VERTEX
  8
21
 10
0.5334
 20
7.4081
 30
0.0000
  0
VERTEX
  8
21
 10
0.5334
 20
7.6056
 30
0.0000
 42
1.0000
  0
SEQEND
  8
0
  0
POLYLINE
  8
21
 66
1
 10
0.0000
 20
0.0000
 30
0.0000
 40
0.0000
 41
0.0000
 70
1
  0
VERTEX
  8
21
 10
0.6463
 20
7.2596
 30
0.0000
  0
VERTEX
  8
21
 10
0.6463
 20
7.0226
 30
0.0000
 42
1.0000
  0
VERTEX
  8
21
 10
0.6717
 20
7.0226
 30
0.0000
  0
VERTEX
  8
21
 10
0.6717
 20
7.2596
 30
0.0000
 42
1.0000
  0
SEQEND
  8
0
  0
POLYLINE
  8
21
 66
1
 10
0.0000
 20
0.0000
 30
0.0000
 40
0.0000
 41
0.0000
 70
1
  0
VERTEX
  8
21
 10
0.5334
 20
6.7386
 30
0.0000
  0
VERTEX
  8
21
 10
0.5334
 20
6.8176
 30
0.0000
 42
1.0000
  0
VERTEX
  8
21
 10
0.5080
 20
6.8176
 30
0.0000
  0
VERTEX
  8
21
 10
0.5080
 20
6.7386
 30
0.0000
 42
1.0000
  0
SEQEND
  8
0
  0
POLYLINE
  8
21
 66
1
 10
0.0000
 20
0.0000
 30
0.0000
 40
0.0000
 41
0.0000
 70
1
  0
VERTEX
  8
21
 10
0.5800
 20
6.8642
 30
0.0000
 42
1.0000
  0
VERTEX
  8
21
 10
0.5800
 20
6.8896
 30
0.0000
 42
0.4142
  0
VERTEX
  8
21
 10
0.5080
 20
6.8176
 30
0.0000
 42
1.0000
  0
VERTEX
  8
21
 10
0.5334
 20
6.8176
 30
0.0000
 42
-0.4142
  0
SEQEND
  8
0
  0
POLYLINE
  8
21
 66
1
 10
0.0000
 20
0.0000
 30
0.0000
 40
0.0000
 41
0.0000
 70
1
  0
VERTEX
  8
21
 10
0.5800
 20
6.8642
 30
0.0000
  0
VERTEX
  8
21
 10
0.6985
 20
6.8642
 30
0.0000
 42
1.0000
  0
VERTEX
  8
21
 10
0.6985
 20
6.8896
 30
0.0000
  0
VERTEX
  8
21
 10
0.5800
 20
6.8896
 30
0.0000
 42
1.0000
  0
SEQEND
  8
0
  0
POLYLINE
  8
21
 66
1
 10
0.0000
 20
0.0000
 30
0.0000
 40
0.0000
 41
0.0000
 70
1
  0
VERTEX
  8
21
 10
0.7451
 20
6.8176
 30
0.0000
 42
1.0000
  0
VERTEX
  8
21
 10
0.7705
 20
6.8176
 30
0.0000
 42
0.4142
  0
VERTEX
  8
21
 10
0.6985
 20
6.8896
 30
0.0000
 42
1.0000
  0
VERTEX
  8
21
 10
0.6985
 20
6.8642
 30
0.0000
 42
-0.4142
  0
SEQEND
  8
0
  0
POLYLINE
  8
21
 66
1
 10
0.0000
 20
0.0000
 30
0.0000
 40
0.0000
 41
0.0000
 70
1
  0
VERTEX
  8
21
 10
0.7451
 20
6.8176
 30
0.0000
  0
VERTEX
  8
21
 10
0.7451
 20
6.7386
 30
0.0000
 42
1.0000
  0
VERTEX
  8
21
 10
0.7705
 20
6.7386
 30
0.0000
  0
VERTEX
  8
21
 10
0.7705
 20
6.8176
 30
0.0000
 42
1.0000
  0
SEQEND
  8
0
  0
POLYLINE
  8
21
 66
1
 10
0.0000
 20
0.0000
 30
0.0000
 40
0.0000
 41
0.0000
 70
1
  0
VERTEX
  8
21
 10
0.5207
 20
6.5902
 30
0.0000
  0
VERTEX
  8
21
 10
0.8763
 20
6.5902
 30
0.0000
 42
1.0000
  0
VERTEX
  8
21
 10
0.8763
 20
6.6156
 30
0.0000
  0
VERTEX
  8
21
 10
0.5207
 20
6.6156
 30
0.0000
 42
1.0000
  0
SEQEND
  8
0
  0
POLYLINE
  8
21
 66
1
 10
0.0000
 20
0.0000
 30
0.0000
 40
0.0000
 41
0.0000
 70
1
  0
VERTEX
  8
21
 10
0.7451
 20
6.6029
 30
0.0000
  0
VERTEX
  8
21
 10
0.7451
 20
6.5041
 30
0.0000
 42
1.0000
  0
VERTEX
  8
21
 10
0.7705
 20
6.5041
 30
0.0000
  0
VERTEX
  8
21
 10
0.7705
 20
6.6029
 30
0.0000
 42
1.0000
  0
SEQEND
  8
0
  0
POLYLINE
  8
21
 66
1
 10
0.0000
 20
0.0000
 30
0.0000
 40
0.0000
 41
0.0000
 70
1
  0
VERTEX
  8
21
 10
0.6985
 20
6.4576
 30
0.0000
 42
1.0000
  0
VERTEX
  8
21
 10
0.6985
 20
6.4322
 30
0.0000
 42
0.4142
  0
VERTEX
  8
21
 10
0.7705
 20
6.5041
 30
0.0000
 42
1.0000
  0
VERTEX
  8
21
 10
0.7451
 20
6.5041
 30
0.0000
 42
-0.4142
  0
SEQEND
  8
0
  0
POLYLINE
  8
21
 66
1
 10
0.0000
 20
0.0000
 30
0.0000
 40
0.0000
 41
0.0000
 70
1
  0
VERTEX
  8
21
 10
0.6985
 20
6.4576
 30
0.0000
  0
VERTEX
  8
21
 10
0.5207
 20
6.4576
 30
0.0000
 42
1.0000
  0
VERTEX
  8
21
 10
0.5207
 20
6.4322
 30
0.0000
  0
VERTEX
  8
21
 10
0.6985
 20
6.4322
 30
0.0000
 42
1.0000
  0
SEQEND
  8
0
  0
POLYLINE
  8
21
 66
1
 10
0.0000
 20
0.0000
 30
0.0000
 40
0.0000
 41
0.0000
 70
1
  0
VERTEX
  8
21
 10
0.6717
 20
6.1379
 30
0.0000
  0
VERTEX
  8
21
 10
0.6717
 20
6.2268
 30
0.0000
 42
1.0000
  0
VERTEX
  8
21
 10
0.6463
 20
6.2268
 30
0.0000
  0
VERTEX
  8
21
 10
0.6463
 20
6.1379
 30
0.0000
 42
1.0000
  0
SEQEND
  8
0
  0
POLYLINE
  8
21
 66
1
 10
0.0000
 20
0.0000
 30
0.0000
 40
0.0000
 41
0.0000
 70
1
  0
VERTEX
  8
21
 10
0.6463
 20
6.2268
 30
0.0000
 42
1.0000
  0
VERTEX
  8
21
 10
0.6717
 20
6.2268
 30
0.0000
 42
1.0000
  0
VERTEX
  8
21
 10
0.5080
 20
6.2268
 30
0.0000
 42
1.0000
  0
VERTEX
  8
21
 10
0.5334
 20
6.2268
 30
0.0000
 42
-1.0000
  0
SEQEND
  8
0
  0
POLYLINE
  8
21
 66
1
 10
0.0000
 20
0.0000
 30
0.0000
 40
0.0000
 41
0.0000
 70
1
  0
VERTEX
  8
21
 10
0.5080
 20
6.2268
 30
0.0000
  0
VERTEX
  8
21
 10
0.5080
 20
6.1379
 30
0.0000
 42
1.0000
  0
VERTEX
  8
21
 10
0.5334
 20
6.1379
 30
0.0000
  0
VERTEX
  8
21
 10
0.5334
 20
6.2268
 30
0.0000
 42
1.0000
  0
SEQEND
  8
0
  0
POLYLINE
  8
21
 66
1
 10
0.0000
 20
0.0000
 30
0.0000
 40
0.0000
 41
0.0000
 70
1
  0
VERTEX
  8
21
 10
0.5207
 20
6.1252
 30
0.0000
  0
VERTEX
  8
21
 10
0.6985
 20
6.1252
 30
0.0000
 42
1.0000
  0
VERTEX
  8
21
 10
0.6985
 20
6.1506
 30
0.0000
  0
VERTEX
  8
21
 10
0.5207
 20
6.1506
 30
0.0000
 42
1.0000
  0
SEQEND
  8
0
  0
POLYLINE
  8
21
 66
1
 10
0.0000
 20
0.0000
 30
0.0000
 40
0.0000
 41
0.0000
 70
1
  0
VERTEX
  8
21
 10
0.6985
 20
6.1506
 30
0.0000
 42
1.0000
  0
VERTEX
  8
21
 10
0.6985
 20
6.1252
 30
0.0000
 42
0.4142
  0
VERTEX
  8
21
 10
0.7705
 20
6.1972
 30
0.0000
 42
1.0000
  0
VERTEX
  8
21
 10
0.7451
 20
6.1971
 30
0.0000
 42
-0.4142
  0
SEQEND
  8
0
  0
POLYLINE
  8
21
 66
1
 10
0.0000
 20
0.0000
 30
0.0000
 40
0.0000
 41
0.0000
 70
1
  0
VERTEX
  8
21
 10
0.7705
 20
6.1972
 30
0.0000
  0
VERTEX
  8
21
 10
0.7705
 20
6.2762
 30
0.0000
 42
1.0000
  0
VERTEX
  8
21
 10
0.7451
 20
6.2762
 30
0.0000
  0
VERTEX
  8
21
 10
0.7451
 20
6.1972
 30
0.0000
 42
1.0000
  0
SEQEND
  8
0
  0
POLYLINE
  8
21
 66
1
 10
0.0000
 20
0.0000
 30
0.0000
 40
0.0000
 41
0.0000
 70
1
  0
VERTEX
  8
21
 10
0.5207
 20
5.9616
 30
0.0000
  0
VERTEX
  8
21
 10
0.7578
 20
5.9616
 30
0.0000
 42
1.0000
  0
VERTEX
  8
21
 10
0.7578
 20
5.9870
 30
0.0000
  0
VERTEX
  8
21
 10
0.5207
 20
5.9870
 30
0.0000
 42
1.0000
  0
SEQEND
  8
0
  0
POLYLINE
  8
21
 66
1
 10
0.0000
 20
0.0000
 30
0.0000
 40
0.0000
 41
0.0000
 70
1
  0
VERTEX
  8
21
 10
0.7451
 20
5.9743
 30
0.0000
  0
VERTEX
  8
21
 10
0.7451
 20
5.8755
 30
0.0000
 42
1.0000
  0
VERTEX
  8
21
 10
0.7705
 20
5.8755
 30
0.0000
  0
VERTEX
  8
21
 10
0.7705
 20
5.9743
 30
0.0000
 42
1.0000
  0
SEQEND
  8
0
  0
POLYLINE
  8
21
 66
1
 10
0.0000
 20
0.0000
 30
0.0000
 40
0.0000
 41
0.0000
 70
1
  0
VERTEX
  8
21
 10
0.6985
 20
5.8289
 30
0.0000
 42
1.0000
  0
VERTEX
  8
21
 10
0.6985
 20
5.8035
 30
0.0000
 42
0.4142
  0
VERTEX
  8
21
 10
0.7705
 20
5.8755
 30
0.0000
 42
1.0000
  0
VERTEX
  8
21
 10
0.7451
 20
5.8755
 30
0.0000
 42
-0.4142
  0
SEQEND
  8
0
  0
POLYLINE
  8
21
 66
1
 10
0.0000
 20
0.0000
 30
0.0000
 40
0.0000
 41
0.0000
 70
1
  0
VERTEX
  8
21
 10
0.6985
 20
5.8289
 30
0.0000
  0
VERTEX
  8
21
 10
0.5207
 20
5.8289
 30
0.0000
 42
1.0000
  0
VERTEX
  8
21
 10
0.5207
 20
5.8035
 30
0.0000
  0
VERTEX
  8
21
 10
0.6985
 20
5.8035
 30
0.0000
 42
1.0000
  0
SEQEND
  8
0
  0
POLYLINE
  8
21
 66
1
 10
0.0000
 20
0.0000
 30
0.0000
 40
0.0000
 41
0.0000
 70
1
  0
VERTEX
  8
21
 10
0.5167
 20
5.1216
 30
0.0000
  0
VERTEX
  8
21
 10
0.8723
 20
5.0031
 30
0.0000
 42
1.0000
  0
VERTEX
  8
21
 10
0.8803
 20
5.0272
 30
0.0000
  0
VERTEX
  8
21
 10
0.5247
 20
5.1457
 30
0.0000
 42
1.0000
  0
SEQEND
  8
0
  0
POLYLINE
  8
21
 66
1
 10
0.0000
 20
0.0000
 30
0.0000
 40
0.0000
 41
0.0000
 70
1
  0
VERTEX
  8
21
 10
0.8723
 20
5.0272
 30
0.0000
  0
VERTEX
  8
21
 10
0.5167
 20
4.9087
 30
0.0000
 42
1.0000
  0
VERTEX
  8
21
 10
0.5247
 20
4.8846
 30
0.0000
  0
VERTEX
  8
21
 10
0.8803
 20
5.0031
 30
0.0000
 42
1.0000
  0
SEQEND
  8
0
  0
POLYLINE
  8
21
 66
1
 10
0.0000
 20
0.0000
 30
0.0000
 40
0.0000
 41
0.0000
 70
1
  0
VERTEX
  8
21
 10
0.6223
 20
4.9263
 30
0.0000
  0
VERTEX
  8
21
 10
0.6223
 20
5.1041
 30
0.0000
 42
1.0000
  0
VERTEX
  8
21
 10
0.5969
 20
5.1041
 30
0.0000
  0
VERTEX
  8
21
 10
0.5969
 20
4.9263
 30
0.0000
 42
1.0000
  0
SEQEND
  8
0
  0
POLYLINE
  8
21
 66
1
 10
0.0000
 20
0.0000
 30
0.0000
 40
0.0000
 41
0.0000
 70
1
  0
VERTEX
  8
21
 10
0.8368
 20
4.7583
 30
0.0000
  0
VERTEX
  8
21
 10
0.8763
 20
4.7583
 30
0.0000
 42
1.0000
  0
VERTEX
  8
21
 10
0.8763
 20
4.7837
 30
0.0000
  0
VERTEX
  8
21
 10
0.8368
 20
4.7837
 30
0.0000
 42
1.0000
  0
SEQEND
  8
0
  0
POLYLINE
  8
21
 66
1
 10
0.0000
 20
0.0000
 30
0.0000
 40
0.0000
 41
0.0000
 70
1
  0
VERTEX
  8
21
 10
0.8636
 20
4.7710
 30
0.0000
  0
VERTEX
  8
21
 10
0.8636
 20
4.5735
 30
0.0000
 42
1.0000
  0
VERTEX
  8
21
 10
0.8890
 20
4.5735
 30
0.0000
  0
VERTEX
  8
21
 10
0.8890
 20
4.7710
 30
0.0000
 42
1.0000
  0
SEQEND
  8
0
  0
POLYLINE
  8
21
 66
1
 10
0.0000
 20
0.0000
 30
0.0000
 40
0.0000
 41
0.0000
 70
1
  0
VERTEX
  8
21
 10
0.8797
 20
4.5857
 30
0.0000
  0
VERTEX
  8
21
 10
0.5241
 20
4.6845
 30
0.0000
 42
1.0000
  0
VERTEX
  8
21
 10
0.5173
 20
4.6600
 30
0.0000
  0
VERTEX
  8
21
 10
0.8729
 20
4.5612
 30
0.0000
 42
1.0000
  0
SEQEND
  8
0
  0
POLYLINE
  8
21
 66
1
 10
0.0000
 20
0.0000
 30
0.0000
 40
0.0000
 41
0.0000
 70
1
  0
VERTEX
  8
21
 10
0.6914
 20
4.2306
 30
0.0000
  0
VERTEX
  8
21
 10
0.6914
 20
4.3491
 30
0.0000
 42
1.0000
  0
VERTEX
  8
21
 10
0.6660
 20
4.3491
 30
0.0000
  0
VERTEX
  8
21
 10
0.6660
 20
4.2306
 30
0.0000
 42
1.0000
  0
SEQEND
  8
0
  0
POLYLINE
  8
21
 66
1
 10
0.0000
 20
0.0000
 30
0.0000
 40
0.0000
 41
0.0000
 70
1
  0
VERTEX
  8
21
 10
0.7578
 20
4.4154
 30
0.0000
 42
1.0000
  0
VERTEX
  8
21
 10
0.7578
 20
4.4408
 30
0.0000
 42
0.4142
  0
VERTEX
  8
21
 10
0.6660
 20
4.3491
 30
0.0000
 42
1.0000
  0
VERTEX
  8
21
 10
0.6914
 20
4.3491
 30
0.0000
 42
-0.4142
  0
SEQEND
  8
0
  0
POLYLINE
  8
21
 66
1
 10
0.0000
 20
0.0000
 30
0.0000
 40
0.0000
 41
0.0000
 70
1
  0
VERTEX
  8
21
 10
0.7578
 20
4.4154
 30
0.0000
  0
VERTEX
  8
21
 10
0.7775
 20
4.4154
 30
0.0000
 42
1.0000
  0
VERTEX
  8
21
 10
0.7775
 20
4.4408
 30
0.0000
  0
VERTEX
  8
21
 10
0.7578
 20
4.4408
 30
0.0000
 42
1.0000
  0
SEQEND
  8
0
  0
POLYLINE
  8
21
 66
1
 10
0.0000
 20
0.0000
 30
0.0000
 40
0.0000
 41
0.0000
 70
1
  0
VERTEX
  8
21
 10
0.7775
 20
4.2433
 30
0.0000
 42
1.0000
  0
VERTEX
  8
21
 10
0.7775
 20
4.2179
 30
0.0000
 42
1.0000
  0
VERTEX
  8
21
 10
0.7775
 20
4.4408
 30
0.0000
 42
1.0000
  0
VERTEX
  8
21
 10
0.7775
 20
4.4154
 30
0.0000
 42
-1.0000
  0
SEQEND
  8
0
  0
POLYLINE
  8
21
 66
1
 10
0.0000
 20
0.0000
 30
0.0000
 40
0.0000
 41
0.0000
 70
1
  0
VERTEX
  8
21
 10
0.7775
 20
4.2433
 30
0.0000
  0
VERTEX
  8
21
 10
0.6787
 20
4.2433
 30
0.0000
 42
1.0000
  0
VERTEX
  8
21
 10
0.6787
 20
4.2179
 30
0.0000
  0
VERTEX
  8
21
 10
0.7775
 20
4.2179
 30
0.0000
 42
1.0000
  0
SEQEND
  8
0
  0
POLYLINE
  8
21
 66
1
 10
0.0000
 20
0.0000
 30
0.0000
 40
0.0000
 41
0.0000
 70
1
  0
VERTEX
  8
21
 10
0.5334
 20
4.3886
 30
0.0000
 42
1.0000
  0
VERTEX
  8
21
 10
0.5080
 20
4.3886
 30
0.0000
 42
0.4142
  0
VERTEX
  8
21
 10
0.6787
 20
4.2179
 30
0.0000
 42
1.0000
  0
VERTEX
  8
21
 10
0.6787
 20
4.2433
 30
0.0000
 42
-0.4142
  0
SEQEND
  8
0
  0
POLYLINE
  8
21
 66
1
 10
0.0000
 20
0.0000
 30
0.0000
 40
0.0000
 41
0.0000
 70
1
  0
VERTEX
  8
21
 10
0.8213
 20
4.0442
 30
0.0000
 42
1.0000
  0
VERTEX
  8
21
 10
0.8325
 20
4.0670
 30
0.0000
 42
0.1139
  0
VERTEX
  8
21
 10
0.6985
 20
4.0979
 30
0.0000
 42
1.0000
  0
VERTEX
  8
21
 10
0.6985
 20
4.0725
 30
0.0000
 42
-0.1139
  0
SEQEND
  8
0
  0
POLYLINE
  8
21
 66
1
 10
0.0000
 20
0.0000
 30
0.0000
 40
0.0000
 41
0.0000
 70
1
  0
VERTEX
  8
21
 10
0.8636
 20
3.9865
 30
0.0000
 42
1.0000
  0
VERTEX
  8
21
 10
0.8890
 20
3.9865
 30
0.0000
 42
0.3205
  0
VERTEX
  8
21
 10
0.8310
 20
4.0676
 30
0.0000
 42
1.0000
  0
VERTEX
  8
21
 10
0.8228
 20
4.0436
 30
0.0000
 42
-0.3205
  0
SEQEND
  8
0
  0
POLYLINE
  8
21
 66
1
 10
0.0000
 20
0.0000
 30
0.0000
 40
0.0000
 41
0.0000
 70
1
  0
VERTEX
  8
21
 10
0.8228
 20
3.9293
 30
0.0000
 42
1.0000
  0
VERTEX
  8
21
 10
0.8310
 20
3.9053
 30
0.0000
 42
0.3204
  0
VERTEX
  8
21
 10
0.8890
 20
3.9865
 30
0.0000
 42
1.0000
  0
VERTEX
  8
21
 10
0.8636
 20
3.9865
 30
0.0000
 42
-0.3204
  0
SEQEND
  8
0
  0
POLYLINE
  8
21
 66
1
 10
0.0000
 20
0.0000
 30
0.0000
 40
0.0000
 41
0.0000
 70
1
  0
VERTEX
  8
21
 10
0.6985
 20
3.9004
 30
0.0000
 42
1.0000
  0
VERTEX
  8
21
 10
0.6985
 20
3.8750
 30
0.0000
 42
0.1139
  0
VERTEX
  8
21
 10
0.8325
 20
3.9059
 30
0.0000
 42
1.0000
  0
VERTEX
  8
21
 10
0.8213
 20
3.9287
 30
0.0000
 42
-0.1139
  0
SEQEND
  8
0
  0
POLYLINE
  8
21
 66
1
 10
0.0000
 20
0.0000
 30
0.0000
 40
0.0000
 41
0.0000
 70
1
  0
VERTEX
  8
21
 10
0.6985
 20
4.0725
 30
0.0000
 42
1.0000
  0
VERTEX
  8
21
 10
0.6985
 20
4.0979
 30
0.0000
 42
0.1139
  0
VERTEX
  8
21
 10
0.5645
 20
4.0670
 30
0.0000
 42
1.0000
  0
VERTEX
  8
21
 10
0.5757
 20
4.0442
 30
0.0000
 42
-0.1139
  0
SEQEND
  8
0
  0
POLYLINE
  8
21
 66
1
 10
0.0000
 20
0.0000
 30
0.0000
 40
0.0000
 41
0.0000
 70
1
  0
VERTEX
  8
21
 10
0.5742
 20
4.0436
 30
0.0000
 42
1.0000
  0
VERTEX
  8
21
 10
0.5660
 20
4.0676
 30
0.0000
 42
0.3205
  0
VERTEX
  8
21
 10
0.5080
 20
3.9865
 30
0.0000
 42
1.0000
  0
VERTEX
  8
21
 10
0.5334
 20
3.9865
 30
0.0000
 42
-0.3205
  0
SEQEND
  8
0
  0
POLYLINE
  8
21
 66
1
 10
0.0000
 20
0.0000
 30
0.0000
 40
0.0000
 41
0.0000
 70
1
  0
VERTEX
  8
21
 10
0.5757
 20
3.9287
 30
0.0000
 42
1.0000
  0
VERTEX
  8
21
 10
0.5645
 20
3.9059
 30
0.0000
 42
0.1139
  0
VERTEX
  8
21
 10
0.6985
 20
3.8750
 30
0.0000
 42
1.0000
  0
VERTEX
  8
21
 10
0.6985
 20
3.9004
 30
0.0000
 42
-0.1139
  0
SEQEND
  8
0
  0
POLYLINE
  8
21
 66
1
 10
0.0000
 20
0.0000
 30
0.0000
 40
0.0000
 41
0.0000
 70
1
  0
VERTEX
  8
21
 10
0.5334
 20
3.9865
 30
0.0000
 42
1.0000
  0
VERTEX
  8
21
 10
0.5080
 20
3.9865
 30
0.0000
 42
0.3204
  0
VERTEX
  8
21
 10
0.5660
 20
3.9053
 30
0.0000
 42
1.0000
  0
VERTEX
  8
21
 10
0.5742
 20
3.9293
 30
0.0000
 42
-0.3204
  0
SEQEND
  8
0
  0
POLYLINE
  8
21
 66
1
 10
0.0000
 20
0.0000
 30
0.0000
 40
0.0000
 41
0.0000
 70
1
  0
VERTEX
  8
21
 10
0.5918
 20
4.0556
 30
0.0000
  0
VERTEX
  8
21
 10
0.7893
 20
3.8975
 30
0.0000
 42
1.0000
  0
VERTEX
  8
21
 10
0.8052
 20
3.9174
 30
0.0000
  0
VERTEX
  8
21
 10
0.6077
 20
4.0754
 30
0.0000
 42
1.0000
  0
SEQEND
  8
0
  0
POLYLINE
  8
21
 66
1
 10
0.0000
 20
0.0000
 30
0.0000
 40
0.0000
 41
0.0000
 70
1
  0
VERTEX
  8
21
 10
0.7874
 20
3.5575
 30
0.0000
 42
1.0000
  0
VERTEX
  8
21
 10
0.7874
 20
3.5321
 30
0.0000
 42
0.4142
  0
VERTEX
  8
21
 10
0.8890
 20
3.6337
 30
0.0000
 42
1.0000
  0
VERTEX
  8
21
 10
0.8636
 20
3.6337
 30
0.0000
 42
-0.4142
  0
SEQEND
  8
0
  0
POLYLINE
  8
21
 66
1
 10
0.0000
 20
0.0000
 30
0.0000
 40
0.0000
 41
0.0000
 70
1
  0
VERTEX
  8
21
 10
0.8636
 20
3.6337
 30
0.0000
 42
1.0000
  0
VERTEX
  8
21
 10
0.8890
 20
3.6337
 30
0.0000
 42
0.3252
  0
VERTEX
  8
21
 10
0.8012
 20
3.7544
 30
0.0000
 42
1.0000
  0
VERTEX
  8
21
 10
0.7934
 20
3.7303
 30
0.0000
 42
-0.3252
  0
SEQEND
  8
0
  0
POLYLINE
  8
21
 66
1
 10
0.0000
 20
0.0000
 30
0.0000
 40
0.0000
 41
0.0000
 70
1
  0
VERTEX
  8
21
 10
0.7274
 20
3.5832
 30
0.0000
 42
1.0000
  0
VERTEX
  8
21
 10
0.7091
 20
3.5657
 30
0.0000
 42
0.2052
  0
VERTEX
  8
21
 10
0.7874
 20
3.5321
 30
0.0000
 42
1.0000
  0
VERTEX
  8
21
 10
0.7874
 20
3.5575
 30
0.0000
 42
-0.2052
  0
SEQEND
  8
0
  0
POLYLINE
  8
21
 66
1
 10
0.0000
 20
0.0000
 30
0.0000
 40
0.0000
 41
0.0000
 70
1
  0
VERTEX
  8
21
 10
0.7265
 20
3.5841
 30
0.0000
  0
VERTEX
  8
21
 10
0.5289
 20
3.7520
 30
0.0000
 42
1.0000
  0
VERTEX
  8
21
 10
0.5125
 20
3.7327
 30
0.0000
  0
VERTEX
  8
21
 10
0.7100
 20
3.5647
 30
0.0000
 42
1.0000
  0
SEQEND
  8
0
  0
POLYLINE
  8
21
 66
1
 10
0.0000
 20
0.0000
 30
0.0000
 40
0.0000
 41
0.0000
 70
1
  0
VERTEX
  8
21
 10
0.5080
 20
3.7423
 30
0.0000
  0
VERTEX
  8
21
 10
0.5080
 20
3.5448
 30
0.0000
 42
1.0000
  0
VERTEX
  8
21
 10
0.5334
 20
3.5448
 30
0.0000
  0
VERTEX
  8
21
 10
0.5334
 20
3.7423
 30
0.0000
 42
1.0000
  0
SEQEND
  8
0
  0
POLYLINE
  8
21
 66
1
 10
0.0000
 20
0.0000
 30
0.0000
 40
0.0000
 41
0.0000
 70
1
  0
VERTEX
  8
21
 10
0.8798
 20
3.3326
 30
0.0000
  0
VERTEX
  8
21
 10
0.6032
 20
3.4117
 30
0.0000
 42
1.0000
  0
VERTEX
  8
21
 10
0.5962
 20
3.3872
 30
0.0000
  0
VERTEX
  8
21
 10
0.8728
 20
3.3082
 30
0.0000
 42
1.0000
  0
SEQEND
  8
0
  0
POLYLINE
  8
21
 66
1
 10
0.0000
 20
0.0000
 30
0.0000
 40
0.0000
 41
0.0000
 70
1
  0
VERTEX
  8
21
 10
0.5870
 20
3.3994
 30
0.0000
  0
VERTEX
  8
21
 10
0.5870
 20
3.2019
 30
0.0000
 42
1.0000
  0
VERTEX
  8
21
 10
0.6124
 20
3.2019
 30
0.0000
  0
VERTEX
  8
21
 10
0.6124
 20
3.3994
 30
0.0000
 42
1.0000
  0
SEQEND
  8
0
  0
POLYLINE
  8
21
 66
1
 10
0.0000
 20
0.0000
 30
0.0000
 40
0.0000
 41
0.0000
 70
1
  0
VERTEX
  8
21
 10
0.6787
 20
3.2739
 30
0.0000
  0
VERTEX
  8
21
 10
0.5207
 20
3.2739
 30
0.0000
 42
1.0000
  0
VERTEX
  8
21
 10
0.5207
 20
3.2485
 30
0.0000
  0
VERTEX
  8
21
 10
0.6787
 20
3.2485
 30
0.0000
 42
1.0000
  0
SEQEND
  8
0
  0
POLYLINE
  8
21
 66
1
 10
0.0000
 20
0.0000
 30
0.0000
 40
0.0000
 41
0.0000
 70
1
  0
VERTEX
  8
21
 10
6.8820
 20
1.2136
 30
0.0000
  0
VERTEX
  8
21
 10
6.9413
 20
1.2136
 30
0.0000
 42
1.0000
  0
VERTEX
  8
21
 10
6.9413
 20
1.2390
 30
0.0000
  0
VERTEX
  8
21
 10
6.8820
 20
1.2390
 30
0.0000
 42
1.0000
  0
SEQEND
  8
0
  0
POLYLINE
  8
21
 66
1
 10
0.0000
 20
0.0000
 30
0.0000
 40
0.0000
 41
0.0000
 70
1
  0
VERTEX
  8
21
 10
6.9286
 20
1.2263
 30
0.0000
  0
VERTEX
  8
21
 10
6.9286
 20
1.0287
 30
0.0000
 42
1.0000
  0
VERTEX
  8
21
 10
6.9540
 20
1.0287
 30
0.0000
  0
VERTEX
  8
21
 10
6.9540
 20
1.2263
 30
0.0000
 42
1.0000
  0
SEQEND
  8
0
  0
POLYLINE
  8
21
 66
1
 10
0.0000
 20
0.0000
 30
0.0000
 40
0.0000
 41
0.0000
 70
1
  0
VERTEX
  8
21
 10
6.9413
 20
1.0414
 30
0.0000
  0
VERTEX
  8
21
 10
6.8227
 20
1.0414
 30
0.0000
 42
1.0000
  0
VERTEX
  8
21
 10
6.8227
 20
1.0160
 30
0.0000
  0
VERTEX
  8
21
 10
6.9413
 20
1.0160
 30
0.0000
 42
1.0000
  0
SEQEND
  8
0
  0
POLYLINE
  8
21
 66
1
 10
0.0000
 20
0.0000
 30
0.0000
 40
0.0000
 41
0.0000
 70
1
  0
VERTEX
  8
21
 10
6.7564
 20
1.1077
 30
0.0000
 42
1.0000
  0
VERTEX
  8
21
 10
6.7310
 20
1.1077
 30
0.0000
 42
0.4142
  0
VERTEX
  8
21
 10
6.8227
 20
1.0160
 30
0.0000
 42
1.0000
  0
VERTEX
  8
21
 10
6.8227
 20
1.0414
 30
0.0000
 42
-0.4142
  0
SEQEND
  8
0
  0
POLYLINE
  8
21
 66
1
 10
0.0000
 20
0.0000
 30
0.0000
 40
0.0000
 41
0.0000
 70
1
  0
VERTEX
  8
21
 10
6.7564
 20
1.1077
 30
0.0000
  0
VERTEX
  8
21
 10
6.7564
 20
1.3053
 30
0.0000
 42
1.0000
  0
VERTEX
  8
21
 10
6.7310
 20
1.3053
 30
0.0000
  0
VERTEX
  8
21
 10
6.7310
 20
1.1077
 30
0.0000
 42
1.0000
  0
SEQEND
  8
0
  0
POLYLINE
  8
21
 66
1
 10
0.0000
 20
0.0000
 30
0.0000
 40
0.0000
 41
0.0000
 70
1
  0
VERTEX
  8
21
 10
6.8227
 20
1.3716
 30
0.0000
 42
1.0000
  0
VERTEX
  8
21
 10
6.8227
 20
1.3970
 30
0.0000
 42
0.4142
  0
VERTEX
  8
21
 10
6.7310
 20
1.3053
 30
0.0000
 42
1.0000
  0
VERTEX
  8
21
 10
6.7564
 20
1.3053
 30
0.0000
 42
-0.4142
  0
SEQEND
  8
0
  0
POLYLINE
  8
21
 66
1
 10
0.0000
 20
0.0000
 30
0.0000
 40
0.0000
 41
0.0000
 70
1
  0
VERTEX
  8
21
 10
6.8227
 20
1.3716
 30
0.0000
  0
VERTEX
  8
21
 10
6.9413
 20
1.3716
 30
0.0000
 42
1.0000
  0
VERTEX
  8
21
 10
6.9413
 20
1.3970
 30
0.0000
  0
VERTEX
  8
21
 10
6.8227
 20
1.3970
 30
0.0000
 42
1.0000
  0
SEQEND
  8
0
  0
POLYLINE
  8
21
 66
1
 10
0.0000
 20
0.0000
 30
0.0000
 40
0.0000
 41
0.0000
 70
1
  0
VERTEX
  8
21
 10
6.8820
 20
11.2466
 30
0.0000
  0
VERTEX
  8
21
 10
6.9413
 20
11.2466
 30
0.0000
 42
1.0000
  0
VERTEX
  8
21
 10
6.9413
 20
11.2720
 30
0.0000
  0
VERTEX
  8
21
 10
6.8820
 20
11.2720
 30
0.0000
 42
1.0000
  0
SEQEND
  8
0
  0
POLYLINE
  8
21
 66
1
 10
0.0000
 20
0.0000
 30
0.0000
 40
0.0000
 41
0.0000
 70
1
  0
VERTEX
  8
21
 10
6.9286
 20
11.2593
 30
0.0000
  0
VERTEX
  8
21
 10
6.9286
 20
11.0617
 30
0.0000
 42
1.0000
  0
VERTEX
  8
21
 10
6.9540
 20
11.0617
 30
0.0000
  0
VERTEX
  8
21
 10
6.9540
 20
11.2593
 30
0.0000
 42
1.0000
  0
SEQEND
  8
0
  0
POLYLINE
  8
21
 66
1
 10
0.0000
 20
0.0000
 30
0.0000
 40
0.0000
 41
0.0000
 70
1
  0
VERTEX
  8
21
 10
6.9413
 20
11.0744
 30
0.0000
  0
VERTEX
  8
21
 10
6.8227
 20
11.0744
 30
0.0000
 42
1.0000
  0
VERTEX
  8
21
 10
6.8227
 20
11.0490
 30
0.0000
  0
VERTEX
  8
21
 10
6.9413
 20
11.0490
 30
0.0000
 42
1.0000
  0
SEQEND
  8
0
  0
POLYLINE
  8
21
 66
1
 10
0.0000
 20
0.0000
 30
0.0000
 40
0.0000
 41
0.0000
 70
1
  0
VERTEX
  8
21
 10
6.7564
 20
11.1407
 30
0.0000
 42
1.0000
  0
VERTEX
  8
21
 10
6.7310
 20
11.1407
 30
0.0000
 42
0.4142
  0
VERTEX
  8
21
 10
6.8227
 20
11.0490
 30
0.0000
 42
1.0000
  0
VERTEX
  8
21
 10
6.8227
 20
11.0744
 30
0.0000
 42
-0.4142
  0
SEQEND
  8
0
  0
POLYLINE
  8
21
 66
1
 10
0.0000
 20
0.0000
 30
0.0000
 40
0.0000
 41
0.0000
 70
1
  0
VERTEX
  8
21
 10
6.7564
 20
11.1407
 30
0.0000
  0
VERTEX
  8
21
 10
6.7564
 20
11.3383
 30
0.0000
 42
1.0000
  0
VERTEX
  8
21
 10
6.7310
 20
11.3383
 30
0.0000
  0
VERTEX
  8
21
 10
6.7310
 20
11.1407
 30
0.0000
 42
1.0000
  0
SEQEND
  8
0
  0
POLYLINE
  8
21
 66
1
 10
0.0000
 20
0.0000
 30
0.0000
 40
0.0000
 41
0.0000
 70
1
  0
VERTEX
  8
21
 10
6.8227
 20
11.4046
 30
0.0000
 42
1.0000
  0
VERTEX
  8
21
 10
6.8227
 20
11.4300
 30
0.0000
 42
0.4142
  0
VERTEX
  8
21
 10
6.7310
 20
11.3383
 30
0.0000
 42
1.0000
  0
VERTEX
  8
21
 10
6.7564
 20
11.3383
 30
0.0000
 42
-0.4142
  0
SEQEND
  8
0
  0
POLYLINE
  8
21
 66
1
 10
0.0000
 20
0.0000
 30
0.0000
 40
0.0000
 41
0.0000
 70
1
  0
VERTEX
  8
21
 10
6.8227
 20
11.4046
 30
0.0000
  0
VERTEX
  8
21
 10
6.9413
 20
11.4046
 30
0.0000
 42
1.0000
  0
VERTEX
  8
21
 10
6.9413
 20
11.4300
 30
0.0000
  0
VERTEX
  8
21
 10
6.8227
 20
11.4300
 30
0.0000
 42
1.0000
  0
SEQEND
  8
0
  0
CIRCLE
  8
20
 10
6.6040
 20
2.5400
 30
0.0000
 40
0.2286
  0
CIRCLE
  8
29
 10
6.6040
 20
2.5400
 30
0.0000
 40
0.3302
  0
CIRCLE
  8
20
 10
6.6040
 20
9.6520
 30
0.0000
 40
0.2182
  0
CIRCLE
  8
29
 10
6.6040
 20
9.6520
 30
0.0000
 40
0.3198
  0
POINT
  8
23
 10
6.9850
 20
6.0960
 30
0.0000
  0
INSERT
  8
1
  2
RECT
 10
5.7775
 20
3.6110
 30
0.0000
 41
0.2250
 42
0.3500
 43
1.0000
 50
90.0000
  0
INSERT
  8
29
  2
RECT
 10
5.7775
 20
3.6110
 30
0.0000
 41
0.4282
 42
0.5532
 43
1.0000
 50
90.0000
  0
INSERT
  8
1
  2
RECT
 10
5.7775
 20
4.3210
 30
0.0000
 41
0.2250
 42
0.3500
 43
1.0000
 50
90.0000
  0
INSERT
  8
29
  2
RECT
 10
5.7775
 20
4.3210
 30
0.0000
 41
0.4282
 42
0.5532
 43
1.0000
 50
90.0000
  0
INSERT
  8
1
  2
RECT
 10
5.7775
 20
5.0310
 30
0.0000
 41
0.2250
 42
0.3500
 43
1.0000
 50
90.0000
  0
INSERT
  8
29
  2
RECT
 10
5.7775
 20
5.0310
 30
0.0000
 41
0.4282
 42
0.5532
 43
1.0000
 50
90.0000
  0
INSERT
  8
1
  2
RECT
 10
5.7775
 20
5.7410
 30
0.0000
 41
0.2250
 42
0.3500
 43
1.0000
 50
90.0000
  0
INSERT
  8
29
  2
RECT
 10
5.7775
 20
5.7410
 30
0.0000
 41
0.4282
 42
0.5532
 43
1.0000
 50
90.0000
  0
INSERT
  8
1
  2
RECT
 10
5.7775
 20
6.4510
 30
0.0000
 41
0.2250
 42
0.3500
 43
1.0000
 50
90.0000
  0
INSERT
  8
29
  2
RECT
 10
5.7775
 20
6.4510
 30
0.0000
 41
0.4282
 42
0.5532
 43
1.0000
 50
90.0000
  0
INSERT
  8
1
  2
RECT
 10
5.7775
 20
7.1610
 30
0.0000
 41
0.2250
 42
0.3500
 43
1.0000
 50
90.0000
  0
INSERT
  8
29
  2
RECT
 10
5.7775
 20
7.1610
 30
0.0000
 41
0.4282
 42
0.5532
 43
1.0000
 50
90.0000
  0
INSERT
  8
1
  2
RECT
 10
5.7775
 20
7.8710
 30
0.0000
 41
0.2250
 42
0.3500
 43
1.0000
 50
90.0000
  0
INSERT
  8
29
  2
RECT
 10
5.7775
 20
7.8710
 30
0.0000
 41
0.4282
 42
0.5532
 43
1.0000
 50
90.0000
  0
INSERT
  8
1
  2
RECT
 10
5.7775
 20
8.5810
 30
0.0000
 41
0.2250
 42
0.3500
 43
1.0000
 50
90.0000
  0
INSERT
  8
29
  2
RECT
 10
5.7775
 20
8.5810
 30
0.0000
 41
0.4282
 42
0.5532
 43
1.0000
 50
90.0000
  0
INSERT
  8
1
  2
RECT
 10
6.5825
 20
3.6110
 30
0.0000
 41
0.2250
 42
0.3500
 43
1.0000
 50
90.0000
  0
INSERT
  8
29
  2
RECT
 10
6.5825
 20
3.6110
 30
0.0000
 41
0.4282
 42
0.5532
 43
1.0000
 50
90.0000
  0
INSERT
  8
1
  2
RECT
 10
6.5825
 20
4.3210
 30
0.0000
 41
0.2250
 42
0.3500
 43
1.0000
 50
90.0000
  0
INSERT
  8
29
  2
RECT
 10
6.5825
 20
4.3210
 30
0.0000
 41
0.4282
 42
0.5532
 43
1.0000
 50
90.0000
  0
INSERT
  8
1
  2
RECT
 10
6.5825
 20
5.0310
 30
0.0000
 41
0.2250
 42
0.3500
 43
1.0000
 50
90.0000
  0
INSERT
  8
29
  2
RECT
 10
6.5825
 20
5.0310
 30
0.0000
 41
0.4282
 42
0.5532
 43
1.0000
 50
90.0000
  0
INSERT
  8
1
  2
RECT
 10
6.5825
 20
5.7410
 30
0.0000
 41
0.2250
 42
0.3500
 43
1.0000
 50
90.0000
  0
INSERT
  8
29
  2
RECT
 10
6.5825
 20
5.7410
 30
0.0000
 41
0.4282
 42
0.5532
 43
1.0000
 50
90.0000
  0
INSERT
  8
1
  2
RECT
 10
6.5825
 20
6.4510
 30
0.0000
 41
0.2250
 42
0.3500
 43
1.0000
 50
90.0000
  0
INSERT
  8
29
  2
RECT
 10
6.5825
 20
6.4510
 30
0.0000
 41
0.4282
 42
0.5532
 43
1.0000
 50
90.0000
  0
INSERT
  8
1
  2
RECT
 10
6.5825
 20
7.1610
 30
0.0000
 41
0.2250
 42
0.3500
 43
1.0000
 50
90.0000
  0
INSERT
  8
29
  2
RECT
 10
6.5825
 20
7.1610
 30
0.0000
 41
0.4282
 42
0.5532
 43
1.0000
 50
90.0000
  0
INSERT
  8
1
  2
RECT
 10
6.5825
 20
7.8710
 30
0.0000
 41
0.2250
 42
0.3500
 43
1.0000
 50
90.0000
  0
INSERT
  8
29
  2
RECT
 10
6.5825
 20
7.8710
 30
0.0000
 41
0.4282
 42
0.5532
 43
1.0000
 50
90.0000
  0
INSERT
  8
1
  2
RECT
 10
6.5825
 20
8.5810
 30
0.0000
 41
0.2250
 42
0.3500
 43
1.0000
 50
90.0000
  0
INSERT
  8
29
  2
RECT
 10
6.5825
 20
8.5810
 30
0.0000
 41
0.4282
 42
0.5532
 43
1.0000
 50
90.0000
  0
INSERT
  8
1
  2
RECT
 10
7.3875
 20
3.6110
 30
0.0000
 41
0.2250
 42
0.3500
 43
1.0000
 50
90.0000
  0
INSERT
  8
29
  2
RECT
 10
7.3875
 20
3.6110
 30
0.0000
 41
0.4282
 42
0.5532
 43
1.0000
 50
90.0000
  0
INSERT
  8
1
  2
RECT
 10
7.3875
 20
4.3210
 30
0.0000
 41
0.2250
 42
0.3500
 43
1.0000
 50
90.0000
  0
INSERT
  8
29
  2
RECT
 10
7.3875
 20
4.3210
 30
0.0000
 41
0.4282
 42
0.5532
 43
1.0000
 50
90.0000
  0
INSERT
  8
1
  2
RECT
 10
7.3875
 20
5.0310
 30
0.0000
 41
0.2250
 42
0.3500
 43
1.0000
 50
90.0000
  0
INSERT
  8
29
  2
RECT
 10
7.3875
 20
5.0310
 30
0.0000
 41
0.4282
 42
0.5532
 43
1.0000
 50
90.0000
  0
INSERT
  8
1
  2
RECT
 10
7.3875
 20
5.7410
 30
0.0000
 41
0.2250
 42
0.3500
 43
1.0000
 50
90.0000
  0
INSERT
  8
29
  2
RECT
 10
7.3875
 20
5.7410
 30
0.0000
 41
0.4282
 42
0.5532
 43
1.0000
 50
90.0000
  0
INSERT
  8
1
  2
RECT
 10
7.3875
 20
6.4510
 30
0.0000
 41
0.2250
 42
0.3500
 43
1.0000
 50
90.0000
  0
INSERT
  8
29
  2
RECT
 10
7.3875
 20
6.4510
 30
0.0000
 41
0.4282
 42
0.5532
 43
1.0000
 50
90.0000
  0
INSERT
  8
1
  2
RECT
 10
7.3875
 20
7.1610
 30
0.0000
 41
0.2250
 42
0.3500
 43
1.0000
 50
90.0000
  0
INSERT
  8
29
  2
RECT
 10
7.3875
 20
7.1610
 30
0.0000
 41
0.4282
 42
0.5532
 43
1.0000
 50
90.0000
  0
INSERT
  8
1
  2
RECT
 10
7.3875
 20
7.8710
 30
0.0000
 41
0.2250
 42
0.3500
 43
1.0000
 50
90.0000
  0
INSERT
  8
29
  2
RECT
 10
7.3875
 20
7.8710
 30
0.0000
 41
0.4282
 42
0.5532
 43
1.0000
 50
90.0000
  0
INSERT
  8
1
  2
RECT
 10
7.3875
 20
8.5810
 30
0.0000
 41
0.2250
 42
0.3500
 43
1.0000
 50
90.0000
  0
INSERT
  8
29
  2
RECT
 10
7.3875
 20
8.5810
 30
0.0000
 41
0.4282
 42
0.5532
 43
1.0000
 50
90.0000
  0
INSERT
  8
1
  2
RECT
 10
8.1925
 20
3.6110
 30
0.0000
 41
0.2250
 42
0.3500
 43
1.0000
 50
90.0000
  0
INSERT
  8
29
  2
RECT
 10
8.1925
 20
3.6110
 30
0.0000
 41
0.4282
 42
0.5532
 43
1.0000
 50
90.0000
  0
INSERT
  8
1
  2
RECT
 10
8.1925
 20
4.3210
 30
0.0000
 41
0.2250
 42
0.3500
 43
1.0000
 50
90.0000
  0
INSERT
  8
29
  2
RECT
 10
8.1925
 20
4.3210
 30
0.0000
 41
0.4282
 42
0.5532
 43
1.0000
 50
90.0000
  0
INSERT
  8
1
  2
RECT
 10
8.1925
 20
5.0310
 30
0.0000
 41
0.2250
 42
0.3500
 43
1.0000
 50
90.0000
  0
INSERT
  8
29
  2
RECT
 10
8.1925
 20
5.0310
 30
0.0000
 41
0.4282
 42
0.5532
 43
1.0000
 50
90.0000
  0
INSERT
  8
1
  2
RECT
 10
8.1925
 20
5.7410
 30
0.0000
 41
0.2250
 42
0.3500
 43
1.0000
 50
90.0000
  0
INSERT
  8
29
  2
RECT
 10
8.1925
 20
5.7410
 30
0.0000
 41
0.4282
 42
0.5532
 43
1.0000
 50
90.0000
  0
INSERT
  8
1
  2
RECT
 10
8.1925
 20
6.4510
 30
0.0000
 41
0.2250
 42
0.3500
 43
1.0000
 50
90.0000
  0
INSERT
  8
29
  2
RECT
 10
8.1925
 20
6.4510
 30
0.0000
 41
0.4282
 42
0.5532
 43
1.0000
 50
90.0000
  0
INSERT
  8
1
  2
RECT
 10
8.1925
 20
7.1610
 30
0.0000
 41
0.2250
 42
0.3500
 43
1.0000
 50
90.0000
  0
INSERT
  8
29
  2
RECT
 10
8.1925
 20
7.1610
 30
0.0000
 41
0.4282
 42
0.5532
 43
1.0000
 50
90.0000
  0
INSERT
  8
1
  2
RECT
 10
8.1925
 20
7.8710
 30
0.0000
 41
0.2250
 42
0.3500
 43
1.0000
 50
90.0000
  0
INSERT
  8
29
  2
RECT
 10
8.1925
 20
7.8710
 30
0.0000
 41
0.4282
 42
0.5532
 43
1.0000
 50
90.0000
  0
INSERT
  8
1
  2
RECT
 10
8.1925
 20
8.5810
 30
0.0000
 41
0.2250
 42
0.3500
 43
1.0000
 50
90.0000
  0
INSERT
  8
29
  2
RECT
 10
8.1925
 20
8.5810
 30
0.0000
 41
0.4282
 42
0.5532
 43
1.0000
 50
90.0000
  0
INSERT
  8
1
  2
RECT
 10
4.9725
 20
3.6110
 30
0.0000
 41
0.2250
 42
0.3500
 43
1.0000
 50
90.0000
  0
INSERT
  8
29
  2
RECT
 10
4.9725
 20
3.6110
 30
0.0000
 41
0.4282
 42
0.5532
 43
1.0000
 50
90.0000
  0
INSERT
  8
1
  2
RECT
 10
4.9725
 20
8.5810
 30
0.0000
 41
0.2250
 42
0.3500
 43
1.0000
 50
90.0000
  0
INSERT
  8
29
  2
RECT
 10
4.9725
 20
8.5810
 30
0.0000
 41
0.4282
 42
0.5532
 43
1.0000
 50
90.0000
  0
POINT
  8
23
 10
0.5080
 20
6.0960
 30
0.0000
  0
INSERT
  8
1
  2
RECT
 10
2.3876
 20
0.6985
 30
0.0000
 41
0.7620
 42
0.3810
 43
1.0000
 50
0.0000
  0
INSERT
  8
29
  2
RECT
 10
2.3876
 20
0.6985
 30
0.0000
 41
0.9652
 42
0.5842
 43
1.0000
 50
0.0000
  0
INSERT
  8
1
  2
RECT
 10
2.3876
 20
1.3335
 30
0.0000
 41
0.7620
 42
0.3810
 43
1.0000
 50
0.0000
  0
INSERT
  8
29
  2
RECT
 10
2.3876
 20
1.3335
 30
0.0000
 41
0.9652
 42
0.5842
 43
1.0000
 50
0.0000
  0
INSERT
  8
1
  2
RECT
 10
2.3876
 20
1.9685
 30
0.0000
 41
0.7620
 42
0.3810
 43
1.0000
 50
0.0000
  0
INSERT
  8
29
  2
RECT
 10
2.3876
 20
1.9685
 30
0.0000
 41
0.9652
 42
0.5842
 43
1.0000
 50
0.0000
  0
INSERT
  8
1
  2
RECT
 10
2.3876
 20
2.6035
 30
0.0000
 41
0.7620
 42
0.3810
 43
1.0000
 50
0.0000
  0
INSERT
  8
29
  2
RECT
 10
2.3876
 20
2.6035
 30
0.0000
 41
0.9652
 42
0.5842
 43
1.0000
 50
0.0000
  0
INSERT
  8
1
  2
RECT
 10
2.3876
 20
3.2385
 30
0.0000
 41
0.7620
 42
0.3810
 43
1.0000
 50
0.0000
  0
INSERT
  8
29
  2
RECT
 10
2.3876
 20
3.2385
 30
0.0000
 41
0.9652
 42
0.5842
 43
1.0000
 50
0.0000
  0
INSERT
  8
1
  2
RECT
 10
2.3876
 20
3.8735
 30
0.0000
 41
0.7620
 42
0.3810
 43
1.0000
 50
0.0000
  0
INSERT
  8
29
  2
RECT
 10
2.3876
 20
3.8735
 30
0.0000
 41
0.9652
 42
0.5842
 43
1.0000
 50
0.0000
  0
INSERT
  8
1
  2
RECT
 10
2.3876
 20
4.5085
 30
0.0000
 41
0.7620
 42
0.3810
 43
1.0000
 50
0.0000
  0
INSERT
  8
29
  2
RECT
 10
2.3876
 20
4.5085
 30
0.0000
 41
0.9652
 42
0.5842
 43
1.0000
 50
0.0000
  0
INSERT
  8
1
  2
RECT
 10
2.3876
 20
5.1435
 30
0.0000
 41
0.7620
 42
0.3810
 43
1.0000
 50
0.0000
  0
INSERT
  8
29
  2
RECT
 10
2.3876
 20
5.1435
 30
0.0000
 41
0.9652
 42
0.5842
 43
1.0000
 50
0.0000
  0
INSERT
  8
1
  2
RECT
 10
2.3876
 20
5.7785
 30
0.0000
 41
0.7620
 42
0.3810
 43
1.0000
 50
0.0000
  0
INSERT
  8
29
  2
RECT
 10
2.3876
 20
5.7785
 30
0.0000
 41
0.9652
 42
0.5842
 43
1.0000
 50
0.0000
  0
INSERT
  8
1
  2
RECT
 10
2.3876
 20
6.4135
 30
0.0000
 41
0.7620
 42
0.3810
 43
1.0000
 50
0.0000
  0
INSERT
  8
29
  2
RECT
 10
2.3876
 20
6.4135
 30
0.0000
 41
0.9652
 42
0.5842
 43
1.0000
 50
0.0000
  0
INSERT
  8
1
  2
RECT
 10
2.3876
 20
7.0485
 30
0.0000
 41
0.7620
 42
0.3810
 43
1.0000
 50
0.0000
  0
INSERT
  8
29
  2
RECT
 10
2.3876
 20
7.0485
 30
0.0000
 41
0.9652
 42
0.5842
 43
1.0000
 50
0.0000
  0
INSERT
  8
1
  2
RECT
 10
2.3876
 20
7.6835
 30
0.0000
 41
0.7620
 42
0.3810
 43
1.0000
 50
0.0000
  0
INSERT
  8
29
  2
RECT
 10
2.3876
 20
7.6835
 30
0.0000
 41
0.9652
 42
0.5842
 43
1.0000
 50
0.0000
  0
INSERT
  8
1
  2
RECT
 10
2.3876
 20
8.3185
 30
0.0000
 41
0.7620
 42
0.3810
 43
1.0000
 50
0.0000
  0
INSERT
  8
29
  2
RECT
 10
2.3876
 20
8.3185
 30
0.0000
 41
0.9652
 42
0.5842
 43
1.0000
 50
0.0000
  0
INSERT
  8
1
  2
RECT
 10
2.3876
 20
8.9535
 30
0.0000
 41
0.7620
 42
0.3810
 43
1.0000
 50
0.0000
  0
INSERT
  8
29
  2
RECT
 10
2.3876
 20
8.9535
 30
0.0000
 41
0.9652
 42
0.5842
 43
1.0000
 50
0.0000
  0
INSERT
  8
1
  2
RECT
 10
2.3876
 20
9.5885
 30
0.0000
 41
0.7620
 42
0.3810
 43
1.0000
 50
0.0000
  0
INSERT
  8
29
  2
RECT
 10
2.3876
 20
9.5885
 30
0.0000
 41
0.9652
 42
0.5842
 43
1.0000
 50
0.0000
  0
INSERT
  8
1
  2
RECT
 10
2.3876
 20
10.2235
 30
0.0000
 41
0.7620
 42
0.3810
 43
1.0000
 50
0.0000
  0
INSERT
  8
29
  2
RECT
 10
2.3876
 20
10.2235
 30
0.0000
 41
0.9652
 42
0.5842
 43
1.0000
 50
0.0000
  0
INSERT
  8
1
  2
RECT
 10
2.3876
 20
10.8585
 30
0.0000
 41
0.7620
 42
0.3810
 43
1.0000
 50
0.0000
  0
INSERT
  8
29
  2
RECT
 10
2.3876
 20
10.8585
 30
0.0000
 41
0.9652
 42
0.5842
 43
1.0000
 50
0.0000
  0
INSERT
  8
1
  2
RECT
 10
2.3876
 20
11.4935
 30
0.0000
 41
0.7620
 42
0.3810
 43
1.0000
 50
0.0000
  0
INSERT
  8
29
  2
RECT
 10
2.3876
 20
11.4935
 30
0.0000
 41
0.9652
 42
0.5842
 43
1.0000
 50
0.0000
  0
INSERT
  8
1
  2
RECT
 10
3.3274
 20
0.6985
 30
0.0000
 41
0.7620
 42
0.3810
 43
1.0000
 50
0.0000
  0
INSERT
  8
29
  2
RECT
 10
3.3274
 20
0.6985
 30
0.0000
 41
0.9652
 42
0.5842
 43
1.0000
 50
0.0000
  0
INSERT
  8
1
  2
RECT
 10
3.3274
 20
1.3335
 30
0.0000
 41
0.7620
 42
0.3810
 43
1.0000
 50
0.0000
  0
INSERT
  8
29
  2
RECT
 10
3.3274
 20
1.3335
 30
0.0000
 41
0.9652
 42
0.5842
 43
1.0000
 50
0.0000
  0
INSERT
  8
1
  2
RECT
 10
3.3274
 20
1.9685
 30
0.0000
 41
0.7620
 42
0.3810
 43
1.0000
 50
0.0000
  0
INSERT
  8
29
  2
RECT
 10
3.3274
 20
1.9685
 30
0.0000
 41
0.9652
 42
0.5842
 43
1.0000
 50
0.0000
  0
INSERT
  8
1
  2
RECT
 10
3.3274
 20
2.6035
 30
0.0000
 41
0.7620
 42
0.3810
 43
1.0000
 50
0.0000
  0
INSERT
  8
29
  2
RECT
 10
3.3274
 20
2.6035
 30
0.0000
 41
0.9652
 42
0.5842
 43
1.0000
 50
0.0000
  0
INSERT
  8
1
  2
RECT
 10
3.3274
 20
3.2385
 30
0.0000
 41
0.7620
 42
0.3810
 43
1.0000
 50
0.0000
  0
INSERT
  8
29
  2
RECT
 10
3.3274
 20
3.2385
 30
0.0000
 41
0.9652
 42
0.5842
 43
1.0000
 50
0.0000
  0
INSERT
  8
1
  2
RECT
 10
3.3274
 20
3.8735
 30
0.0000
 41
0.7620
 42
0.3810
 43
1.0000
 50
0.0000
  0
INSERT
  8
29
  2
RECT
 10
3.3274
 20
3.8735
 30
0.0000
 41
0.9652
 42
0.5842
 43
1.0000
 50
0.0000
  0
INSERT
  8
1
  2
RECT
 10
3.3274
 20
4.5085
 30
0.0000
 41
0.7620
 42
0.3810
 43
1.0000
 50
0.0000
  0
INSERT
  8
29
  2
RECT
 10
3.3274
 20
4.5085
 30
0.0000
 41
0.9652
 42
0.5842
 43
1.0000
 50
0.0000
  0
INSERT
  8
1
  2
RECT
 10
3.3274
 20
5.1435
 30
0.0000
 41
0.7620
 42
0.3810
 43
1.0000
 50
0.0000
  0
INSERT
  8
29
  2
RECT
 10
3.3274
 20
5.1435
 30
0.0000
 41
0.9652
 42
0.5842
 43
1.0000
 50
0.0000
  0
INSERT
  8
1
  2
RECT
 10
3.3274
 20
5.7785
 30
0.0000
 41
0.7620
 42
0.3810
 43
1.0000
 50
0.0000
  0
INSERT
  8
29
  2
RECT
 10
3.3274
 20
5.7785
 30
0.0000
 41
0.9652
 42
0.5842
 43
1.0000
 50
0.0000
  0
INSERT
  8
1
  2
RECT
 10
3.3274
 20
6.4135
 30
0.0000
 41
0.7620
 42
0.3810
 43
1.0000
 50
0.0000
  0
INSERT
  8
29
  2
RECT
 10
3.3274
 20
6.4135
 30
0.0000
 41
0.9652
 42
0.5842
 43
1.0000
 50
0.0000
  0
INSERT
  8
1
  2
RECT
 10
3.3274
 20
7.0485
 30
0.0000
 41
0.7620
 42
0.3810
 43
1.0000
 50
0.0000
  0
INSERT
  8
29
  2
RECT
 10
3.3274
 20
7.0485
 30
0.0000
 41
0.9652
 42
0.5842
 43
1.0000
 50
0.0000
  0
INSERT
  8
1
  2
RECT
 10
3.3274
 20
7.6835
 30
0.0000
 41
0.7620
 42
0.3810
 43
1.0000
 50
0.0000
  0
INSERT
  8
29
  2
RECT
 10
3.3274
 20
7.6835
 30
0.0000
 41
0.9652
 42
0.5842
 43
1.0000
 50
0.0000
  0
INSERT
  8
1
  2
RECT
 10
3.3274
 20
8.3185
 30
0.0000
 41
0.7620
 42
0.3810
 43
1.0000
 50
0.0000
  0
INSERT
  8
29
  2
RECT
 10
3.3274
 20
8.3185
 30
0.0000
 41
0.9652
 42
0.5842
 43
1.0000
 50
0.0000
  0
INSERT
  8
1
  2
RECT
 10
3.3274
 20
8.9535
 30
0.0000
 41
0.7620
 42
0.3810
 43
1.0000
 50
0.0000
  0
INSERT
  8
29
  2
RECT
 10
3.3274
 20
8.9535
 30
0.0000
 41
0.9652
 42
0.5842
 43
1.0000
 50
0.0000
  0
INSERT
  8
1
  2
RECT
 10
3.3274
 20
9.5885
 30
0.0000
 41
0.7620
 42
0.3810
 43
1.0000
 50
0.0000
  0
INSERT
  8
29
  2
RECT
 10
3.3274
 20
9.5885
 30
0.0000
 41
0.9652
 42
0.5842
 43
1.0000
 50
0.0000
  0
INSERT
  8
1
  2
RECT
 10
3.3274
 20
10.2235
 30
0.0000
 41
0.7620
 42
0.3810
 43
1.0000
 50
0.0000
  0
INSERT
  8
29
  2
RECT
 10
3.3274
 20
10.2235
 30
0.0000
 41
0.9652
 42
0.5842
 43
1.0000
 50
0.0000
  0
INSERT
  8
1
  2
RECT
 10
3.3274
 20
10.8585
 30
0.0000
 41
0.7620
 42
0.3810
 43
1.0000
 50
0.0000
  0
INSERT
  8
29
  2
RECT
 10
3.3274
 20
10.8585
 30
0.0000
 41
0.9652
 42
0.5842
 43
1.0000
 50
0.0000
  0
INSERT
  8
1
  2
RECT
 10
3.3274
 20
11.4935
 30
0.0000
 41
0.7620
 42
0.3810
 43
1.0000
 50
0.0000
  0
INSERT
  8
29
  2
RECT
 10
3.3274
 20
11.4935
 30
0.0000
 41
0.9652
 42
0.5842
 43
1.0000
 50
0.0000
  0
POINT
  8
23
 10
6.1468
 20
1.2700
 30
0.0000
  0
INSERT
  8
17
  2
ROUNDP
 10
6.1468
 20
1.2700
 30
0.0000
 41
0.7500
 42
0.7500
 43
1.0000
 50
0.0000
  0
INSERT
  8
17
  2
ROUNDP
 10
6.1468
 20
1.2700
 30
0.0000
 41
0.7500
 42
0.7500
 43
1.0000
 50
0.0000
  0
INSERT
  8
17
  2
ROUNDP
 10
6.1468
 20
1.2700
 30
0.0000
 41
0.7500
 42
0.7500
 43
1.0000
 50
0.0000
  0
INSERT
  8
17
  2
ROUNDP
 10
6.1468
 20
1.2700
 30
0.0000
 41
0.7500
 42
0.7500
 43
1.0000
 50
0.0000
  0
INSERT
  8
29
  2
ROUNDP
 10
6.1468
 20
1.2700
 30
0.0000
 41
0.9532
 42
0.9532
 43
1.0000
 50
0.0000
  0
POINT
  8
23
 10
6.1468
 20
10.9220
 30
0.0000
  0
INSERT
  8
17
  2
ROUNDP
 10
6.1468
 20
10.9220
 30
0.0000
 41
0.7500
 42
0.7500
 43
1.0000
 50
0.0000
  0
INSERT
  8
17
  2
ROUNDP
 10
6.1468
 20
10.9220
 30
0.0000
 41
0.7500
 42
0.7500
 43
1.0000
 50
0.0000
  0
INSERT
  8
17
  2
ROUNDP
 10
6.1468
 20
10.9220
 30
0.0000
 41
0.7500
 42
0.7500
 43
1.0000
 50
0.0000
  0
INSERT
  8
17
  2
ROUNDP
 10
6.1468
 20
10.9220
 30
0.0000
 41
0.7500
 42
0.7500
 43
1.0000
 50
0.0000
  0
INSERT
  8
29
  2
ROUNDP
 10
6.1468
 20
10.9220
 30
0.0000
 41
0.9532
 42
0.9532
 43
1.0000
 50
0.0000
  0
POLYLINE
  8
1
 66
1
 10
0.0000
 20
0.0000
 30
0.0000
 40
0.0000
 41
0.0000
 70
1
  0
VERTEX
  8
1
 10
2.3337
 20
2.0224
 30
0.0000
  0
VERTEX
  8
1
 10
2.3210
 20
2.0097
 30
0.0000
 42
1.0000
  0
VERTEX
  8
1
 10
2.4288
 20
1.9019
 30
0.0000
  0
VERTEX
  8
1
 10
2.4415
 20
1.9146
 30
0.0000
 42
1.0000
  0
SEQEND
  8
0
  0
POLYLINE
  8
1
 66
1
 10
0.0000
 20
0.0000
 30
0.0000
 40
0.0000
 41
0.0000
 70
1
  0
VERTEX
  8
1
 10
2.3749
 20
2.0320
 30
0.0000
  0
VERTEX
  8
1
 10
1.5240
 20
2.0320
 30
0.0000
 42
1.0000
  0
VERTEX
  8
1
 10
1.5240
 20
1.8796
 30
0.0000
  0
VERTEX
  8
1
 10
2.3749
 20
1.8796
 30
0.0000
 42
1.0000
  0
SEQEND
  8
0
  0
POLYLINE
  8
16
 66
1
 10
0.0000
 20
0.0000
 30
0.0000
 40
0.0000
 41
0.0000
 70
1
  0
VERTEX
  8
16
 10
1.5240
 20
1.8796
 30
0.0000
  0
VERTEX
  8
16
 10
3.0607
 20
1.8796
 30
0.0000
 42
1.0000
  0
VERTEX
  8
16
 10
3.0607
 20
2.0320
 30
0.0000
  0
VERTEX
  8
16
 10
1.5240
 20
2.0320
 30
0.0000
 42
1.0000
  0
SEQEND
  8
0
  0
POLYLINE
  8
16
 66
1
 10
0.0000
 20
0.0000
 30
0.0000
 40
0.0000
 41
0.0000
 70
1
  0
VERTEX
  8
16
 10
3.2436
 20
2.0625
 30
0.0000
  0
VERTEX
  8
16
 10
3.2436
 20
4.3409
 30
0.0000
 42
1.0000
  0
VERTEX
  8
16
 10
3.0912
 20
4.3409
 30
0.0000
  0
VERTEX
  8
16
 10
3.0912
 20
2.0625
 30
0.0000
 42
1.0000
  0
SEQEND
  8
0
  0
POLYLINE
  8
16
 66
1
 10
0.0000
 20
0.0000
 30
0.0000
 40
0.0000
 41
0.0000
 70
1
  0
VERTEX
  8
16
 10
3.1674
 20
4.2647
 30
0.0000
  0
VERTEX
  8
16
 10
6.0020
 20
4.2647
 30
0.0000
 42
1.0000
  0
VERTEX
  8
16
 10
6.0020
 20
4.4171
 30
0.0000
  0
VERTEX
  8
16
 10
3.1674
 20
4.4171
 30
0.0000
 42
1.0000
  0
SEQEND
  8
0
  0
POLYLINE
  8
16
 66
1
 10
0.0000
 20
0.0000
 30
0.0000
 40
0.0000
 41
0.0000
 70
1
  0
VERTEX
  8
16
 10
5.9482
 20
4.2870
 30
0.0000
  0
VERTEX
  8
16
 10
5.9710
 20
4.2641
 30
0.0000
 42
1.0000
  0
VERTEX
  8
16
 10
6.0788
 20
4.3719
 30
0.0000
  0
VERTEX
  8
16
 10
6.0559
 20
4.3947
 30
0.0000
 42
1.0000
  0
SEQEND
  8
0
  0
POLYLINE
  8
16
 66
1
 10
0.0000
 20
0.0000
 30
0.0000
 40
0.0000
 41
0.0000
 70
1
  0
VERTEX
  8
16
 10
7.1862
 20
4.2641
 30
0.0000
  0
VERTEX
  8
16
 10
7.2090
 20
4.2870
 30
0.0000
 42
1.0000
  0
VERTEX
  8
16
 10
7.1013
 20
4.3947
 30
0.0000
  0
VERTEX
  8
16
 10
7.0784
 20
4.3719
 30
0.0000
 42
1.0000
  0
SEQEND
  8
0
  0
POLYLINE
  8
16
 66
1
 10
0.0000
 20
0.0000
 30
0.0000
 40
0.0000
 41
0.0000
 70
1
  0
VERTEX
  8
16
 10
7.1552
 20
4.2647
 30
0.0000
  0
VERTEX
  8
16
 10
7.4295
 20
4.2647
 30
0.0000
 42
1.0000
  0
VERTEX
  8
16
 10
7.4295
 20
4.4171
 30
0.0000
  0
VERTEX
  8
16
 10
7.1552
 20
4.4171
 30
0.0000
 42
1.0000
  0
SEQEND
  8
0
  0
POLYLINE
  8
16
 66
1
 10
0.0000
 20
0.0000
 30
0.0000
 40
0.0000
 41
0.0000
 70
1
  0
VERTEX
  8
16
 10
6.0249
 20
4.2418
 30
0.0000
  0
VERTEX
  8
16
 10
7.1323
 20
4.2418
 30
0.0000
 42
1.0000
  0
VERTEX
  8
16
 10
7.1323
 20
4.3942
 30
0.0000
  0
VERTEX
  8
16
 10
6.0249
 20
4.3942
 30
0.0000
 42
1.0000
  0
SEQEND
  8
0
  0
POLYLINE
  8
16
 66
1
 10
0.0000
 20
0.0000
 30
0.0000
 40
0.0000
 41
0.0000
 70
1
  0
VERTEX
  8
16
 10
7.3756
 20
4.2870
 30
0.0000
  0
VERTEX
  8
16
 10
7.7338
 20
3.9288
 30
0.0000
 42
1.0000
  0
VERTEX
  8
16
 10
7.8415
 20
4.0366
 30
0.0000
  0
VERTEX
  8
16
 10
7.4834
 20
4.3947
 30
0.0000
 42
1.0000
  0
SEQEND
  8
0
  0
POLYLINE
  8
16
 66
1
 10
0.0000
 20
0.0000
 30
0.0000
 40
0.0000
 41
0.0000
 70
1
  0
VERTEX
  8
16
 10
7.7195
 20
3.9486
 30
0.0000
  0
VERTEX
  8
16
 10
7.7296
 20
3.9283
 30
0.0000
 42
1.0000
  0
VERTEX
  8
16
 10
7.8660
 20
3.9965
 30
0.0000
  0
VERTEX
  8
16
 10
7.8558
 20
4.0168
 30
0.0000
 42
1.0000
  0
SEQEND
  8
0
  0
POLYLINE
  8
16
 66
1
 10
0.0000
 20
0.0000
 30
0.0000
 40
0.0000
 41
0.0000
 70
1
  0
VERTEX
  8
16
 10
3.1146
 20
1.9019
 30
0.0000
  0
VERTEX
  8
16
 10
3.2213
 20
2.0086
 30
0.0000
 42
1.0000
  0
VERTEX
  8
16
 10
3.1135
 20
2.1164
 30
0.0000
  0
VERTEX
  8
16
 10
3.0068
 20
2.0097
 30
0.0000
 42
1.0000
  0
SEQEND
  8
0
  0
POLYLINE
  8
1
 66
1
 10
0.0000
 20
0.0000
 30
0.0000
 40
0.0000
 41
0.0000
 70
1
  0
VERTEX
  8
1
 10
7.8517
 20
3.9085
 30
0.0000
  0
VERTEX
  8
1
 10
8.2103
 20
4.2671
 30
0.0000
 42
1.0000
  0
VERTEX
  8
1
 10
8.1025
 20
4.3749
 30
0.0000
  0
VERTEX
  8
1
 10
7.7439
 20
4.0163
 30
0.0000
 42
1.0000
  0
SEQEND
  8
0
  0
POLYLINE
  8
1
 66
1
 10
0.0000
 20
0.0000
 30
0.0000
 40
0.0000
 41
0.0000
 70
1
  0
VERTEX
  8
1
 10
8.1564
 20
4.2448
 30
0.0000
  0
VERTEX
  8
1
 10
8.1925
 20
4.2448
 30
0.0000
 42
1.0000
  0
VERTEX
  8
1
 10
8.1925
 20
4.3972
 30
0.0000
  0
VERTEX
  8
1
 10
8.1564
 20
4.3972
 30
0.0000
 42
1.0000
  0
SEQEND
  8
0
  0
INSERT
  8
18
  2
ROUNDV
 10
1.5240
 20
1.9558
 30
0.0000
 41
0.3048
 42
0.3048
 43
1.0000
 50
0.0000
  0
INSERT
  8
18
  2
ROUNDV
 10
1.5240
 20
1.9558
 30
0.0000
 41
0.3048
 42
0.3048
 43
1.0000
 50
0.0000
  0
INSERT
  8
18
  2
ROUNDV
 10
7.7978
 20
3.9624
 30
0.0000
 41
0.3048
 42
0.3048
 43
1.0000
 50
0.0000
  0
INSERT
  8
18
  2
ROUNDV
 10
7.7978
 20
3.9624
 30
0.0000
 41
0.3048
 42
0.3048
 43
1.0000
 50
0.0000
  0
POLYLINE
  8
1
 66
1
 10
0.0000
 20
0.0000
 30
0.0000
 40
0.0000
 41
0.0000
 70
1
  0
VERTEX
  8
1
 10
2.3337
 20
2.6574
 30
0.0000
  0
VERTEX
  8
1
 10
2.3210
 20
2.6447
 30
0.0000
 42
1.0000
  0
VERTEX
  8
1
 10
2.4288
 20
2.5369
 30
0.0000
  0
VERTEX
  8
1
 10
2.4415
 20
2.5496
 30
0.0000
 42
1.0000
  0
SEQEND
  8
0
  0
POLYLINE
  8
1
 66
1
 10
0.0000
 20
0.0000
 30
0.0000
 40
0.0000
 41
0.0000
 70
1
  0
VERTEX
  8
1
 10
2.3749
 20
2.6670
 30
0.0000
  0
VERTEX
  8
1
 10
1.5240
 20
2.6670
 30
0.0000
 42
1.0000
  0
VERTEX
  8
1
 10
1.5240
 20
2.5146
 30
0.0000
  0
VERTEX
  8
1
 10
2.3749
 20
2.5146
 30
0.0000
 42
1.0000
  0
SEQEND
  8
0
  0
POLYLINE
  8
16
 66
1
 10
0.0000
 20
0.0000
 30
0.0000
 40
0.0000
 41
0.0000
 70
1
  0
VERTEX
  8
16
 10
1.5329
 20
2.5151
 30
0.0000
  0
VERTEX
  8
16
 10
1.7056
 20
2.5354
 30
0.0000
 42
1.0000
  0
VERTEX
  8
16
 10
1.6878
 20
2.6868
 30
0.0000
  0
VERTEX
  8
16
 10
1.5151
 20
2.6665
 30
0.0000
 42
1.0000
  0
SEQEND
  8
0
  0
POLYLINE
  8
16
 66
1
 10
0.0000
 20
0.0000
 30
0.0000
 40
0.0000
 41
0.0000
 70
1
  0
VERTEX
  8
16
 10
1.6967
 20
2.5349
 30
0.0000
  0
VERTEX
  8
16
 10
2.8194
 20
2.5349
 30
0.0000
 42
1.0000
  0
VERTEX
  8
16
 10
2.8194
 20
2.6873
 30
0.0000
  0
VERTEX
  8
16
 10
1.6967
 20
2.6873
 30
0.0000
 42
1.0000
  0
SEQEND
  8
0
  0
POLYLINE
  8
16
 66
1
 10
0.0000
 20
0.0000
 30
0.0000
 40
0.0000
 41
0.0000
 70
1
  0
VERTEX
  8
16
 10
2.8956
 20
2.6111
 30
0.0000
  0
VERTEX
  8
16
 10
2.8956
 20
5.0292
 30
0.0000
 42
1.0000
  0
VERTEX
  8
16
 10
2.7432
 20
5.0292
 30
0.0000
  0
VERTEX
  8
16
 10
2.7432
 20
2.6111
 30
0.0000
 42
1.0000
  0
SEQEND
  8
0
  0
POLYLINE
  8
16
 66
1
 10
0.0000
 20
0.0000
 30
0.0000
 40
0.0000
 41
0.0000
 70
1
  0
VERTEX
  8
16
 10
2.8194
 20
4.9530
 30
0.0000
  0
VERTEX
  8
16
 10
7.4397
 20
4.9530
 30
0.0000
 42
1.0000
  0
VERTEX
  8
16
 10
7.4397
 20
5.1054
 30
0.0000
  0
VERTEX
  8
16
 10
2.8194
 20
5.1054
 30
0.0000
 42
1.0000
  0
SEQEND
  8
0
  0
POLYLINE
  8
16
 66
1
 10
0.0000
 20
0.0000
 30
0.0000
 40
0.0000
 41
0.0000
 70
1
  0
VERTEX
  8
16
 10
7.3858
 20
4.9753
 30
0.0000
  0
VERTEX
  8
16
 10
7.7160
 20
4.6451
 30
0.0000
 42
1.0000
  0
VERTEX
  8
16
 10
7.8237
 20
4.7529
 30
0.0000
  0
VERTEX
  8
16
 10
7.4935
 20
5.0831
 30
0.0000
 42
1.0000
  0
SEQEND
  8
0
  0
POLYLINE
  8
16
 66
1
 10
0.0000
 20
0.0000
 30
0.0000
 40
0.0000
 41
0.0000
 70
1
  0
VERTEX
  8
16
 10
7.7186
 20
4.6426
 30
0.0000
  0
VERTEX
  8
16
 10
7.7465
 20
4.6172
 30
0.0000
 42
1.0000
  0
VERTEX
  8
16
 10
7.8491
 20
4.7300
 30
0.0000
  0
VERTEX
  8
16
 10
7.8211
 20
4.7554
 30
0.0000
 42
1.0000
  0
SEQEND
  8
0
  0
POLYLINE
  8
1
 66
1
 10
0.0000
 20
0.0000
 30
0.0000
 40
0.0000
 41
0.0000
 70
1
  0
VERTEX
  8
1
 10
7.8517
 20
4.6197
 30
0.0000
  0
VERTEX
  8
1
 10
8.2091
 20
4.9771
 30
0.0000
 42
1.0000
  0
VERTEX
  8
1
 10
8.1013
 20
5.0849
 30
0.0000
  0
VERTEX
  8
1
 10
7.7439
 20
4.7275
 30
0.0000
 42
1.0000
  0
SEQEND
  8
0
  0
POLYLINE
  8
1
 66
1
 10
0.0000
 20
0.0000
 30
0.0000
 40
0.0000
 41
0.0000
 70
1
  0
VERTEX
  8
1
 10
8.1552
 20
4.9548
 30
0.0000
  0
VERTEX
  8
1
 10
8.1925
 20
4.9548
 30
0.0000
 42
1.0000
  0
VERTEX
  8
1
 10
8.1925
 20
5.1072
 30
0.0000
  0
VERTEX
  8
1
 10
8.1552
 20
5.1072
 30
0.0000
 42
1.0000
  0
SEQEND
  8
0
  0
INSERT
  8
18
  2
ROUNDV
 10
1.5240
 20
2.5908
 30
0.0000
 41
0.3048
 42
0.3048
 43
1.0000
 50
0.0000
  0
INSERT
  8
18
  2
ROUNDV
 10
1.5240
 20
2.5908
 30
0.0000
 41
0.3048
 42
0.3048
 43
1.0000
 50
0.0000
  0
INSERT
  8
18
  2
ROUNDV
 10
7.7978
 20
4.6736
 30
0.0000
 41
0.3048
 42
0.3048
 43
1.0000
 50
0.0000
  0
INSERT
  8
18
  2
ROUNDV
 10
7.7978
 20
4.6736
 30
0.0000
 41
0.3048
 42
0.3048
 43
1.0000
 50
0.0000
  0
POLYLINE
  8
1
 66
1
 10
0.0000
 20
0.0000
 30
0.0000
 40
0.0000
 41
0.0000
 70
1
  0
VERTEX
  8
1
 10
2.3337
 20
3.2924
 30
0.0000
  0
VERTEX
  8
1
 10
2.3210
 20
3.2797
 30
0.0000
 42
1.0000
  0
VERTEX
  8
1
 10
2.4288
 20
3.1719
 30
0.0000
  0
VERTEX
  8
1
 10
2.4415
 20
3.1846
 30
0.0000
 42
1.0000
  0
SEQEND
  8
0
  0
POLYLINE
  8
1
 66
1
 10
0.0000
 20
0.0000
 30
0.0000
 40
0.0000
 41
0.0000
 70
1
  0
VERTEX
  8
1
 10
2.3749
 20
3.3020
 30
0.0000
  0
VERTEX
  8
1
 10
1.5240
 20
3.3020
 30
0.0000
 42
1.0000
  0
VERTEX
  8
1
 10
1.5240
 20
3.1496
 30
0.0000
  0
VERTEX
  8
1
 10
2.3749
 20
3.1496
 30
0.0000
 42
1.0000
  0
SEQEND
  8
0
  0
POLYLINE
  8
16
 66
1
 10
0.0000
 20
0.0000
 30
0.0000
 40
0.0000
 41
0.0000
 70
1
  0
VERTEX
  8
16
 10
1.5240
 20
3.1496
 30
0.0000
  0
VERTEX
  8
16
 10
2.3647
 20
3.1496
 30
0.0000
 42
1.0000
  0
VERTEX
  8
16
 10
2.3647
 20
3.3020
 30
0.0000
  0
VERTEX
  8
16
 10
1.5240
 20
3.3020
 30
0.0000
 42
1.0000
  0
SEQEND
  8
0
  0
POLYLINE
  8
16
 66
1
 10
0.0000
 20
0.0000
 30
0.0000
 40
0.0000
 41
0.0000
 70
1
  0
VERTEX
  8
16
 10
2.4613
 20
3.2461
 30
0.0000
  0
VERTEX
  8
16
 10
2.4613
 20
5.7429
 30
0.0000
 42
1.0000
  0
VERTEX
  8
16
 10
2.3089
 20
5.7429
 30
0.0000
  0
VERTEX
  8
16
 10
2.3089
 20
3.2461
 30
0.0000
 42
1.0000
  0
SEQEND
  8
0
  0
POLYLINE
  8
16
 66
1
 10
0.0000
 20
0.0000
 30
0.0000
 40
0.0000
 41
0.0000
 70
1
  0
VERTEX
  8
16
 10
2.3851
 20
5.6667
 30
0.0000
  0
VERTEX
  8
16
 10
6.0224
 20
5.6667
 30
0.0000
 42
1.0000
  0
VERTEX
  8
16
 10
6.0224
 20
5.8191
 30
0.0000
  0
VERTEX
  8
16
 10
2.3851
 20
5.8191
 30
0.0000
 42
1.0000
  0
SEQEND
  8
0
  0
POLYLINE
  8
16
 66
1
 10
0.0000
 20
0.0000
 30
0.0000
 40
0.0000
 41
0.0000
 70
1
  0
VERTEX
  8
16
 10
5.9685
 20
5.6891
 30
0.0000
  0
VERTEX
  8
16
 10
5.9710
 20
5.6865
 30
0.0000
 42
1.0000
  0
VERTEX
  8
16
 10
6.0788
 20
5.7943
 30
0.0000
  0
VERTEX
  8
16
 10
6.0762
 20
5.7968
 30
0.0000
 42
1.0000
  0
SEQEND
  8
0
  0
POLYLINE
  8
16
 66
1
 10
0.0000
 20
0.0000
 30
0.0000
 40
0.0000
 41
0.0000
 70
1
  0
VERTEX
  8
16
 10
7.1862
 20
5.6865
 30
0.0000
  0
VERTEX
  8
16
 10
7.1887
 20
5.6891
 30
0.0000
 42
1.0000
  0
VERTEX
  8
16
 10
7.0810
 20
5.7968
 30
0.0000
  0
VERTEX
  8
16
 10
7.0784
 20
5.7943
 30
0.0000
 42
1.0000
  0
SEQEND
  8
0
  0
POLYLINE
  8
16
 66
1
 10
0.0000
 20
0.0000
 30
0.0000
 40
0.0000
 41
0.0000
 70
1
  0
VERTEX
  8
16
 10
7.1348
 20
5.6667
 30
0.0000
  0
VERTEX
  8
16
 10
7.4473
 20
5.6667
 30
0.0000
 42
1.0000
  0
VERTEX
  8
16
 10
7.4473
 20
5.8191
 30
0.0000
  0
VERTEX
  8
16
 10
7.1348
 20
5.8191
 30
0.0000
 42
1.0000
  0
SEQEND
  8
0
  0
POLYLINE
  8
16
 66
1
 10
0.0000
 20
0.0000
 30
0.0000
 40
0.0000
 41
0.0000
 70
1
  0
VERTEX
  8
16
 10
6.0249
 20
5.6642
 30
0.0000
  0
VERTEX
  8
16
 10
7.1323
 20
5.6642
 30
0.0000
 42
1.0000
  0
VERTEX
  8
16
 10
7.1323
 20
5.8166
 30
0.0000
  0
VERTEX
  8
16
 10
6.0249
 20
5.8166
 30
0.0000
 42
1.0000
  0
SEQEND
  8
0
  0
POLYLINE
  8
16
 66
1
 10
0.0000
 20
0.0000
 30
0.0000
 40
0.0000
 41
0.0000
 70
1
  0
VERTEX
  8
16
 10
7.3934
 20
5.6891
 30
0.0000
  0
VERTEX
  8
16
 10
7.7414
 20
5.3411
 30
0.0000
 42
1.0000
  0
VERTEX
  8
16
 10
7.8491
 20
5.4488
 30
0.0000
  0
VERTEX
  8
16
 10
7.5012
 20
5.7968
 30
0.0000
 42
1.0000
  0
SEQEND
  8
0
  0
POLYLINE
  8
16
 66
1
 10
0.0000
 20
0.0000
 30
0.0000
 40
0.0000
 41
0.0000
 70
1
  0
VERTEX
  8
16
 10
7.7213
 20
5.3765
 30
0.0000
  0
VERTEX
  8
16
 10
7.7239
 20
5.3663
 30
0.0000
 42
1.0000
  0
VERTEX
  8
16
 10
7.8717
 20
5.4033
 30
0.0000
  0
VERTEX
  8
16
 10
7.8692
 20
5.4134
 30
0.0000
 42
1.0000
  0
SEQEND
  8
0
  0
POLYLINE
  8
16
 66
1
 10
0.0000
 20
0.0000
 30
0.0000
 40
0.0000
 41
0.0000
 70
1
  0
VERTEX
  8
16
 10
2.4186
 20
3.1719
 30
0.0000
  0
VERTEX
  8
16
 10
2.4389
 20
3.1922
 30
0.0000
 42
1.0000
  0
VERTEX
  8
16
 10
2.3312
 20
3.3000
 30
0.0000
  0
VERTEX
  8
16
 10
2.3109
 20
3.2797
 30
0.0000
 42
1.0000
  0
SEQEND
  8
0
  0
POLYLINE
  8
1
 66
1
 10
0.0000
 20
0.0000
 30
0.0000
 40
0.0000
 41
0.0000
 70
1
  0
VERTEX
  8
1
 10
7.8517
 20
5.3309
 30
0.0000
  0
VERTEX
  8
1
 10
8.2079
 20
5.6871
 30
0.0000
 42
1.0000
  0
VERTEX
  8
1
 10
8.1001
 20
5.7949
 30
0.0000
  0
VERTEX
  8
1
 10
7.7439
 20
5.4387
 30
0.0000
 42
1.0000
  0
SEQEND
  8
0
  0
POLYLINE
  8
1
 66
1
 10
0.0000
 20
0.0000
 30
0.0000
 40
0.0000
 41
0.0000
 70
1
  0
VERTEX
  8
1
 10
8.1540
 20
5.6648
 30
0.0000
  0
VERTEX
  8
1
 10
8.1925
 20
5.6648
 30
0.0000
 42
1.0000
  0
VERTEX
  8
1
 10
8.1925
 20
5.8172
 30
0.0000
  0
VERTEX
  8
1
 10
8.1540
 20
5.8172
 30
0.0000
 42
1.0000
  0
SEQEND
  8
0
  0
INSERT
  8
18
  2
ROUNDV
 10
1.5240
 20
3.2258
 30
0.0000
 41
0.3048
 42
0.3048
 43
1.0000
 50
0.0000
  0
INSERT
  8
18
  2
ROUNDV
 10
1.5240
 20
3.2258
 30
0.0000
 41
0.3048
 42
0.3048
 43
1.0000
 50
0.0000
  0
INSERT
  8
18
  2
ROUNDV
 10
7.7978
 20
5.3848
 30
0.0000
 41
0.3048
 42
0.3048
 43
1.0000
 50
0.0000
  0
INSERT
  8
18
  2
ROUNDV
 10
7.7978
 20
5.3848
 30
0.0000
 41
0.3048
 42
0.3048
 43
1.0000
 50
0.0000
  0
POLYLINE
  8
1
 66
1
 10
0.0000
 20
0.0000
 30
0.0000
 40
0.0000
 41
0.0000
 70
1
  0
VERTEX
  8
1
 10
3.3274
 20
0.6223
 30
0.0000
  0
VERTEX
  8
1
 10
5.4610
 20
0.6223
 30
0.0000
 42
1.0000
  0
VERTEX
  8
1
 10
5.4610
 20
0.7747
 30
0.0000
  0
VERTEX
  8
1
 10
3.3274
 20
0.7747
 30
0.0000
 42
1.0000
  0
SEQEND
  8
0
  0
POLYLINE
  8
1
 66
1
 10
0.0000
 20
0.0000
 30
0.0000
 40
0.0000
 41
0.0000
 70
1
  0
VERTEX
  8
1
 10
5.5149
 20
0.6446
 30
0.0000
  0
VERTEX
  8
1
 10
6.1016
 20
1.2314
 30
0.0000
 42
1.0000
  0
VERTEX
  8
1
 10
5.9939
 20
1.3391
 30
0.0000
  0
VERTEX
  8
1
 10
5.4071
 20
0.7524
 30
0.0000
 42
1.0000
  0
SEQEND
  8
0
  0
POLYLINE
  8
1
 66
1
 10
0.0000
 20
0.0000
 30
0.0000
 40
0.0000
 41
0.0000
 70
1
  0
VERTEX
  8
1
 10
6.0362
 20
1.2099
 30
0.0000
  0
VERTEX
  8
1
 10
6.1352
 20
1.1947
 30
0.0000
 42
1.0000
  0
VERTEX
  8
1
 10
6.1584
 20
1.3453
 30
0.0000
  0
VERTEX
  8
1
 10
6.0593
 20
1.3606
 30
0.0000
 42
1.0000
  0
SEQEND
  8
0
  0
POLYLINE
  8
1
 66
1
 10
0.0000
 20
0.0000
 30
0.0000
 40
0.0000
 41
0.0000
 70
1
  0
VERTEX
  8
1
 10
2.3608
 20
11.5648
 30
0.0000
  0
VERTEX
  8
1
 10
2.2592
 20
11.5267
 30
0.0000
 42
1.0000
  0
VERTEX
  8
1
 10
2.3128
 20
11.3841
 30
0.0000
  0
VERTEX
  8
1
 10
2.4144
 20
11.4222
 30
0.0000
 42
1.0000
  0
SEQEND
  8
0
  0
POLYLINE
  8
1
 66
1
 10
0.0000
 20
0.0000
 30
0.0000
 40
0.0000
 41
0.0000
 70
1
  0
VERTEX
  8
1
 10
2.2885
 20
11.5316
 30
0.0000
  0
VERTEX
  8
1
 10
1.5265
 20
11.5570
 30
0.0000
 42
1.0000
  0
VERTEX
  8
1
 10
1.5215
 20
11.4046
 30
0.0000
  0
VERTEX
  8
1
 10
2.2835
 20
11.3792
 30
0.0000
 42
1.0000
  0
SEQEND
  8
0
  0
POLYLINE
  8
16
 66
1
 10
0.0000
 20
0.0000
 30
0.0000
 40
0.0000
 41
0.0000
 70
1
  0
VERTEX
  8
16
 10
1.5235
 20
11.4046
 30
0.0000
  0
VERTEX
  8
16
 10
5.6078
 20
11.3792
 30
0.0000
 42
1.0000
  0
VERTEX
  8
16
 10
5.6088
 20
11.5316
 30
0.0000
  0
VERTEX
  8
16
 10
1.5245
 20
11.5570
 30
0.0000
 42
1.0000
  0
SEQEND
  8
0
  0
POLYLINE
  8
16
 66
1
 10
0.0000
 20
0.0000
 30
0.0000
 40
0.0000
 41
0.0000
 70
1
  0
VERTEX
  8
16
 10
5.5547
 20
11.4013
 30
0.0000
  0
VERTEX
  8
16
 10
6.0932
 20
10.8679
 30
0.0000
 42
1.0000
  0
VERTEX
  8
16
 10
6.2004
 20
10.9761
 30
0.0000
  0
VERTEX
  8
16
 10
5.6619
 20
11.5095
 30
0.0000
 42
1.0000
  0
SEQEND
  8
0
  0
POLYLINE
  8
16
 66
1
 10
0.0000
 20
0.0000
 30
0.0000
 40
0.0000
 41
0.0000
 70
1
  0
VERTEX
  8
16
 10
6.0929
 20
10.8682
 30
0.0000
  0
VERTEX
  8
16
 10
8.1934
 20
8.7625
 30
0.0000
 42
1.0000
  0
VERTEX
  8
16
 10
8.3013
 20
8.8702
 30
0.0000
  0
VERTEX
  8
16
 10
6.2007
 20
10.9758
 30
0.0000
 42
1.0000
  0
SEQEND
  8
0
  0
POLYLINE
  8
16
 66
1
 10
0.0000
 20
0.0000
 30
0.0000
 40
0.0000
 41
0.0000
 70
1
  0
VERTEX
  8
16
 10
8.1712
 20
8.8163
 30
0.0000
  0
VERTEX
  8
16
 10
8.1712
 20
3.1039
 30
0.0000
 42
1.0000
  0
VERTEX
  8
16
 10
8.3236
 20
3.1039
 30
0.0000
  0
VERTEX
  8
16
 10
8.3236
 20
8.8163
 30
0.0000
 42
1.0000
  0
SEQEND
  8
0
  0
POLYLINE
  8
16
 66
1
 10
0.0000
 20
0.0000
 30
0.0000
 40
0.0000
 41
0.0000
 70
1
  0
VERTEX
  8
16
 10
8.1935
 20
3.1578
 30
0.0000
  0
VERTEX
  8
16
 10
6.7000
 20
1.6642
 30
0.0000
 42
1.0000
  0
VERTEX
  8
16
 10
6.8077
 20
1.5565
 30
0.0000
  0
VERTEX
  8
16
 10
8.3013
 20
3.0500
 30
0.0000
 42
1.0000
  0
SEQEND
  8
0
  0
POLYLINE
  8
16
 66
1
 10
0.0000
 20
0.0000
 30
0.0000
 40
0.0000
 41
0.0000
 70
1
  0
VERTEX
  8
16
 10
6.7166
 20
1.6768
 30
0.0000
  0
VERTEX
  8
16
 10
6.1095
 20
1.3365
 30
0.0000
 42
1.0000
  0
VERTEX
  8
16
 10
6.1841
 20
1.2035
 30
0.0000
  0
VERTEX
  8
16
 10
6.7911
 20
1.5439
 30
0.0000
 42
1.0000
  0
SEQEND
  8
0
  0
INSERT
  8
18
  2
ROUNDV
 10
1.5240
 20
11.4808
 30
0.0000
 41
0.3048
 42
0.3048
 43
1.0000
 50
0.0000
  0
INSERT
  8
18
  2
ROUNDV
 10
1.5240
 20
11.4808
 30
0.0000
 41
0.3048
 42
0.3048
 43
1.0000
 50
0.0000
  0
POLYLINE
  8
1
 66
1
 10
0.0000
 20
0.0000
 30
0.0000
 40
0.0000
 41
0.0000
 70
1
  0
VERTEX
  8
1
 10
2.3876
 20
0.7747
 30
0.0000
  0
VERTEX
  8
1
 10
1.6815
 20
0.7747
 30
0.0000
 42
1.0000
  0
VERTEX
  8
1
 10
1.6815
 20
0.6223
 30
0.0000
  0
VERTEX
  8
1
 10
2.3876
 20
0.6223
 30
0.0000
 42
1.0000
  0
SEQEND
  8
0
  0
POLYLINE
  8
1
 66
1
 10
0.0000
 20
0.0000
 30
0.0000
 40
0.0000
 41
0.0000
 70
1
  0
VERTEX
  8
1
 10
1.6754
 20
0.7745
 30
0.0000
  0
VERTEX
  8
1
 10
1.5179
 20
0.7618
 30
0.0000
 42
1.0000
  0
VERTEX
  8
1
 10
1.5301
 20
0.6098
 30
0.0000
  0
VERTEX
  8
1
 10
1.6876
 20
0.6225
 30
0.0000
 42
1.0000
  0
SEQEND
  8
0
  0
POLYLINE
  8
16
 66
1
 10
0.0000
 20
0.0000
 30
0.0000
 40
0.0000
 41
0.0000
 70
1
  0
VERTEX
  8
16
 10
1.5240
 20
0.6096
 30
0.0000
  0
VERTEX
  8
16
 10
4.7473
 20
0.6096
 30
0.0000
 42
1.0000
  0
VERTEX
  8
16
 10
4.7473
 20
0.7620
 30
0.0000
  0
VERTEX
  8
16
 10
1.5240
 20
0.7620
 30
0.0000
 42
1.0000
  0
SEQEND
  8
0
  0
POLYLINE
  8
16
 66
1
 10
0.0000
 20
0.0000
 30
0.0000
 40
0.0000
 41
0.0000
 70
1
  0
VERTEX
  8
16
 10
5.0749
 20
0.9373
 30
0.0000
  0
VERTEX
  8
16
 10
5.0749
 20
3.0861
 30
0.0000
 42
1.0000
  0
VERTEX
  8
16
 10
4.9225
 20
3.0861
 30
0.0000
  0
VERTEX
  8
16
 10
4.9225
 20
0.9373
 30
0.0000
 42
1.0000
  0
SEQEND
  8
0
  0
POLYLINE
  8
1
 66
1
 10
0.0000
 20
0.0000
 30
0.0000
 40
0.0000
 41
0.0000
 70
1
  0
VERTEX
  8
1
 10
5.0526
 20
3.1400
 30
0.0000
  0
VERTEX
  8
1
 10
5.0264
 20
3.1662
 30
0.0000
 42
1.0000
  0
VERTEX
  8
1
 10
4.9186
 20
3.0584
 30
0.0000
  0
VERTEX
  8
1
 10
4.9448
 20
3.0322
 30
0.0000
 42
1.0000
  0
SEQEND
  8
0
  0
POLYLINE
  8
1
 66
1
 10
0.0000
 20
0.0000
 30
0.0000
 40
0.0000
 41
0.0000
 70
1
  0
VERTEX
  8
1
 10
5.0487
 20
3.1123
 30
0.0000
  0
VERTEX
  8
1
 10
5.0487
 20
3.6110
 30
0.0000
 42
1.0000
  0
VERTEX
  8
1
 10
4.8963
 20
3.6110
 30
0.0000
  0
VERTEX
  8
1
 10
4.8963
 20
3.1123
 30
0.0000
 42
1.0000
  0
SEQEND
  8
0
  0
POLYLINE
  8
16
 66
1
 10
0.0000
 20
0.0000
 30
0.0000
 40
0.0000
 41
0.0000
 70
1
  0
VERTEX
  8
16
 10
4.8011
 20
0.6319
 30
0.0000
  0
VERTEX
  8
16
 10
5.0526
 20
0.8834
 30
0.0000
 42
1.0000
  0
VERTEX
  8
16
 10
4.9448
 20
0.9911
 30
0.0000
  0
VERTEX
  8
16
 10
4.6934
 20
0.7397
 30
0.0000
 42
1.0000
  0
SEQEND
  8
0
  0
INSERT
  8
18
  2
ROUNDV
 10
1.5240
 20
0.6858
 30
0.0000
 41
0.3048
 42
0.3048
 43
1.0000
 50
0.0000
  0
INSERT
  8
18
  2
ROUNDV
 10
1.5240
 20
0.6858
 30
0.0000
 41
0.3048
 42
0.3048
 43
1.0000
 50
0.0000
  0
INSERT
  8
18
  2
ROUNDV
 10
4.9987
 20
3.0861
 30
0.0000
 41
0.3048
 42
0.3048
 43
1.0000
 50
0.0000
  0
INSERT
  8
18
  2
ROUNDV
 10
4.9987
 20
3.0861
 30
0.0000
 41
0.3048
 42
0.3048
 43
1.0000
 50
0.0000
  0
POLYLINE
  8
1
 66
1
 10
0.0000
 20
0.0000
 30
0.0000
 40
0.0000
 41
0.0000
 70
1
  0
VERTEX
  8
1
 10
5.4364
 20
4.0283
 30
0.0000
  0
VERTEX
  8
1
 10
3.4060
 20
4.0283
 30
0.0000
 42
1.0000
  0
VERTEX
  8
1
 10
3.4060
 20
3.8759
 30
0.0000
  0
VERTEX
  8
1
 10
5.4364
 20
3.8759
 30
0.0000
 42
1.0000
  0
SEQEND
  8
0
  0
POLYLINE
  8
1
 66
1
 10
0.0000
 20
0.0000
 30
0.0000
 40
0.0000
 41
0.0000
 70
1
  0
VERTEX
  8
1
 10
3.3813
 20
3.8196
 30
0.0000
  0
VERTEX
  8
1
 10
3.4599
 20
3.8982
 30
0.0000
 42
1.0000
  0
VERTEX
  8
1
 10
3.3521
 20
4.0060
 30
0.0000
  0
VERTEX
  8
1
 10
3.2735
 20
3.9274
 30
0.0000
 42
1.0000
  0
SEQEND
  8
0
  0
POLYLINE
  8
1
 66
1
 10
0.0000
 20
0.0000
 30
0.0000
 40
0.0000
 41
0.0000
 70
1
  0
VERTEX
  8
1
 10
5.3825
 20
3.8982
 30
0.0000
  0
VERTEX
  8
1
 10
5.7236
 20
3.5571
 30
0.0000
 42
1.0000
  0
VERTEX
  8
1
 10
5.8314
 20
3.6649
 30
0.0000
  0
VERTEX
  8
1
 10
5.4903
 20
4.0060
 30
0.0000
 42
1.0000
  0
SEQEND
  8
0
  0
POLYLINE
  8
1
 66
1
 10
0.0000
 20
0.0000
 30
0.0000
 40
0.0000
 41
0.0000
 70
1
  0
VERTEX
  8
1
 10
3.3274
 20
8.2423
 30
0.0000
  0
VERTEX
  8
1
 10
4.6242
 20
8.2423
 30
0.0000
 42
1.0000
  0
VERTEX
  8
1
 10
4.6242
 20
8.3947
 30
0.0000
  0
VERTEX
  8
1
 10
3.3274
 20
8.3947
 30
0.0000
 42
1.0000
  0
SEQEND
  8
0
  0
POLYLINE
  8
1
 66
1
 10
0.0000
 20
0.0000
 30
0.0000
 40
0.0000
 41
0.0000
 70
1
  0
VERTEX
  8
1
 10
4.5703
 20
8.2646
 30
0.0000
  0
VERTEX
  8
1
 10
4.7130
 20
8.1219
 30
0.0000
 42
1.0000
  0
VERTEX
  8
1
 10
4.8208
 20
8.2297
 30
0.0000
  0
VERTEX
  8
1
 10
4.6781
 20
8.3724
 30
0.0000
 42
1.0000
  0
SEQEND
  8
0
  0
POLYLINE
  8
1
 66
1
 10
0.0000
 20
0.0000
 30
0.0000
 40
0.0000
 41
0.0000
 70
1
  0
VERTEX
  8
1
 10
4.7669
 20
8.0996
 30
0.0000
  0
VERTEX
  8
1
 10
5.4610
 20
8.0996
 30
0.0000
 42
1.0000
  0
VERTEX
  8
1
 10
5.4610
 20
8.2520
 30
0.0000
  0
VERTEX
  8
1
 10
4.7669
 20
8.2520
 30
0.0000
 42
1.0000
  0
SEQEND
  8
0
  0
POLYLINE
  8
1
 66
1
 10
0.0000
 20
0.0000
 30
0.0000
 40
0.0000
 41
0.0000
 70
1
  0
VERTEX
  8
1
 10
5.5149
 20
8.1219
 30
0.0000
  0
VERTEX
  8
1
 10
5.8314
 20
8.4384
 30
0.0000
 42
1.0000
  0
VERTEX
  8
1
 10
5.7236
 20
8.5462
 30
0.0000
  0
VERTEX
  8
1
 10
5.4071
 20
8.2297
 30
0.0000
 42
1.0000
  0
SEQEND
  8
0
  0
POLYLINE
  8
1
 66
1
 10
0.0000
 20
0.0000
 30
0.0000
 40
0.0000
 41
0.0000
 70
1
  0
VERTEX
  8
1
 10
5.8537
 20
8.4923
 30
0.0000
  0
VERTEX
  8
1
 10
5.8537
 20
8.5810
 30
0.0000
 42
1.0000
  0
VERTEX
  8
1
 10
5.7013
 20
8.5810
 30
0.0000
  0
VERTEX
  8
1
 10
5.7013
 20
8.4923
 30
0.0000
 42
1.0000
  0
SEQEND
  8
0
  0
POLYLINE
  8
1
 66
1
 10
0.0000
 20
0.0000
 30
0.0000
 40
0.0000
 41
0.0000
 70
1
  0
VERTEX
  8
1
 10
3.3274
 20
4.4323
 30
0.0000
  0
VERTEX
  8
1
 10
5.5900
 20
4.4323
 30
0.0000
 42
1.0000
  0
VERTEX
  8
1
 10
5.5900
 20
4.5847
 30
0.0000
  0
VERTEX
  8
1
 10
3.3274
 20
4.5847
 30
0.0000
 42
1.0000
  0
SEQEND
  8
0
  0
POLYLINE
  8
1
 66
1
 10
0.0000
 20
0.0000
 30
0.0000
 40
0.0000
 41
0.0000
 70
1
  0
VERTEX
  8
1
 10
5.5361
 20
4.4546
 30
0.0000
  0
VERTEX
  8
1
 10
5.7236
 20
4.2671
 30
0.0000
 42
1.0000
  0
VERTEX
  8
1
 10
5.8314
 20
4.3749
 30
0.0000
  0
VERTEX
  8
1
 10
5.6439
 20
4.5624
 30
0.0000
 42
1.0000
  0
SEQEND
  8
0
  0
POLYLINE
  8
1
 66
1
 10
0.0000
 20
0.0000
 30
0.0000
 40
0.0000
 41
0.0000
 70
1
  0
VERTEX
  8
1
 10
5.8314
 20
5.0849
 30
0.0000
  0
VERTEX
  8
1
 10
5.7189
 20
5.1974
 30
0.0000
 42
1.0000
  0
VERTEX
  8
1
 10
5.6111
 20
5.0896
 30
0.0000
  0
VERTEX
  8
1
 10
5.7236
 20
4.9771
 30
0.0000
 42
1.0000
  0
SEQEND
  8
0
  0
POLYLINE
  8
1
 66
1
 10
0.0000
 20
0.0000
 30
0.0000
 40
0.0000
 41
0.0000
 70
1
  0
VERTEX
  8
1
 10
5.6650
 20
5.2197
 30
0.0000
  0
VERTEX
  8
1
 10
3.3274
 20
5.2197
 30
0.0000
 42
1.0000
  0
VERTEX
  8
1
 10
3.3274
 20
5.0673
 30
0.0000
  0
VERTEX
  8
1
 10
5.6650
 20
5.0673
 30
0.0000
 42
1.0000
  0
SEQEND
  8
0
  0
POLYLINE
  8
1
 66
1
 10
0.0000
 20
0.0000
 30
0.0000
 40
0.0000
 41
0.0000
 70
1
  0
VERTEX
  8
1
 10
3.3274
 20
5.7023
 30
0.0000
  0
VERTEX
  8
1
 10
5.7400
 20
5.7023
 30
0.0000
 42
1.0000
  0
VERTEX
  8
1
 10
5.7400
 20
5.8547
 30
0.0000
  0
VERTEX
  8
1
 10
3.3274
 20
5.8547
 30
0.0000
 42
1.0000
  0
SEQEND
  8
0
  0
POLYLINE
  8
1
 66
1
 10
0.0000
 20
0.0000
 30
0.0000
 40
0.0000
 41
0.0000
 70
1
  0
VERTEX
  8
1
 10
5.6861
 20
5.7246
 30
0.0000
  0
VERTEX
  8
1
 10
5.7236
 20
5.6871
 30
0.0000
 42
1.0000
  0
VERTEX
  8
1
 10
5.8314
 20
5.7949
 30
0.0000
  0
VERTEX
  8
1
 10
5.7939
 20
5.8324
 30
0.0000
 42
1.0000
  0
SEQEND
  8
0
  0
POLYLINE
  8
1
 66
1
 10
0.0000
 20
0.0000
 30
0.0000
 40
0.0000
 41
0.0000
 70
1
  0
VERTEX
  8
1
 10
3.3274
 20
6.3373
 30
0.0000
  0
VERTEX
  8
1
 10
5.7400
 20
6.3373
 30
0.0000
 42
1.0000
  0
VERTEX
  8
1
 10
5.7400
 20
6.4897
 30
0.0000
  0
VERTEX
  8
1
 10
3.3274
 20
6.4897
 30
0.0000
 42
1.0000
  0
SEQEND
  8
0
  0
POLYLINE
  8
1
 66
1
 10
0.0000
 20
0.0000
 30
0.0000
 40
0.0000
 41
0.0000
 70
1
  0
VERTEX
  8
1
 10
5.7939
 20
6.3596
 30
0.0000
  0
VERTEX
  8
1
 10
5.8314
 20
6.3971
 30
0.0000
 42
1.0000
  0
VERTEX
  8
1
 10
5.7236
 20
6.5049
 30
0.0000
  0
VERTEX
  8
1
 10
5.6861
 20
6.4674
 30
0.0000
 42
1.0000
  0
SEQEND
  8
0
  0
POLYLINE
  8
1
 66
1
 10
0.0000
 20
0.0000
 30
0.0000
 40
0.0000
 41
0.0000
 70
1
  0
VERTEX
  8
1
 10
5.7236
 20
7.2149
 30
0.0000
  0
VERTEX
  8
1
 10
5.6111
 20
7.1024
 30
0.0000
 42
1.0000
  0
VERTEX
  8
1
 10
5.7189
 20
6.9946
 30
0.0000
  0
VERTEX
  8
1
 10
5.8314
 20
7.1071
 30
0.0000
 42
1.0000
  0
SEQEND
  8
0
  0
POLYLINE
  8
1
 66
1
 10
0.0000
 20
0.0000
 30
0.0000
 40
0.0000
 41
0.0000
 70
1
  0
VERTEX
  8
1
 10
5.6650
 20
7.1247
 30
0.0000
  0
VERTEX
  8
1
 10
3.3274
 20
7.1247
 30
0.0000
 42
1.0000
  0
VERTEX
  8
1
 10
3.3274
 20
6.9723
 30
0.0000
  0
VERTEX
  8
1
 10
5.6650
 20
6.9723
 30
0.0000
 42
1.0000
  0
SEQEND
  8
0
  0
POLYLINE
  8
1
 66
1
 10
0.0000
 20
0.0000
 30
0.0000
 40
0.0000
 41
0.0000
 70
1
  0
VERTEX
  8
1
 10
5.7236
 20
7.9249
 30
0.0000
  0
VERTEX
  8
1
 10
5.5966
 20
7.7979
 30
0.0000
 42
1.0000
  0
VERTEX
  8
1
 10
5.7044
 20
7.6901
 30
0.0000
  0
VERTEX
  8
1
 10
5.8314
 20
7.8171
 30
0.0000
 42
1.0000
  0
SEQEND
  8
0
  0
POLYLINE
  8
1
 66
1
 10
0.0000
 20
0.0000
 30
0.0000
 40
0.0000
 41
0.0000
 70
1
  0
VERTEX
  8
1
 10
5.6505
 20
7.8202
 30
0.0000
  0
VERTEX
  8
1
 10
4.3210
 20
7.8202
 30
0.0000
 42
1.0000
  0
VERTEX
  8
1
 10
4.3210
 20
7.6678
 30
0.0000
  0
VERTEX
  8
1
 10
5.6505
 20
7.6678
 30
0.0000
 42
1.0000
  0
SEQEND
  8
0
  0
POLYLINE
  8
1
 66
1
 10
0.0000
 20
0.0000
 30
0.0000
 40
0.0000
 41
0.0000
 70
1
  0
VERTEX
  8
1
 10
4.3749
 20
7.7979
 30
0.0000
  0
VERTEX
  8
1
 10
4.3719
 20
7.8009
 30
0.0000
 42
1.0000
  0
VERTEX
  8
1
 10
4.2641
 20
7.6931
 30
0.0000
  0
VERTEX
  8
1
 10
4.2671
 20
7.6901
 30
0.0000
 42
1.0000
  0
SEQEND
  8
0
  0
POLYLINE
  8
1
 66
1
 10
0.0000
 20
0.0000
 30
0.0000
 40
0.0000
 41
0.0000
 70
1
  0
VERTEX
  8
1
 10
4.3180
 20
7.8232
 30
0.0000
  0
VERTEX
  8
1
 10
3.9370
 20
7.8232
 30
0.0000
 42
1.0000
  0
VERTEX
  8
1
 10
3.9370
 20
7.6708
 30
0.0000
  0
VERTEX
  8
1
 10
4.3180
 20
7.6708
 30
0.0000
 42
1.0000
  0
SEQEND
  8
0
  0
POLYLINE
  8
1
 66
1
 10
0.0000
 20
0.0000
 30
0.0000
 40
0.0000
 41
0.0000
 70
1
  0
VERTEX
  8
1
 10
3.8735
 20
7.7597
 30
0.0000
  0
VERTEX
  8
1
 10
3.3274
 20
7.7597
 30
0.0000
 42
1.0000
  0
VERTEX
  8
1
 10
3.3274
 20
7.6073
 30
0.0000
  0
VERTEX
  8
1
 10
3.8735
 20
7.6073
 30
0.0000
 42
1.0000
  0
SEQEND
  8
0
  0
POLYLINE
  8
1
 66
1
 10
0.0000
 20
0.0000
 30
0.0000
 40
0.0000
 41
0.0000
 70
1
  0
VERTEX
  8
1
 10
3.8831
 20
7.8009
 30
0.0000
  0
VERTEX
  8
1
 10
3.8196
 20
7.7374
 30
0.0000
 42
1.0000
  0
VERTEX
  8
1
 10
3.9274
 20
7.6296
 30
0.0000
  0
VERTEX
  8
1
 10
3.9909
 20
7.6931
 30
0.0000
 42
1.0000
  0
SEQEND
  8
0
  0
POLYLINE
  8
1
 66
1
 10
0.0000
 20
0.0000
 30
0.0000
 40
0.0000
 41
0.0000
 70
1
  0
VERTEX
  8
1
 10
3.3274
 20
1.2573
 30
0.0000
  0
VERTEX
  8
1
 10
4.0005
 20
1.2573
 30
0.0000
 42
1.0000
  0
VERTEX
  8
1
 10
4.0005
 20
1.4097
 30
0.0000
  0
VERTEX
  8
1
 10
3.3274
 20
1.4097
 30
0.0000
 42
1.0000
  0
SEQEND
  8
0
  0
POLYLINE
  8
1
 66
1
 10
0.0000
 20
0.0000
 30
0.0000
 40
0.0000
 41
0.0000
 70
1
  0
VERTEX
  8
1
 10
3.9954
 20
1.2575
 30
0.0000
  0
VERTEX
  8
1
 10
4.1859
 20
1.2448
 30
0.0000
 42
1.0000
  0
VERTEX
  8
1
 10
4.1961
 20
1.3968
 30
0.0000
  0
VERTEX
  8
1
 10
4.0056
 20
1.4095
 30
0.0000
 42
1.0000
  0
SEQEND
  8
0
  0
POLYLINE
  8
2
 66
1
 10
0.0000
 20
0.0000
 30
0.0000
 40
0.0000
 41
0.0000
 70
1
  0
VERTEX
  8
2
 10
6.0960
 20
3.2512
 30
0.0000
  0
VERTEX
  8
2
 10
6.0960
 20
3.1115
 30
0.0000
 42
1.0000
  0
VERTEX
  8
2
 10
6.2484
 20
3.1115
 30
0.0000
  0
VERTEX
  8
2
 10
6.2484
 20
3.2512
 30
0.0000
 42
1.0000
  0
SEQEND
  8
0
  0
POLYLINE
  8
2
 66
1
 10
0.0000
 20
0.0000
 30
0.0000
 40
0.0000
 41
0.0000
 70
1
  0
VERTEX
  8
2
 10
6.1183
 20
3.1654
 30
0.0000
  0
VERTEX
  8
2
 10
4.3276
 20
1.3747
 30
0.0000
 42
1.0000
  0
VERTEX
  8
2
 10
4.4354
 20
1.2669
 30
0.0000
  0
VERTEX
  8
2
 10
6.2261
 20
3.0576
 30
0.0000
 42
1.0000
  0
SEQEND
  8
0
  0
POLYLINE
  8
2
 66
1
 10
0.0000
 20
0.0000
 30
0.0000
 40
0.0000
 41
0.0000
 70
1
  0
VERTEX
  8
2
 10
4.1910
 20
1.2446
 30
0.0000
  0
VERTEX
  8
2
 10
4.3815
 20
1.2446
 30
0.0000
 42
1.0000
  0
VERTEX
  8
2
 10
4.3815
 20
1.3970
 30
0.0000
  0
VERTEX
  8
2
 10
4.1910
 20
1.3970
 30
0.0000
 42
1.0000
  0
SEQEND
  8
0
  0
POLYLINE
  8
1
 66
1
 10
0.0000
 20
0.0000
 30
0.0000
 40
0.0000
 41
0.0000
 70
1
  0
VERTEX
  8
1
 10
6.2161
 20
3.1889
 30
0.0000
  0
VERTEX
  8
1
 10
6.6264
 20
3.4786
 30
0.0000
 42
1.0000
  0
VERTEX
  8
1
 10
6.5386
 20
3.6031
 30
0.0000
  0
VERTEX
  8
1
 10
6.1283
 20
3.3135
 30
0.0000
 42
1.0000
  0
SEQEND
  8
0
  0
POLYLINE
  8
1
 66
1
 10
0.0000
 20
0.0000
 30
0.0000
 40
0.0000
 41
0.0000
 70
1
  0
VERTEX
  8
1
 10
6.6587
 20
3.5409
 30
0.0000
  0
VERTEX
  8
1
 10
6.6587
 20
3.6110
 30
0.0000
 42
1.0000
  0
VERTEX
  8
1
 10
6.5063
 20
3.6110
 30
0.0000
  0
VERTEX
  8
1
 10
6.5063
 20
3.5409
 30
0.0000
 42
1.0000
  0
SEQEND
  8
0
  0
INSERT
  8
18
  2
ROUNDV
 10
4.1910
 20
1.3208
 30
0.0000
 41
0.3048
 42
0.3048
 43
1.0000
 50
0.0000
  0
INSERT
  8
18
  2
ROUNDV
 10
4.1910
 20
1.3208
 30
0.0000
 41
0.3048
 42
0.3048
 43
1.0000
 50
0.0000
  0
INSERT
  8
18
  2
ROUNDV
 10
6.1722
 20
3.2512
 30
0.0000
 41
0.3048
 42
0.3048
 43
1.0000
 50
0.0000
  0
INSERT
  8
18
  2
ROUNDV
 10
6.1722
 20
3.2512
 30
0.0000
 41
0.3048
 42
0.3048
 43
1.0000
 50
0.0000
  0
POLYLINE
  8
1
 66
1
 10
0.0000
 20
0.0000
 30
0.0000
 40
0.0000
 41
0.0000
 70
1
  0
VERTEX
  8
1
 10
3.3274
 20
1.8923
 30
0.0000
  0
VERTEX
  8
1
 10
4.0005
 20
1.8923
 30
0.0000
 42
1.0000
  0
VERTEX
  8
1
 10
4.0005
 20
2.0447
 30
0.0000
  0
VERTEX
  8
1
 10
3.3274
 20
2.0447
 30
0.0000
 42
1.0000
  0
SEQEND
  8
0
  0
POLYLINE
  8
1
 66
1
 10
0.0000
 20
0.0000
 30
0.0000
 40
0.0000
 41
0.0000
 70
1
  0
VERTEX
  8
1
 10
3.9954
 20
1.8925
 30
0.0000
  0
VERTEX
  8
1
 10
4.1859
 20
1.8798
 30
0.0000
 42
1.0000
  0
VERTEX
  8
1
 10
4.1961
 20
2.0318
 30
0.0000
  0
VERTEX
  8
1
 10
4.0056
 20
2.0445
 30
0.0000
 42
1.0000
  0
SEQEND
  8
0
  0
POLYLINE
  8
2
 66
1
 10
0.0000
 20
0.0000
 30
0.0000
 40
0.0000
 41
0.0000
 70
1
  0
VERTEX
  8
2
 10
5.5341
 20
3.1527
 30
0.0000
  0
VERTEX
  8
2
 10
4.3911
 20
2.0097
 30
0.0000
 42
1.0000
  0
VERTEX
  8
2
 10
4.4989
 20
1.9019
 30
0.0000
  0
VERTEX
  8
2
 10
5.6419
 20
3.0449
 30
0.0000
 42
1.0000
  0
SEQEND
  8
0
  0
POLYLINE
  8
2
 66
1
 10
0.0000
 20
0.0000
 30
0.0000
 40
0.0000
 41
0.0000
 70
1
  0
VERTEX
  8
2
 10
4.4450
 20
2.0320
 30
0.0000
  0
VERTEX
  8
2
 10
4.1910
 20
2.0320
 30
0.0000
 42
1.0000
  0
VERTEX
  8
2
 10
4.1910
 20
1.8796
 30
0.0000
  0
VERTEX
  8
2
 10
4.4450
 20
1.8796
 30
0.0000
 42
1.0000
  0
SEQEND
  8
0
  0
POLYLINE
  8
2
 66
1
 10
0.0000
 20
0.0000
 30
0.0000
 40
0.0000
 41
0.0000
 70
1
  0
VERTEX
  8
2
 10
5.6642
 20
3.0988
 30
0.0000
  0
VERTEX
  8
2
 10
5.6642
 20
3.9370
 30
0.0000
 42
1.0000
  0
VERTEX
  8
2
 10
5.5118
 20
3.9370
 30
0.0000
  0
VERTEX
  8
2
 10
5.5118
 20
3.0988
 30
0.0000
 42
1.0000
  0
SEQEND
  8
0
  0
POLYLINE
  8
2
 66
1
 10
0.0000
 20
0.0000
 30
0.0000
 40
0.0000
 41
0.0000
 70
1
  0
VERTEX
  8
2
 10
6.1183
 20
4.0163
 30
0.0000
  0
VERTEX
  8
2
 10
6.0929
 20
3.9909
 30
0.0000
 42
1.0000
  0
VERTEX
  8
2
 10
6.2007
 20
3.8831
 30
0.0000
  0
VERTEX
  8
2
 10
6.2261
 20
3.9085
 30
0.0000
 42
1.0000
  0
SEQEND
  8
0
  0
POLYLINE
  8
2
 66
1
 10
0.0000
 20
0.0000
 30
0.0000
 40
0.0000
 41
0.0000
 70
1
  0
VERTEX
  8
2
 10
6.1468
 20
4.0132
 30
0.0000
  0
VERTEX
  8
2
 10
5.5880
 20
4.0132
 30
0.0000
 42
1.0000
  0
VERTEX
  8
2
 10
5.5880
 20
3.8608
 30
0.0000
  0
VERTEX
  8
2
 10
6.1468
 20
3.8608
 30
0.0000
 42
1.0000
  0
SEQEND
  8
0
  0
POLYLINE
  8
1
 66
1
 10
0.0000
 20
0.0000
 30
0.0000
 40
0.0000
 41
0.0000
 70
1
  0
VERTEX
  8
1
 10
6.2261
 20
3.9085
 30
0.0000
  0
VERTEX
  8
1
 10
6.5847
 20
4.2671
 30
0.0000
 42
1.0000
  0
VERTEX
  8
1
 10
6.4769
 20
4.3749
 30
0.0000
  0
VERTEX
  8
1
 10
6.1183
 20
4.0163
 30
0.0000
 42
1.0000
  0
SEQEND
  8
0
  0
POLYLINE
  8
1
 66
1
 10
0.0000
 20
0.0000
 30
0.0000
 40
0.0000
 41
0.0000
 70
1
  0
VERTEX
  8
1
 10
6.5308
 20
4.2448
 30
0.0000
  0
VERTEX
  8
1
 10
6.5825
 20
4.2448
 30
0.0000
 42
1.0000
  0
VERTEX
  8
1
 10
6.5825
 20
4.3972
 30
0.0000
  0
VERTEX
  8
1
 10
6.5308
 20
4.3972
 30
0.0000
 42
1.0000
  0
SEQEND
  8
0
  0
INSERT
  8
18
  2
ROUNDV
 10
4.1910
 20
1.9558
 30
0.0000
 41
0.3048
 42
0.3048
 43
1.0000
 50
0.0000
  0
INSERT
  8
18
  2
ROUNDV
 10
4.1910
 20
1.9558
 30
0.0000
 41
0.3048
 42
0.3048
 43
1.0000
 50
0.0000
  0
INSERT
  8
18
  2
ROUNDV
 10
6.1722
 20
3.9624
 30
0.0000
 41
0.3048
 42
0.3048
 43
1.0000
 50
0.0000
  0
INSERT
  8
18
  2
ROUNDV
 10
6.1722
 20
3.9624
 30
0.0000
 41
0.3048
 42
0.3048
 43
1.0000
 50
0.0000
  0
POLYLINE
  8
1
 66
1
 10
0.0000
 20
0.0000
 30
0.0000
 40
0.0000
 41
0.0000
 70
1
  0
VERTEX
  8
1
 10
3.3274
 20
2.5273
 30
0.0000
  0
VERTEX
  8
1
 10
4.0005
 20
2.5273
 30
0.0000
 42
1.0000
  0
VERTEX
  8
1
 10
4.0005
 20
2.6797
 30
0.0000
  0
VERTEX
  8
1
 10
3.3274
 20
2.6797
 30
0.0000
 42
1.0000
  0
SEQEND
  8
0
  0
POLYLINE
  8
1
 66
1
 10
0.0000
 20
0.0000
 30
0.0000
 40
0.0000
 41
0.0000
 70
1
  0
VERTEX
  8
1
 10
3.9954
 20
2.5275
 30
0.0000
  0
VERTEX
  8
1
 10
4.1859
 20
2.5148
 30
0.0000
 42
1.0000
  0
VERTEX
  8
1
 10
4.1961
 20
2.6668
 30
0.0000
  0
VERTEX
  8
1
 10
4.0056
 20
2.6795
 30
0.0000
 42
1.0000
  0
SEQEND
  8
0
  0
POLYLINE
  8
2
 66
1
 10
0.0000
 20
0.0000
 30
0.0000
 40
0.0000
 41
0.0000
 70
1
  0
VERTEX
  8
2
 10
4.2520
 20
2.5451
 30
0.0000
  0
VERTEX
  8
2
 10
4.6330
 20
3.0531
 30
0.0000
 42
1.0000
  0
VERTEX
  8
2
 10
4.5110
 20
3.1445
 30
0.0000
  0
VERTEX
  8
2
 10
4.1300
 20
2.6365
 30
0.0000
 42
1.0000
  0
SEQEND
  8
0
  0
POLYLINE
  8
2
 66
1
 10
0.0000
 20
0.0000
 30
0.0000
 40
0.0000
 41
0.0000
 70
1
  0
VERTEX
  8
2
 10
4.6482
 20
3.0988
 30
0.0000
  0
VERTEX
  8
2
 10
4.6482
 20
4.6990
 30
0.0000
 42
1.0000
  0
VERTEX
  8
2
 10
4.4958
 20
4.6990
 30
0.0000
  0
VERTEX
  8
2
 10
4.4958
 20
3.0988
 30
0.0000
 42
1.0000
  0
SEQEND
  8
0
  0
POLYLINE
  8
2
 66
1
 10
0.0000
 20
0.0000
 30
0.0000
 40
0.0000
 41
0.0000
 70
1
  0
VERTEX
  8
2
 10
4.5720
 20
4.6228
 30
0.0000
  0
VERTEX
  8
2
 10
6.1516
 20
4.6228
 30
0.0000
 42
1.0000
  0
VERTEX
  8
2
 10
6.1516
 20
4.7752
 30
0.0000
  0
VERTEX
  8
2
 10
4.5720
 20
4.7752
 30
0.0000
 42
1.0000
  0
SEQEND
  8
0
  0
POLYLINE
  8
2
 66
1
 10
0.0000
 20
0.0000
 30
0.0000
 40
0.0000
 41
0.0000
 70
1
  0
VERTEX
  8
2
 10
6.0924
 20
4.6509
 30
0.0000
  0
VERTEX
  8
2
 10
6.1131
 20
4.6255
 30
0.0000
 42
1.0000
  0
VERTEX
  8
2
 10
6.2313
 20
4.7217
 30
0.0000
  0
VERTEX
  8
2
 10
6.2107
 20
4.7471
 30
0.0000
 42
1.0000
  0
SEQEND
  8
0
  0
POLYLINE
  8
1
 66
1
 10
0.0000
 20
0.0000
 30
0.0000
 40
0.0000
 41
0.0000
 70
1
  0
VERTEX
  8
1
 10
6.2242
 20
4.6179
 30
0.0000
  0
VERTEX
  8
1
 10
6.6070
 20
4.9753
 30
0.0000
 42
1.0000
  0
VERTEX
  8
1
 10
6.5030
 20
5.0867
 30
0.0000
  0
VERTEX
  8
1
 10
6.1202
 20
4.7293
 30
0.0000
 42
1.0000
  0
SEQEND
  8
0
  0
POLYLINE
  8
1
 66
1
 10
0.0000
 20
0.0000
 30
0.0000
 40
0.0000
 41
0.0000
 70
1
  0
VERTEX
  8
1
 10
6.5550
 20
4.9548
 30
0.0000
  0
VERTEX
  8
1
 10
6.5825
 20
4.9548
 30
0.0000
 42
1.0000
  0
VERTEX
  8
1
 10
6.5825
 20
5.1072
 30
0.0000
  0
VERTEX
  8
1
 10
6.5550
 20
5.1072
 30
0.0000
 42
1.0000
  0
SEQEND
  8
0
  0
INSERT
  8
18
  2
ROUNDV
 10
4.1910
 20
2.5908
 30
0.0000
 41
0.3048
 42
0.3048
 43
1.0000
 50
0.0000
  0
INSERT
  8
18
  2
ROUNDV
 10
4.1910
 20
2.5908
 30
0.0000
 41
0.3048
 42
0.3048
 43
1.0000
 50
0.0000
  0
INSERT
  8
18
  2
ROUNDV
 10
6.1722
 20
4.6736
 30
0.0000
 41
0.3048
 42
0.3048
 43
1.0000
 50
0.0000
  0
INSERT
  8
18
  2
ROUNDV
 10
6.1722
 20
4.6736
 30
0.0000
 41
0.3048
 42
0.3048
 43
1.0000
 50
0.0000
  0
POLYLINE
  8
1
 66
1
 10
0.0000
 20
0.0000
 30
0.0000
 40
0.0000
 41
0.0000
 70
1
  0
VERTEX
  8
1
 10
3.3274
 20
3.1623
 30
0.0000
  0
VERTEX
  8
1
 10
4.0005
 20
3.1623
 30
0.0000
 42
1.0000
  0
VERTEX
  8
1
 10
4.0005
 20
3.3147
 30
0.0000
  0
VERTEX
  8
1
 10
3.3274
 20
3.3147
 30
0.0000
 42
1.0000
  0
SEQEND
  8
0
  0
POLYLINE
  8
1
 66
1
 10
0.0000
 20
0.0000
 30
0.0000
 40
0.0000
 41
0.0000
 70
1
  0
VERTEX
  8
1
 10
3.9954
 20
3.1625
 30
0.0000
  0
VERTEX
  8
1
 10
4.1859
 20
3.1498
 30
0.0000
 42
1.0000
  0
VERTEX
  8
1
 10
4.1961
 20
3.3018
 30
0.0000
  0
VERTEX
  8
1
 10
4.0056
 20
3.3145
 30
0.0000
 42
1.0000
  0
SEQEND
  8
0
  0
POLYLINE
  8
2
 66
1
 10
0.0000
 20
0.0000
 30
0.0000
 40
0.0000
 41
0.0000
 70
1
  0
VERTEX
  8
2
 10
4.2671
 20
3.2299
 30
0.0000
  0
VERTEX
  8
2
 10
4.1401
 20
5.5921
 30
0.0000
 42
1.0000
  0
VERTEX
  8
2
 10
3.9879
 20
5.5839
 30
0.0000
  0
VERTEX
  8
2
 10
4.1149
 20
3.2217
 30
0.0000
 42
1.0000
  0
SEQEND
  8
0
  0
POLYLINE
  8
2
 66
1
 10
0.0000
 20
0.0000
 30
0.0000
 40
0.0000
 41
0.0000
 70
1
  0
VERTEX
  8
2
 10
5.9690
 20
5.6642
 30
0.0000
  0
VERTEX
  8
2
 10
4.0640
 20
5.6642
 30
0.0000
 42
1.0000
  0
VERTEX
  8
2
 10
4.0640
 20
5.5118
 30
0.0000
  0
VERTEX
  8
2
 10
5.9690
 20
5.5118
 30
0.0000
 42
1.0000
  0
SEQEND
  8
0
  0
POLYLINE
  8
2
 66
1
 10
0.0000
 20
0.0000
 30
0.0000
 40
0.0000
 41
0.0000
 70
1
  0
VERTEX
  8
2
 10
5.9151
 20
5.5341
 30
0.0000
  0
VERTEX
  8
2
 10
6.1183
 20
5.3309
 30
0.0000
 42
1.0000
  0
VERTEX
  8
2
 10
6.2261
 20
5.4387
 30
0.0000
  0
VERTEX
  8
2
 10
6.0229
 20
5.6419
 30
0.0000
 42
1.0000
  0
SEQEND
  8
0
  0
POLYLINE
  8
1
 66
1
 10
0.0000
 20
0.0000
 30
0.0000
 40
0.0000
 41
0.0000
 70
1
  0
VERTEX
  8
1
 10
6.2484
 20
5.3848
 30
0.0000
  0
VERTEX
  8
1
 10
6.2484
 20
5.4085
 30
0.0000
 42
1.0000
  0
VERTEX
  8
1
 10
6.0960
 20
5.4085
 30
0.0000
  0
VERTEX
  8
1
 10
6.0960
 20
5.3848
 30
0.0000
 42
1.0000
  0
SEQEND
  8
0
  0
POLYLINE
  8
1
 66
1
 10
0.0000
 20
0.0000
 30
0.0000
 40
0.0000
 41
0.0000
 70
1
  0
VERTEX
  8
1
 10
6.4421
 20
5.7942
 30
0.0000
  0
VERTEX
  8
1
 10
6.1177
 20
5.4617
 30
0.0000
 42
1.0000
  0
VERTEX
  8
1
 10
6.2267
 20
5.3552
 30
0.0000
  0
VERTEX
  8
1
 10
6.5512
 20
5.6878
 30
0.0000
 42
1.0000
  0
SEQEND
  8
0
  0
POLYLINE
  8
1
 66
1
 10
0.0000
 20
0.0000
 30
0.0000
 40
0.0000
 41
0.0000
 70
1
  0
VERTEX
  8
1
 10
6.4967
 20
5.6648
 30
0.0000
  0
VERTEX
  8
1
 10
6.5825
 20
5.6648
 30
0.0000
 42
1.0000
  0
VERTEX
  8
1
 10
6.5825
 20
5.8172
 30
0.0000
  0
VERTEX
  8
1
 10
6.4967
 20
5.8172
 30
0.0000
 42
1.0000
  0
SEQEND
  8
0
  0
INSERT
  8
18
  2
ROUNDV
 10
4.1910
 20
3.2258
 30
0.0000
 41
0.3048
 42
0.3048
 43
1.0000
 50
0.0000
  0
INSERT
  8
18
  2
ROUNDV
 10
4.1910
 20
3.2258
 30
0.0000
 41
0.3048
 42
0.3048
 43
1.0000
 50
0.0000
  0
INSERT
  8
18
  2
ROUNDV
 10
6.1722
 20
5.3848
 30
0.0000
 41
0.3048
 42
0.3048
 43
1.0000
 50
0.0000
  0
INSERT
  8
18
  2
ROUNDV
 10
6.1722
 20
5.3848
 30
0.0000
 41
0.3048
 42
0.3048
 43
1.0000
 50
0.0000
  0
POLYLINE
  8
1
 66
1
 10
0.0000
 20
0.0000
 30
0.0000
 40
0.0000
 41
0.0000
 70
1
  0
VERTEX
  8
1
 10
3.3274
 20
8.8773
 30
0.0000
  0
VERTEX
  8
1
 10
4.1275
 20
8.8773
 30
0.0000
 42
1.0000
  0
VERTEX
  8
1
 10
4.1275
 20
9.0297
 30
0.0000
  0
VERTEX
  8
1
 10
3.3274
 20
9.0297
 30
0.0000
 42
1.0000
  0
SEQEND
  8
0
  0
POLYLINE
  8
1
 66
1
 10
0.0000
 20
0.0000
 30
0.0000
 40
0.0000
 41
0.0000
 70
1
  0
VERTEX
  8
1
 10
4.1126
 20
8.8788
 30
0.0000
  0
VERTEX
  8
1
 10
4.1761
 20
8.8661
 30
0.0000
 42
1.0000
  0
VERTEX
  8
1
 10
4.2059
 20
9.0155
 30
0.0000
  0
VERTEX
  8
1
 10
4.1424
 20
9.0282
 30
0.0000
 42
1.0000
  0
SEQEND
  8
0
  0
POLYLINE
  8
2
 66
1
 10
0.0000
 20
0.0000
 30
0.0000
 40
0.0000
 41
0.0000
 70
1
  0
VERTEX
  8
2
 10
4.1148
 20
8.9408
 30
0.0000
  0
VERTEX
  8
2
 10
4.1148
 20
8.8138
 30
0.0000
 42
1.0000
  0
VERTEX
  8
2
 10
4.2672
 20
8.8138
 30
0.0000
  0
VERTEX
  8
2
 10
4.2672
 20
8.9408
 30
0.0000
 42
1.0000
  0
SEQEND
  8
0
  0
POLYLINE
  8
2
 66
1
 10
0.0000
 20
0.0000
 30
0.0000
 40
0.0000
 41
0.0000
 70
1
  0
VERTEX
  8
2
 10
4.1148
 20
8.8138
 30
0.0000
  0
VERTEX
  8
2
 10
4.1148
 20
6.3500
 30
0.0000
 42
1.0000
  0
VERTEX
  8
2
 10
4.2672
 20
6.3500
 30
0.0000
  0
VERTEX
  8
2
 10
4.2672
 20
8.8138
 30
0.0000
 42
1.0000
  0
SEQEND
  8
0
  0
POLYLINE
  8
2
 66
1
 10
0.0000
 20
0.0000
 30
0.0000
 40
0.0000
 41
0.0000
 70
1
  0
VERTEX
  8
2
 10
6.0633
 20
6.1680
 30
0.0000
  0
VERTEX
  8
2
 10
6.1010
 20
6.0689
 30
0.0000
 42
1.0000
  0
VERTEX
  8
2
 10
6.2434
 20
6.1231
 30
0.0000
  0
VERTEX
  8
2
 10
6.2058
 20
6.2221
 30
0.0000
 42
1.0000
  0
SEQEND
  8
0
  0
POLYLINE
  8
1
 66
1
 10
0.0000
 20
0.0000
 30
0.0000
 40
0.0000
 41
0.0000
 70
1
  0
VERTEX
  8
1
 10
6.2242
 20
6.0403
 30
0.0000
  0
VERTEX
  8
1
 10
6.6046
 20
6.3953
 30
0.0000
 42
1.0000
  0
VERTEX
  8
1
 10
6.5006
 20
6.5067
 30
0.0000
  0
VERTEX
  8
1
 10
6.1202
 20
6.1517
 30
0.0000
 42
1.0000
  0
SEQEND
  8
0
  0
POLYLINE
  8
1
 66
1
 10
0.0000
 20
0.0000
 30
0.0000
 40
0.0000
 41
0.0000
 70
1
  0
VERTEX
  8
1
 10
6.5526
 20
6.3748
 30
0.0000
  0
VERTEX
  8
1
 10
6.5825
 20
6.3748
 30
0.0000
 42
1.0000
  0
VERTEX
  8
1
 10
6.5825
 20
6.5272
 30
0.0000
  0
VERTEX
  8
1
 10
6.5526
 20
6.5272
 30
0.0000
 42
1.0000
  0
SEQEND
  8
0
  0
POLYLINE
  8
2
 66
1
 10
0.0000
 20
0.0000
 30
0.0000
 40
0.0000
 41
0.0000
 70
1
  0
VERTEX
  8
2
 10
4.1371
 20
6.2961
 30
0.0000
  0
VERTEX
  8
2
 10
4.2921
 20
6.1412
 30
0.0000
 42
1.0000
  0
VERTEX
  8
2
 10
4.3998
 20
6.2489
 30
0.0000
  0
VERTEX
  8
2
 10
4.2449
 20
6.4039
 30
0.0000
 42
1.0000
  0
SEQEND
  8
0
  0
POLYLINE
  8
2
 66
1
 10
0.0000
 20
0.0000
 30
0.0000
 40
0.0000
 41
0.0000
 70
1
  0
VERTEX
  8
2
 10
4.3459
 20
6.1189
 30
0.0000
  0
VERTEX
  8
2
 10
6.1345
 20
6.1189
 30
0.0000
 42
1.0000
  0
VERTEX
  8
2
 10
6.1345
 20
6.2713
 30
0.0000
  0
VERTEX
  8
2
 10
4.3459
 20
6.2713
 30
0.0000
 42
1.0000
  0
SEQEND
  8
0
  0
INSERT
  8
18
  2
ROUNDV
 10
4.1910
 20
8.9408
 30
0.0000
 41
0.3048
 42
0.3048
 43
1.0000
 50
0.0000
  0
INSERT
  8
18
  2
ROUNDV
 10
4.1910
 20
8.9408
 30
0.0000
 41
0.3048
 42
0.3048
 43
1.0000
 50
0.0000
  0
INSERT
  8
18
  2
ROUNDV
 10
6.1722
 20
6.0960
 30
0.0000
 41
0.3048
 42
0.3048
 43
1.0000
 50
0.0000
  0
INSERT
  8
18
  2
ROUNDV
 10
6.1722
 20
6.0960
 30
0.0000
 41
0.3048
 42
0.3048
 43
1.0000
 50
0.0000
  0
POLYLINE
  8
1
 66
1
 10
0.0000
 20
0.0000
 30
0.0000
 40
0.0000
 41
0.0000
 70
1
  0
VERTEX
  8
1
 10
3.3274
 20
9.5123
 30
0.0000
  0
VERTEX
  8
1
 10
4.1275
 20
9.5123
 30
0.0000
 42
1.0000
  0
VERTEX
  8
1
 10
4.1275
 20
9.6647
 30
0.0000
  0
VERTEX
  8
1
 10
3.3274
 20
9.6647
 30
0.0000
 42
1.0000
  0
SEQEND
  8
0
  0
POLYLINE
  8
1
 66
1
 10
0.0000
 20
0.0000
 30
0.0000
 40
0.0000
 41
0.0000
 70
1
  0
VERTEX
  8
1
 10
4.1126
 20
9.5138
 30
0.0000
  0
VERTEX
  8
1
 10
4.1761
 20
9.5011
 30
0.0000
 42
1.0000
  0
VERTEX
  8
1
 10
4.2059
 20
9.6505
 30
0.0000
  0
VERTEX
  8
1
 10
4.1424
 20
9.6632
 30
0.0000
 42
1.0000
  0
SEQEND
  8
0
  0
POLYLINE
  8
2
 66
1
 10
0.0000
 20
0.0000
 30
0.0000
 40
0.0000
 41
0.0000
 70
1
  0
VERTEX
  8
2
 10
4.1300
 20
9.5301
 30
0.0000
  0
VERTEX
  8
2
 10
4.5110
 20
9.0221
 30
0.0000
 42
1.0000
  0
VERTEX
  8
2
 10
4.6330
 20
9.1135
 30
0.0000
  0
VERTEX
  8
2
 10
4.2520
 20
9.6215
 30
0.0000
 42
1.0000
  0
SEQEND
  8
0
  0
POLYLINE
  8
2
 66
1
 10
0.0000
 20
0.0000
 30
0.0000
 40
0.0000
 41
0.0000
 70
1
  0
VERTEX
  8
2
 10
4.4958
 20
9.0678
 30
0.0000
  0
VERTEX
  8
2
 10
4.4958
 20
6.7310
 30
0.0000
 42
1.0000
  0
VERTEX
  8
2
 10
4.6482
 20
6.7310
 30
0.0000
  0
VERTEX
  8
2
 10
4.6482
 20
9.0678
 30
0.0000
 42
1.0000
  0
SEQEND
  8
0
  0
POLYLINE
  8
2
 66
1
 10
0.0000
 20
0.0000
 30
0.0000
 40
0.0000
 41
0.0000
 70
1
  0
VERTEX
  8
2
 10
6.1183
 20
6.8611
 30
0.0000
  0
VERTEX
  8
2
 10
6.0421
 20
6.7849
 30
0.0000
 42
1.0000
  0
VERTEX
  8
2
 10
6.1499
 20
6.6771
 30
0.0000
  0
VERTEX
  8
2
 10
6.2261
 20
6.7533
 30
0.0000
 42
1.0000
  0
SEQEND
  8
0
  0
POLYLINE
  8
2
 66
1
 10
0.0000
 20
0.0000
 30
0.0000
 40
0.0000
 41
0.0000
 70
1
  0
VERTEX
  8
2
 10
6.0960
 20
6.8072
 30
0.0000
  0
VERTEX
  8
2
 10
4.5720
 20
6.8072
 30
0.0000
 42
1.0000
  0
VERTEX
  8
2
 10
4.5720
 20
6.6548
 30
0.0000
  0
VERTEX
  8
2
 10
6.0960
 20
6.6548
 30
0.0000
 42
1.0000
  0
SEQEND
  8
0
  0
POLYLINE
  8
1
 66
1
 10
0.0000
 20
0.0000
 30
0.0000
 40
0.0000
 41
0.0000
 70
1
  0
VERTEX
  8
1
 10
6.2230
 20
6.7504
 30
0.0000
  0
VERTEX
  8
1
 10
6.6184
 20
7.1042
 30
0.0000
 42
1.0000
  0
VERTEX
  8
1
 10
6.5168
 20
7.2178
 30
0.0000
  0
VERTEX
  8
1
 10
6.1214
 20
6.8640
 30
0.0000
 42
1.0000
  0
SEQEND
  8
0
  0
POLYLINE
  8
1
 66
1
 10
0.0000
 20
0.0000
 30
0.0000
 40
0.0000
 41
0.0000
 70
1
  0
VERTEX
  8
1
 10
6.5676
 20
7.0848
 30
0.0000
  0
VERTEX
  8
1
 10
6.5825
 20
7.0848
 30
0.0000
 42
1.0000
  0
VERTEX
  8
1
 10
6.5825
 20
7.2372
 30
0.0000
  0
VERTEX
  8
1
 10
6.5676
 20
7.2372
 30
0.0000
 42
1.0000
  0
SEQEND
  8
0
  0
INSERT
  8
18
  2
ROUNDV
 10
4.1910
 20
9.5758
 30
0.0000
 41
0.3048
 42
0.3048
 43
1.0000
 50
0.0000
  0
INSERT
  8
18
  2
ROUNDV
 10
4.1910
 20
9.5758
 30
0.0000
 41
0.3048
 42
0.3048
 43
1.0000
 50
0.0000
  0
INSERT
  8
18
  2
ROUNDV
 10
6.1722
 20
6.8072
 30
0.0000
 41
0.3048
 42
0.3048
 43
1.0000
 50
0.0000
  0
INSERT
  8
18
  2
ROUNDV
 10
6.1722
 20
6.8072
 30
0.0000
 41
0.3048
 42
0.3048
 43
1.0000
 50
0.0000
  0
POLYLINE
  8
1
 66
1
 10
0.0000
 20
0.0000
 30
0.0000
 40
0.0000
 41
0.0000
 70
1
  0
VERTEX
  8
1
 10
3.3274
 20
10.1473
 30
0.0000
  0
VERTEX
  8
1
 10
4.1275
 20
10.1473
 30
0.0000
 42
1.0000
  0
VERTEX
  8
1
 10
4.1275
 20
10.2997
 30
0.0000
  0
VERTEX
  8
1
 10
3.3274
 20
10.2997
 30
0.0000
 42
1.0000
  0
SEQEND
  8
0
  0
POLYLINE
  8
1
 66
1
 10
0.0000
 20
0.0000
 30
0.0000
 40
0.0000
 41
0.0000
 70
1
  0
VERTEX
  8
1
 10
4.1126
 20
10.1488
 30
0.0000
  0
VERTEX
  8
1
 10
4.1761
 20
10.1361
 30
0.0000
 42
1.0000
  0
VERTEX
  8
1
 10
4.2059
 20
10.2855
 30
0.0000
  0
VERTEX
  8
1
 10
4.1424
 20
10.2982
 30
0.0000
 42
1.0000
  0
SEQEND
  8
0
  0
POLYLINE
  8
2
 66
1
 10
0.0000
 20
0.0000
 30
0.0000
 40
0.0000
 41
0.0000
 70
1
  0
VERTEX
  8
2
 10
4.1344
 20
10.1598
 30
0.0000
  0
VERTEX
  8
2
 10
5.2774
 20
8.8898
 30
0.0000
 42
1.0000
  0
VERTEX
  8
2
 10
5.3906
 20
8.9918
 30
0.0000
  0
VERTEX
  8
2
 10
4.2476
 20
10.2618
 30
0.0000
 42
1.0000
  0
SEQEND
  8
0
  0
POLYLINE
  8
2
 66
1
 10
0.0000
 20
0.0000
 30
0.0000
 40
0.0000
 41
0.0000
 70
1
  0
VERTEX
  8
2
 10
5.2578
 20
8.9408
 30
0.0000
  0
VERTEX
  8
2
 10
5.2578
 20
7.8486
 30
0.0000
 42
1.0000
  0
VERTEX
  8
2
 10
5.4102
 20
7.8486
 30
0.0000
  0
VERTEX
  8
2
 10
5.4102
 20
8.9408
 30
0.0000
 42
1.0000
  0
SEQEND
  8
0
  0
POLYLINE
  8
2
 66
1
 10
0.0000
 20
0.0000
 30
0.0000
 40
0.0000
 41
0.0000
 70
1
  0
VERTEX
  8
2
 10
5.6642
 20
7.4422
 30
0.0000
  0
VERTEX
  8
2
 10
6.1722
 20
7.4422
 30
0.0000
 42
1.0000
  0
VERTEX
  8
2
 10
6.1722
 20
7.5946
 30
0.0000
  0
VERTEX
  8
2
 10
5.6642
 20
7.5946
 30
0.0000
 42
1.0000
  0
SEQEND
  8
0
  0
POLYLINE
  8
2
 66
1
 10
0.0000
 20
0.0000
 30
0.0000
 40
0.0000
 41
0.0000
 70
1
  0
VERTEX
  8
2
 10
5.7181
 20
7.5723
 30
0.0000
  0
VERTEX
  8
2
 10
5.3879
 20
7.9025
 30
0.0000
 42
1.0000
  0
VERTEX
  8
2
 10
5.2801
 20
7.7947
 30
0.0000
  0
VERTEX
  8
2
 10
5.6103
 20
7.4645
 30
0.0000
 42
1.0000
  0
SEQEND
  8
0
  0
POLYLINE
  8
1
 66
1
 10
0.0000
 20
0.0000
 30
0.0000
 40
0.0000
 41
0.0000
 70
1
  0
VERTEX
  8
1
 10
6.2262
 20
7.4646
 30
0.0000
  0
VERTEX
  8
1
 10
6.5771
 20
7.8172
 30
0.0000
 42
1.0000
  0
VERTEX
  8
1
 10
6.4691
 20
7.9248
 30
0.0000
  0
VERTEX
  8
1
 10
6.1182
 20
7.5722
 30
0.0000
 42
1.0000
  0
SEQEND
  8
0
  0
POLYLINE
  8
1
 66
1
 10
0.0000
 20
0.0000
 30
0.0000
 40
0.0000
 41
0.0000
 70
1
  0
VERTEX
  8
1
 10
6.5231
 20
7.7948
 30
0.0000
  0
VERTEX
  8
1
 10
6.5825
 20
7.7948
 30
0.0000
 42
1.0000
  0
VERTEX
  8
1
 10
6.5825
 20
7.9472
 30
0.0000
  0
VERTEX
  8
1
 10
6.5231
 20
7.9472
 30
0.0000
 42
1.0000
  0
SEQEND
  8
0
  0
INSERT
  8
18
  2
ROUNDV
 10
4.1910
 20
10.2108
 30
0.0000
 41
0.3048
 42
0.3048
 43
1.0000
 50
0.0000
  0
INSERT
  8
18
  2
ROUNDV
 10
4.1910
 20
10.2108
 30
0.0000
 41
0.3048
 42
0.3048
 43
1.0000
 50
0.0000
  0
INSERT
  8
18
  2
ROUNDV
 10
6.1722
 20
7.5184
 30
0.0000
 41
0.3048
 42
0.3048
 43
1.0000
 50
0.0000
  0
INSERT
  8
18
  2
ROUNDV
 10
6.1722
 20
7.5184
 30
0.0000
 41
0.3048
 42
0.3048
 43
1.0000
 50
0.0000
  0
POLYLINE
  8
1
 66
1
 10
0.0000
 20
0.0000
 30
0.0000
 40
0.0000
 41
0.0000
 70
1
  0
VERTEX
  8
1
 10
3.3274
 20
10.7823
 30
0.0000
  0
VERTEX
  8
1
 10
4.1275
 20
10.7823
 30
0.0000
 42
1.0000
  0
VERTEX
  8
1
 10
4.1275
 20
10.9347
 30
0.0000
  0
VERTEX
  8
1
 10
3.3274
 20
10.9347
 30
0.0000
 42
1.0000
  0
SEQEND
  8
0
  0
POLYLINE
  8
1
 66
1
 10
0.0000
 20
0.0000
 30
0.0000
 40
0.0000
 41
0.0000
 70
1
  0
VERTEX
  8
1
 10
4.1126
 20
10.7838
 30
0.0000
  0
VERTEX
  8
1
 10
4.1761
 20
10.7711
 30
0.0000
 42
1.0000
  0
VERTEX
  8
1
 10
4.2059
 20
10.9205
 30
0.0000
  0
VERTEX
  8
1
 10
4.1424
 20
10.9332
 30
0.0000
 42
1.0000
  0
SEQEND
  8
0
  0
POLYLINE
  8
2
 66
1
 10
0.0000
 20
0.0000
 30
0.0000
 40
0.0000
 41
0.0000
 70
1
  0
VERTEX
  8
2
 10
4.1910
 20
10.9220
 30
0.0000
  0
VERTEX
  8
2
 10
4.1783
 20
10.9220
 30
0.0000
 42
1.0000
  0
VERTEX
  8
2
 10
4.1783
 20
10.7696
 30
0.0000
  0
VERTEX
  8
2
 10
4.1910
 20
10.7696
 30
0.0000
 42
1.0000
  0
SEQEND
  8
0
  0
POLYLINE
  8
2
 66
1
 10
0.0000
 20
0.0000
 30
0.0000
 40
0.0000
 41
0.0000
 70
1
  0
VERTEX
  8
2
 10
6.1880
 20
8.9439
 30
0.0000
  0
VERTEX
  8
2
 10
4.2322
 20
10.8997
 30
0.0000
 42
1.0000
  0
VERTEX
  8
2
 10
4.1244
 20
10.7919
 30
0.0000
  0
VERTEX
  8
2
 10
6.0802
 20
8.8361
 30
0.0000
 42
1.0000
  0
SEQEND
  8
0
  0
POLYLINE
  8
1
 66
1
 10
0.0000
 20
0.0000
 30
0.0000
 40
0.0000
 41
0.0000
 70
1
  0
VERTEX
  8
1
 10
6.2240
 20
8.1991
 30
0.0000
  0
VERTEX
  8
1
 10
6.5754
 20
8.5251
 30
0.0000
 42
1.0000
  0
VERTEX
  8
1
 10
6.4718
 20
8.6369
 30
0.0000
  0
VERTEX
  8
1
 10
6.1204
 20
8.3109
 30
0.0000
 42
1.0000
  0
SEQEND
  8
0
  0
POLYLINE
  8
1
 66
1
 10
0.0000
 20
0.0000
 30
0.0000
 40
0.0000
 41
0.0000
 70
1
  0
VERTEX
  8
1
 10
6.5236
 20
8.5048
 30
0.0000
  0
VERTEX
  8
1
 10
6.5825
 20
8.5048
 30
0.0000
 42
1.0000
  0
VERTEX
  8
1
 10
6.5825
 20
8.6572
 30
0.0000
  0
VERTEX
  8
1
 10
6.5236
 20
8.6572
 30
0.0000
 42
1.0000
  0
SEQEND
  8
0
  0
POLYLINE
  8
2
 66
1
 10
0.0000
 20
0.0000
 30
0.0000
 40
0.0000
 41
0.0000
 70
1
  0
VERTEX
  8
2
 10
6.2261
 20
8.3089
 30
0.0000
  0
VERTEX
  8
2
 10
6.1880
 20
8.3470
 30
0.0000
 42
1.0000
  0
VERTEX
  8
2
 10
6.0802
 20
8.2392
 30
0.0000
  0
VERTEX
  8
2
 10
6.1183
 20
8.2011
 30
0.0000
 42
1.0000
  0
SEQEND
  8
0
  0
POLYLINE
  8
2
 66
1
 10
0.0000
 20
0.0000
 30
0.0000
 40
0.0000
 41
0.0000
 70
1
  0
VERTEX
  8
2
 10
6.2103
 20
8.2931
 30
0.0000
  0
VERTEX
  8
2
 10
6.2103
 20
8.8900
 30
0.0000
 42
1.0000
  0
VERTEX
  8
2
 10
6.0579
 20
8.8900
 30
0.0000
  0
VERTEX
  8
2
 10
6.0579
 20
8.2931
 30
0.0000
 42
1.0000
  0
SEQEND
  8
0
  0
INSERT
  8
18
  2
ROUNDV
 10
4.1910
 20
10.8458
 30
0.0000
 41
0.3048
 42
0.3048
 43
1.0000
 50
0.0000
  0
INSERT
  8
18
  2
ROUNDV
 10
4.1910
 20
10.8458
 30
0.0000
 41
0.3048
 42
0.3048
 43
1.0000
 50
0.0000
  0
INSERT
  8
18
  2
ROUNDV
 10
6.1722
 20
8.2550
 30
0.0000
 41
0.3048
 42
0.3048
 43
1.0000
 50
0.0000
  0
INSERT
  8
18
  2
ROUNDV
 10
6.1722
 20
8.2550
 30
0.0000
 41
0.3048
 42
0.3048
 43
1.0000
 50
0.0000
  0
POLYLINE
  8
1
 66
1
 10
0.0000
 20
0.0000
 30
0.0000
 40
0.0000
 41
0.0000
 70
1
  0
VERTEX
  8
1
 10
2.3876
 20
3.9497
 30
0.0000
  0
VERTEX
  8
1
 10
1.7145
 20
3.9497
 30
0.0000
 42
1.0000
  0
VERTEX
  8
1
 10
1.7145
 20
3.7973
 30
0.0000
  0
VERTEX
  8
1
 10
2.3876
 20
3.7973
 30
0.0000
 42
1.0000
  0
SEQEND
  8
0
  0
POLYLINE
  8
1
 66
1
 10
0.0000
 20
0.0000
 30
0.0000
 40
0.0000
 41
0.0000
 70
1
  0
VERTEX
  8
1
 10
1.7094
 20
3.9495
 30
0.0000
  0
VERTEX
  8
1
 10
1.5189
 20
3.9368
 30
0.0000
 42
1.0000
  0
VERTEX
  8
1
 10
1.5291
 20
3.7848
 30
0.0000
  0
VERTEX
  8
1
 10
1.7196
 20
3.7975
 30
0.0000
 42
1.0000
  0
SEQEND
  8
0
  0
POLYLINE
  8
15
 66
1
 10
0.0000
 20
0.0000
 30
0.0000
 40
0.0000
 41
0.0000
 70
1
  0
VERTEX
  8
15
 10
1.5240
 20
3.7846
 30
0.0000
  0
VERTEX
  8
15
 10
5.4102
 20
3.7846
 30
0.0000
 42
1.0000
  0
VERTEX
  8
15
 10
5.4102
 20
3.9370
 30
0.0000
  0
VERTEX
  8
15
 10
1.5240
 20
3.9370
 30
0.0000
 42
1.0000
  0
SEQEND
  8
0
  0
POLYLINE
  8
15
 66
1
 10
0.0000
 20
0.0000
 30
0.0000
 40
0.0000
 41
0.0000
 70
1
  0
VERTEX
  8
15
 10
5.3563
 20
3.8069
 30
0.0000
  0
VERTEX
  8
15
 10
5.6103
 20
3.5529
 30
0.0000
 42
1.0000
  0
VERTEX
  8
15
 10
5.7181
 20
3.6607
 30
0.0000
  0
VERTEX
  8
15
 10
5.4641
 20
3.9147
 30
0.0000
 42
1.0000
  0
SEQEND
  8
0
  0
POLYLINE
  8
15
 66
1
 10
0.0000
 20
0.0000
 30
0.0000
 40
0.0000
 41
0.0000
 70
1
  0
VERTEX
  8
15
 10
6.7390
 20
3.5727
 30
0.0000
  0
VERTEX
  8
15
 10
6.9168
 20
3.2171
 30
0.0000
 42
1.0000
  0
VERTEX
  8
15
 10
7.0532
 20
3.2853
 30
0.0000
  0
VERTEX
  8
15
 10
6.8754
 20
3.6409
 30
0.0000
 42
1.0000
  0
SEQEND
  8
0
  0
POLYLINE
  8
15
 66
1
 10
0.0000
 20
0.0000
 30
0.0000
 40
0.0000
 41
0.0000
 70
1
  0
VERTEX
  8
15
 10
5.6642
 20
3.5306
 30
0.0000
  0
VERTEX
  8
15
 10
6.8072
 20
3.5306
 30
0.0000
 42
1.0000
  0
VERTEX
  8
15
 10
6.8072
 20
3.6830
 30
0.0000
  0
VERTEX
  8
15
 10
5.6642
 20
3.6830
 30
0.0000
 42
1.0000
  0
SEQEND
  8
0
  0
POLYLINE
  8
1
 66
1
 10
0.0000
 20
0.0000
 30
0.0000
 40
0.0000
 41
0.0000
 70
1
  0
VERTEX
  8
1
 10
7.0389
 20
3.1973
 30
0.0000
  0
VERTEX
  8
1
 10
7.3987
 20
3.5571
 30
0.0000
 42
1.0000
  0
VERTEX
  8
1
 10
7.2909
 20
3.6649
 30
0.0000
  0
VERTEX
  8
1
 10
6.9311
 20
3.3051
 30
0.0000
 42
1.0000
  0
SEQEND
  8
0
  0
POLYLINE
  8
1
 66
1
 10
0.0000
 20
0.0000
 30
0.0000
 40
0.0000
 41
0.0000
 70
1
  0
VERTEX
  8
1
 10
7.3448
 20
3.5348
 30
0.0000
  0
VERTEX
  8
1
 10
7.3875
 20
3.5348
 30
0.0000
 42
1.0000
  0
VERTEX
  8
1
 10
7.3875
 20
3.6872
 30
0.0000
  0
VERTEX
  8
1
 10
7.3448
 20
3.6872
 30
0.0000
 42
1.0000
  0
SEQEND
  8
0
  0
INSERT
  8
18
  2
ROUNDV
 10
1.5240
 20
3.8608
 30
0.0000
 41
0.3048
 42
0.3048
 43
1.0000
 50
0.0000
  0
INSERT
  8
18
  2
ROUNDV
 10
1.5240
 20
3.8608
 30
0.0000
 41
0.3048
 42
0.3048
 43
1.0000
 50
0.0000
  0
INSERT
  8
18
  2
ROUNDV
 10
6.9850
 20
3.2512
 30
0.0000
 41
0.3048
 42
0.3048
 43
1.0000
 50
0.0000
  0
INSERT
  8
18
  2
ROUNDV
 10
6.9850
 20
3.2512
 30
0.0000
 41
0.3048
 42
0.3048
 43
1.0000
 50
0.0000
  0
POLYLINE
  8
15
 66
1
 10
0.0000
 20
0.0000
 30
0.0000
 40
0.0000
 41
0.0000
 70
1
  0
VERTEX
  8
15
 10
1.5240
 20
4.4196
 30
0.0000
  0
VERTEX
  8
15
 10
5.6642
 20
4.4196
 30
0.0000
 42
1.0000
  0
VERTEX
  8
15
 10
5.6642
 20
4.5720
 30
0.0000
  0
VERTEX
  8
15
 10
1.5240
 20
4.5720
 30
0.0000
 42
1.0000
  0
SEQEND
  8
0
  0
POLYLINE
  8
15
 66
1
 10
0.0000
 20
0.0000
 30
0.0000
 40
0.0000
 41
0.0000
 70
1
  0
VERTEX
  8
15
 10
5.6103
 20
4.4419
 30
0.0000
  0
VERTEX
  8
15
 10
5.7881
 20
4.2641
 30
0.0000
 42
1.0000
  0
VERTEX
  8
15
 10
5.8959
 20
4.3719
 30
0.0000
  0
VERTEX
  8
15
 10
5.7181
 20
4.5497
 30
0.0000
 42
1.0000
  0
SEQEND
  8
0
  0
POLYLINE
  8
15
 66
1
 10
0.0000
 20
0.0000
 30
0.0000
 40
0.0000
 41
0.0000
 70
1
  0
VERTEX
  8
15
 10
5.8420
 20
4.2418
 30
0.0000
  0
VERTEX
  8
15
 10
6.6040
 20
4.2418
 30
0.0000
 42
1.0000
  0
VERTEX
  8
15
 10
6.6040
 20
4.3942
 30
0.0000
  0
VERTEX
  8
15
 10
5.8420
 20
4.3942
 30
0.0000
 42
1.0000
  0
SEQEND
  8
0
  0
POLYLINE
  8
15
 66
1
 10
0.0000
 20
0.0000
 30
0.0000
 40
0.0000
 41
0.0000
 70
1
  0
VERTEX
  8
15
 10
6.6579
 20
4.2641
 30
0.0000
  0
VERTEX
  8
15
 10
6.6604
 20
4.2667
 30
0.0000
 42
1.0000
  0
VERTEX
  8
15
 10
6.5527
 20
4.3744
 30
0.0000
  0
VERTEX
  8
15
 10
6.5501
 20
4.3719
 30
0.0000
 42
1.0000
  0
SEQEND
  8
0
  0
POLYLINE
  8
15
 66
1
 10
0.0000
 20
0.0000
 30
0.0000
 40
0.0000
 41
0.0000
 70
1
  0
VERTEX
  8
15
 10
6.6065
 20
4.2443
 30
0.0000
  0
VERTEX
  8
15
 10
6.6192
 20
4.2443
 30
0.0000
 42
1.0000
  0
VERTEX
  8
15
 10
6.6192
 20
4.3967
 30
0.0000
  0
VERTEX
  8
15
 10
6.6065
 20
4.3967
 30
0.0000
 42
1.0000
  0
SEQEND
  8
0
  0
POLYLINE
  8
15
 66
1
 10
0.0000
 20
0.0000
 30
0.0000
 40
0.0000
 41
0.0000
 70
1
  0
VERTEX
  8
15
 10
6.5659
 20
4.2661
 30
0.0000
  0
VERTEX
  8
15
 10
6.9317
 20
3.9080
 30
0.0000
 42
1.0000
  0
VERTEX
  8
15
 10
7.0383
 20
4.0168
 30
0.0000
  0
VERTEX
  8
15
 10
6.6726
 20
4.3750
 30
0.0000
 42
1.0000
  0
SEQEND
  8
0
  0
POLYLINE
  8
1
 66
1
 10
0.0000
 20
0.0000
 30
0.0000
 40
0.0000
 41
0.0000
 70
1
  0
VERTEX
  8
1
 10
7.0389
 20
3.9085
 30
0.0000
  0
VERTEX
  8
1
 10
7.3975
 20
4.2671
 30
0.0000
 42
1.0000
  0
VERTEX
  8
1
 10
7.2897
 20
4.3749
 30
0.0000
  0
VERTEX
  8
1
 10
6.9311
 20
4.0163
 30
0.0000
 42
1.0000
  0
SEQEND
  8
0
  0
POLYLINE
  8
1
 66
1
 10
0.0000
 20
0.0000
 30
0.0000
 40
0.0000
 41
0.0000
 70
1
  0
VERTEX
  8
1
 10
7.3436
 20
4.2448
 30
0.0000
  0
VERTEX
  8
1
 10
7.3875
 20
4.2448
 30
0.0000
 42
1.0000
  0
VERTEX
  8
1
 10
7.3875
 20
4.3972
 30
0.0000
  0
VERTEX
  8
1
 10
7.3436
 20
4.3972
 30
0.0000
 42
1.0000
  0
SEQEND
  8
0
  0
POLYLINE
  8
1
 66
1
 10
0.0000
 20
0.0000
 30
0.0000
 40
0.0000
 41
0.0000
 70
1
  0
VERTEX
  8
1
 10
2.3337
 20
4.5624
 30
0.0000
  0
VERTEX
  8
1
 10
2.3210
 20
4.5497
 30
0.0000
 42
1.0000
  0
VERTEX
  8
1
 10
2.4288
 20
4.4419
 30
0.0000
  0
VERTEX
  8
1
 10
2.4415
 20
4.4546
 30
0.0000
 42
1.0000
  0
SEQEND
  8
0
  0
POLYLINE
  8
1
 66
1
 10
0.0000
 20
0.0000
 30
0.0000
 40
0.0000
 41
0.0000
 70
1
  0
VERTEX
  8
1
 10
2.3749
 20
4.5720
 30
0.0000
  0
VERTEX
  8
1
 10
1.5240
 20
4.5720
 30
0.0000
 42
1.0000
  0
VERTEX
  8
1
 10
1.5240
 20
4.4196
 30
0.0000
  0
VERTEX
  8
1
 10
2.3749
 20
4.4196
 30
0.0000
 42
1.0000
  0
SEQEND
  8
0
  0
INSERT
  8
18
  2
ROUNDV
 10
1.5240
 20
4.4958
 30
0.0000
 41
0.3048
 42
0.3048
 43
1.0000
 50
0.0000
  0
INSERT
  8
18
  2
ROUNDV
 10
1.5240
 20
4.4958
 30
0.0000
 41
0.3048
 42
0.3048
 43
1.0000
 50
0.0000
  0
INSERT
  8
18
  2
ROUNDV
 10
6.9850
 20
3.9624
 30
0.0000
 41
0.3048
 42
0.3048
 43
1.0000
 50
0.0000
  0
INSERT
  8
18
  2
ROUNDV
 10
6.9850
 20
3.9624
 30
0.0000
 41
0.3048
 42
0.3048
 43
1.0000
 50
0.0000
  0
POLYLINE
  8
15
 66
1
 10
0.0000
 20
0.0000
 30
0.0000
 40
0.0000
 41
0.0000
 70
1
  0
VERTEX
  8
15
 10
1.5240
 20
5.0546
 30
0.0000
  0
VERTEX
  8
15
 10
5.7912
 20
5.0546
 30
0.0000
 42
1.0000
  0
VERTEX
  8
15
 10
5.7912
 20
5.2070
 30
0.0000
  0
VERTEX
  8
15
 10
1.5240
 20
5.2070
 30
0.0000
 42
1.0000
  0
SEQEND
  8
0
  0
POLYLINE
  8
15
 66
1
 10
0.0000
 20
0.0000
 30
0.0000
 40
0.0000
 41
0.0000
 70
1
  0
VERTEX
  8
15
 10
6.5544
 20
4.9737
 30
0.0000
  0
VERTEX
  8
15
 10
6.9328
 20
4.6181
 30
0.0000
 42
1.0000
  0
VERTEX
  8
15
 10
7.0372
 20
4.7291
 30
0.0000
  0
VERTEX
  8
15
 10
6.6587
 20
5.0847
 30
0.0000
 42
1.0000
  0
SEQEND
  8
0
  0
POLYLINE
  8
15
 66
1
 10
0.0000
 20
0.0000
 30
0.0000
 40
0.0000
 41
0.0000
 70
1
  0
VERTEX
  8
15
 10
5.7373
 20
5.0769
 30
0.0000
  0
VERTEX
  8
15
 10
5.8389
 20
4.9753
 30
0.0000
 42
1.0000
  0
VERTEX
  8
15
 10
5.9467
 20
5.0831
 30
0.0000
  0
VERTEX
  8
15
 10
5.8451
 20
5.1847
 30
0.0000
 42
1.0000
  0
SEQEND
  8
0
  0
POLYLINE
  8
15
 66
1
 10
0.0000
 20
0.0000
 30
0.0000
 40
0.0000
 41
0.0000
 70
1
  0
VERTEX
  8
15
 10
5.8928
 20
4.9530
 30
0.0000
  0
VERTEX
  8
15
 10
6.6065
 20
4.9530
 30
0.0000
 42
1.0000
  0
VERTEX
  8
15
 10
6.6065
 20
5.1054
 30
0.0000
  0
VERTEX
  8
15
 10
5.8928
 20
5.1054
 30
0.0000
 42
1.0000
  0
SEQEND
  8
0
  0
POLYLINE
  8
1
 66
1
 10
0.0000
 20
0.0000
 30
0.0000
 40
0.0000
 41
0.0000
 70
1
  0
VERTEX
  8
1
 10
7.0389
 20
4.6197
 30
0.0000
  0
VERTEX
  8
1
 10
7.3963
 20
4.9771
 30
0.0000
 42
1.0000
  0
VERTEX
  8
1
 10
7.2885
 20
5.0849
 30
0.0000
  0
VERTEX
  8
1
 10
6.9311
 20
4.7275
 30
0.0000
 42
1.0000
  0
SEQEND
  8
0
  0
POLYLINE
  8
1
 66
1
 10
0.0000
 20
0.0000
 30
0.0000
 40
0.0000
 41
0.0000
 70
1
  0
VERTEX
  8
1
 10
7.3424
 20
4.9548
 30
0.0000
  0
VERTEX
  8
1
 10
7.3875
 20
4.9548
 30
0.0000
 42
1.0000
  0
VERTEX
  8
1
 10
7.3875
 20
5.1072
 30
0.0000
  0
VERTEX
  8
1
 10
7.3424
 20
5.1072
 30
0.0000
 42
1.0000
  0
SEQEND
  8
0
  0
POLYLINE
  8
1
 66
1
 10
0.0000
 20
0.0000
 30
0.0000
 40
0.0000
 41
0.0000
 70
1
  0
VERTEX
  8
1
 10
2.3337
 20
5.1974
 30
0.0000
  0
VERTEX
  8
1
 10
2.3210
 20
5.1847
 30
0.0000
 42
1.0000
  0
VERTEX
  8
1
 10
2.4288
 20
5.0769
 30
0.0000
  0
VERTEX
  8
1
 10
2.4415
 20
5.0896
 30
0.0000
 42
1.0000
  0
SEQEND
  8
0
  0
POLYLINE
  8
1
 66
1
 10
0.0000
 20
0.0000
 30
0.0000
 40
0.0000
 41
0.0000
 70
1
  0
VERTEX
  8
1
 10
2.3749
 20
5.2070
 30
0.0000
  0
VERTEX
  8
1
 10
1.5240
 20
5.2070
 30
0.0000
 42
1.0000
  0
VERTEX
  8
1
 10
1.5240
 20
5.0546
 30
0.0000
  0
VERTEX
  8
1
 10
2.3749
 20
5.0546
 30
0.0000
 42
1.0000
  0
SEQEND
  8
0
  0
INSERT
  8
18
  2
ROUNDV
 10
1.5240
 20
5.1308
 30
0.0000
 41
0.3048
 42
0.3048
 43
1.0000
 50
0.0000
  0
INSERT
  8
18
  2
ROUNDV
 10
1.5240
 20
5.1308
 30
0.0000
 41
0.3048
 42
0.3048
 43
1.0000
 50
0.0000
  0
INSERT
  8
18
  2
ROUNDV
 10
6.9850
 20
4.6736
 30
0.0000
 41
0.3048
 42
0.3048
 43
1.0000
 50
0.0000
  0
INSERT
  8
18
  2
ROUNDV
 10
6.9850
 20
4.6736
 30
0.0000
 41
0.3048
 42
0.3048
 43
1.0000
 50
0.0000
  0
POLYLINE
  8
15
 66
1
 10
0.0000
 20
0.0000
 30
0.0000
 40
0.0000
 41
0.0000
 70
1
  0
VERTEX
  8
15
 10
1.5245
 20
5.6896
 30
0.0000
  0
VERTEX
  8
15
 10
5.6393
 20
5.7150
 30
0.0000
 42
1.0000
  0
VERTEX
  8
15
 10
5.6383
 20
5.8674
 30
0.0000
  0
VERTEX
  8
15
 10
1.5235
 20
5.8420
 30
0.0000
 42
1.0000
  0
SEQEND
  8
0
  0
POLYLINE
  8
15
 66
1
 10
0.0000
 20
0.0000
 30
0.0000
 40
0.0000
 41
0.0000
 70
1
  0
VERTEX
  8
15
 10
5.5849
 20
5.7373
 30
0.0000
  0
VERTEX
  8
15
 10
5.6357
 20
5.6865
 30
0.0000
 42
1.0000
  0
VERTEX
  8
15
 10
5.7435
 20
5.7943
 30
0.0000
  0
VERTEX
  8
15
 10
5.6927
 20
5.8451
 30
0.0000
 42
1.0000
  0
SEQEND
  8
0
  0
POLYLINE
  8
15
 66
1
 10
0.0000
 20
0.0000
 30
0.0000
 40
0.0000
 41
0.0000
 70
1
  0
VERTEX
  8
15
 10
5.6896
 20
5.6642
 30
0.0000
  0
VERTEX
  8
15
 10
6.5917
 20
5.6642
 30
0.0000
 42
1.0000
  0
VERTEX
  8
15
 10
6.5917
 20
5.8166
 30
0.0000
  0
VERTEX
  8
15
 10
5.6896
 20
5.8166
 30
0.0000
 42
1.0000
  0
SEQEND
  8
0
  0
POLYLINE
  8
15
 66
1
 10
0.0000
 20
0.0000
 30
0.0000
 40
0.0000
 41
0.0000
 70
1
  0
VERTEX
  8
15
 10
6.5406
 20
5.6839
 30
0.0000
  0
VERTEX
  8
15
 10
6.9339
 20
5.3283
 30
0.0000
 42
1.0000
  0
VERTEX
  8
15
 10
7.0361
 20
5.4413
 30
0.0000
  0
VERTEX
  8
15
 10
6.6428
 20
5.7969
 30
0.0000
 42
1.0000
  0
SEQEND
  8
0
  0
POLYLINE
  8
1
 66
1
 10
0.0000
 20
0.0000
 30
0.0000
 40
0.0000
 41
0.0000
 70
1
  0
VERTEX
  8
1
 10
7.0389
 20
5.3309
 30
0.0000
  0
VERTEX
  8
1
 10
7.3951
 20
5.6871
 30
0.0000
 42
1.0000
  0
VERTEX
  8
1
 10
7.2873
 20
5.7949
 30
0.0000
  0
VERTEX
  8
1
 10
6.9311
 20
5.4387
 30
0.0000
 42
1.0000
  0
SEQEND
  8
0
  0
POLYLINE
  8
1
 66
1
 10
0.0000
 20
0.0000
 30
0.0000
 40
0.0000
 41
0.0000
 70
1
  0
VERTEX
  8
1
 10
7.3412
 20
5.6648
 30
0.0000
  0
VERTEX
  8
1
 10
7.3875
 20
5.6648
 30
0.0000
 42
1.0000
  0
VERTEX
  8
1
 10
7.3875
 20
5.8172
 30
0.0000
  0
VERTEX
  8
1
 10
7.3412
 20
5.8172
 30
0.0000
 42
1.0000
  0
SEQEND
  8
0
  0
POLYLINE
  8
1
 66
1
 10
0.0000
 20
0.0000
 30
0.0000
 40
0.0000
 41
0.0000
 70
1
  0
VERTEX
  8
1
 10
2.3876
 20
5.8547
 30
0.0000
  0
VERTEX
  8
1
 10
1.6891
 20
5.8547
 30
0.0000
 42
1.0000
  0
VERTEX
  8
1
 10
1.6891
 20
5.7023
 30
0.0000
  0
VERTEX
  8
1
 10
2.3876
 20
5.7023
 30
0.0000
 42
1.0000
  0
SEQEND
  8
0
  0
POLYLINE
  8
1
 66
1
 10
0.0000
 20
0.0000
 30
0.0000
 40
0.0000
 41
0.0000
 70
1
  0
VERTEX
  8
1
 10
1.6833
 20
5.8545
 30
0.0000
  0
VERTEX
  8
1
 10
1.5182
 20
5.8418
 30
0.0000
 42
1.0000
  0
VERTEX
  8
1
 10
1.5298
 20
5.6898
 30
0.0000
  0
VERTEX
  8
1
 10
1.6949
 20
5.7025
 30
0.0000
 42
1.0000
  0
SEQEND
  8
0
  0
INSERT
  8
18
  2
ROUNDV
 10
1.5240
 20
5.7658
 30
0.0000
 41
0.3048
 42
0.3048
 43
1.0000
 50
0.0000
  0
INSERT
  8
18
  2
ROUNDV
 10
1.5240
 20
5.7658
 30
0.0000
 41
0.3048
 42
0.3048
 43
1.0000
 50
0.0000
  0
INSERT
  8
18
  2
ROUNDV
 10
6.9850
 20
5.3848
 30
0.0000
 41
0.3048
 42
0.3048
 43
1.0000
 50
0.0000
  0
INSERT
  8
18
  2
ROUNDV
 10
6.9850
 20
5.3848
 30
0.0000
 41
0.3048
 42
0.3048
 43
1.0000
 50
0.0000
  0
POLYLINE
  8
15
 66
1
 10
0.0000
 20
0.0000
 30
0.0000
 40
0.0000
 41
0.0000
 70
1
  0
VERTEX
  8
15
 10
1.5240
 20
6.3246
 30
0.0000
  0
VERTEX
  8
15
 10
5.7658
 20
6.3246
 30
0.0000
 42
1.0000
  0
VERTEX
  8
15
 10
5.7658
 20
6.4770
 30
0.0000
  0
VERTEX
  8
15
 10
1.5240
 20
6.4770
 30
0.0000
 42
1.0000
  0
SEQEND
  8
0
  0
POLYLINE
  8
15
 66
1
 10
0.0000
 20
0.0000
 30
0.0000
 40
0.0000
 41
0.0000
 70
1
  0
VERTEX
  8
15
 10
5.8197
 20
6.3469
 30
0.0000
  0
VERTEX
  8
15
 10
5.8692
 20
6.3964
 30
0.0000
 42
1.0000
  0
VERTEX
  8
15
 10
5.7614
 20
6.5042
 30
0.0000
  0
VERTEX
  8
15
 10
5.7119
 20
6.4547
 30
0.0000
 42
1.0000
  0
SEQEND
  8
0
  0
POLYLINE
  8
15
 66
1
 10
0.0000
 20
0.0000
 30
0.0000
 40
0.0000
 41
0.0000
 70
1
  0
VERTEX
  8
15
 10
5.8153
 20
6.3741
 30
0.0000
  0
VERTEX
  8
15
 10
6.0236
 20
6.3741
 30
0.0000
 42
1.0000
  0
VERTEX
  8
15
 10
6.0236
 20
6.5265
 30
0.0000
  0
VERTEX
  8
15
 10
5.8153
 20
6.5265
 30
0.0000
 42
1.0000
  0
SEQEND
  8
0
  0
POLYLINE
  8
15
 66
1
 10
0.0000
 20
0.0000
 30
0.0000
 40
0.0000
 41
0.0000
 70
1
  0
VERTEX
  8
15
 10
6.0775
 20
6.3964
 30
0.0000
  0
VERTEX
  8
15
 10
6.0788
 20
6.3977
 30
0.0000
 42
1.0000
  0
VERTEX
  8
15
 10
5.9710
 20
6.5055
 30
0.0000
  0
VERTEX
  8
15
 10
5.9697
 20
6.5042
 30
0.0000
 42
1.0000
  0
SEQEND
  8
0
  0
POLYLINE
  8
15
 66
1
 10
0.0000
 20
0.0000
 30
0.0000
 40
0.0000
 41
0.0000
 70
1
  0
VERTEX
  8
15
 10
6.0249
 20
6.3754
 30
0.0000
  0
VERTEX
  8
15
 10
6.5913
 20
6.3754
 30
0.0000
 42
1.0000
  0
VERTEX
  8
15
 10
6.5913
 20
6.5278
 30
0.0000
  0
VERTEX
  8
15
 10
6.0249
 20
6.5278
 30
0.0000
 42
1.0000
  0
SEQEND
  8
0
  0
POLYLINE
  8
15
 66
1
 10
0.0000
 20
0.0000
 30
0.0000
 40
0.0000
 41
0.0000
 70
1
  0
VERTEX
  8
15
 10
6.9210
 20
6.0316
 30
0.0000
  0
VERTEX
  8
15
 10
6.9693
 20
6.0214
 30
0.0000
 42
1.0000
  0
VERTEX
  8
15
 10
7.0007
 20
6.1706
 30
0.0000
  0
VERTEX
  8
15
 10
6.9524
 20
6.1807
 30
0.0000
 42
1.0000
  0
SEQEND
  8
0
  0
POLYLINE
  8
15
 66
1
 10
0.0000
 20
0.0000
 30
0.0000
 40
0.0000
 41
0.0000
 70
1
  0
VERTEX
  8
15
 10
6.5374
 20
6.3977
 30
0.0000
  0
VERTEX
  8
15
 10
6.8829
 20
6.0523
 30
0.0000
 42
1.0000
  0
VERTEX
  8
15
 10
6.9906
 20
6.1600
 30
0.0000
  0
VERTEX
  8
15
 10
6.6452
 20
6.5055
 30
0.0000
 42
1.0000
  0
SEQEND
  8
0
  0
POLYLINE
  8
1
 66
1
 10
0.0000
 20
0.0000
 30
0.0000
 40
0.0000
 41
0.0000
 70
1
  0
VERTEX
  8
1
 10
7.0397
 20
6.0429
 30
0.0000
  0
VERTEX
  8
1
 10
7.3845
 20
6.3979
 30
0.0000
 42
1.0000
  0
VERTEX
  8
1
 10
7.2752
 20
6.5041
 30
0.0000
  0
VERTEX
  8
1
 10
6.9303
 20
6.1491
 30
0.0000
 42
1.0000
  0
SEQEND
  8
0
  0
POLYLINE
  8
1
 66
1
 10
0.0000
 20
0.0000
 30
0.0000
 40
0.0000
 41
0.0000
 70
1
  0
VERTEX
  8
1
 10
7.3298
 20
6.3748
 30
0.0000
  0
VERTEX
  8
1
 10
7.3875
 20
6.3748
 30
0.0000
 42
1.0000
  0
VERTEX
  8
1
 10
7.3875
 20
6.5272
 30
0.0000
  0
VERTEX
  8
1
 10
7.3298
 20
6.5272
 30
0.0000
 42
1.0000
  0
SEQEND
  8
0
  0
POLYLINE
  8
1
 66
1
 10
0.0000
 20
0.0000
 30
0.0000
 40
0.0000
 41
0.0000
 70
1
  0
VERTEX
  8
1
 10
2.3876
 20
6.4897
 30
0.0000
  0
VERTEX
  8
1
 10
1.6891
 20
6.4897
 30
0.0000
 42
1.0000
  0
VERTEX
  8
1
 10
1.6891
 20
6.3373
 30
0.0000
  0
VERTEX
  8
1
 10
2.3876
 20
6.3373
 30
0.0000
 42
1.0000
  0
SEQEND
  8
0
  0
POLYLINE
  8
1
 66
1
 10
0.0000
 20
0.0000
 30
0.0000
 40
0.0000
 41
0.0000
 70
1
  0
VERTEX
  8
1
 10
1.6833
 20
6.4895
 30
0.0000
  0
VERTEX
  8
1
 10
1.5182
 20
6.4768
 30
0.0000
 42
1.0000
  0
VERTEX
  8
1
 10
1.5298
 20
6.3248
 30
0.0000
  0
VERTEX
  8
1
 10
1.6949
 20
6.3375
 30
0.0000
 42
1.0000
  0
SEQEND
  8
0
  0
INSERT
  8
18
  2
ROUNDV
 10
1.5240
 20
6.4008
 30
0.0000
 41
0.3048
 42
0.3048
 43
1.0000
 50
0.0000
  0
INSERT
  8
18
  2
ROUNDV
 10
1.5240
 20
6.4008
 30
0.0000
 41
0.3048
 42
0.3048
 43
1.0000
 50
0.0000
  0
INSERT
  8
18
  2
ROUNDV
 10
6.9850
 20
6.0960
 30
0.0000
 41
0.3048
 42
0.3048
 43
1.0000
 50
0.0000
  0
INSERT
  8
18
  2
ROUNDV
 10
6.9850
 20
6.0960
 30
0.0000
 41
0.3048
 42
0.3048
 43
1.0000
 50
0.0000
  0
POLYLINE
  8
15
 66
1
 10
0.0000
 20
0.0000
 30
0.0000
 40
0.0000
 41
0.0000
 70
1
  0
VERTEX
  8
15
 10
1.5240
 20
6.9596
 30
0.0000
  0
VERTEX
  8
15
 10
5.6388
 20
6.9596
 30
0.0000
 42
1.0000
  0
VERTEX
  8
15
 10
5.6388
 20
7.1120
 30
0.0000
  0
VERTEX
  8
15
 10
1.5240
 20
7.1120
 30
0.0000
 42
1.0000
  0
SEQEND
  8
0
  0
POLYLINE
  8
15
 66
1
 10
0.0000
 20
0.0000
 30
0.0000
 40
0.0000
 41
0.0000
 70
1
  0
VERTEX
  8
15
 10
5.7658
 20
7.0866
 30
0.0000
  0
VERTEX
  8
15
 10
6.6015
 20
7.0866
 30
0.0000
 42
1.0000
  0
VERTEX
  8
15
 10
6.6015
 20
7.2390
 30
0.0000
  0
VERTEX
  8
15
 10
5.7658
 20
7.2390
 30
0.0000
 42
1.0000
  0
SEQEND
  8
0
  0
POLYLINE
  8
15
 66
1
 10
0.0000
 20
0.0000
 30
0.0000
 40
0.0000
 41
0.0000
 70
1
  0
VERTEX
  8
15
 10
6.5497
 20
7.1069
 30
0.0000
  0
VERTEX
  8
15
 10
6.9332
 20
6.7513
 30
0.0000
 42
1.0000
  0
VERTEX
  8
15
 10
7.0368
 20
6.8631
 30
0.0000
  0
VERTEX
  8
15
 10
6.6533
 20
7.2187
 30
0.0000
 42
1.0000
  0
SEQEND
  8
0
  0
POLYLINE
  8
15
 66
1
 10
0.0000
 20
0.0000
 30
0.0000
 40
0.0000
 41
0.0000
 70
1
  0
VERTEX
  8
15
 10
5.6927
 20
6.9819
 30
0.0000
  0
VERTEX
  8
15
 10
5.8197
 20
7.1089
 30
0.0000
 42
1.0000
  0
VERTEX
  8
15
 10
5.7119
 20
7.2167
 30
0.0000
  0
VERTEX
  8
15
 10
5.5849
 20
7.0897
 30
0.0000
 42
1.0000
  0
SEQEND
  8
0
  0
POLYLINE
  8
1
 66
1
 10
0.0000
 20
0.0000
 30
0.0000
 40
0.0000
 41
0.0000
 70
1
  0
VERTEX
  8
1
 10
6.9596
 20
6.7353
 30
0.0000
  0
VERTEX
  8
1
 10
6.9956
 20
6.7226
 30
0.0000
 42
1.0000
  0
VERTEX
  8
1
 10
7.0464
 20
6.8664
 30
0.0000
  0
VERTEX
  8
1
 10
7.0104
 20
6.8791
 30
0.0000
 42
1.0000
  0
SEQEND
  8
0
  0
POLYLINE
  8
1
 66
1
 10
0.0000
 20
0.0000
 30
0.0000
 40
0.0000
 41
0.0000
 70
1
  0
VERTEX
  8
1
 10
7.0749
 20
6.7406
 30
0.0000
  0
VERTEX
  8
1
 10
7.4414
 20
7.1071
 30
0.0000
 42
1.0000
  0
VERTEX
  8
1
 10
7.3336
 20
7.2149
 30
0.0000
  0
VERTEX
  8
1
 10
6.9671
 20
6.8484
 30
0.0000
 42
1.0000
  0
SEQEND
  8
0
  0
POLYLINE
  8
1
 66
1
 10
0.0000
 20
0.0000
 30
0.0000
 40
0.0000
 41
0.0000
 70
1
  0
VERTEX
  8
1
 10
2.3876
 20
7.1247
 30
0.0000
  0
VERTEX
  8
1
 10
1.6891
 20
7.1247
 30
0.0000
 42
1.0000
  0
VERTEX
  8
1
 10
1.6891
 20
6.9723
 30
0.0000
  0
VERTEX
  8
1
 10
2.3876
 20
6.9723
 30
0.0000
 42
1.0000
  0
SEQEND
  8
0
  0
POLYLINE
  8
1
 66
1
 10
0.0000
 20
0.0000
 30
0.0000
 40
0.0000
 41
0.0000
 70
1
  0
VERTEX
  8
1
 10
1.6833
 20
7.1245
 30
0.0000
  0
VERTEX
  8
1
 10
1.5182
 20
7.1118
 30
0.0000
 42
1.0000
  0
VERTEX
  8
1
 10
1.5298
 20
6.9598
 30
0.0000
  0
VERTEX
  8
1
 10
1.6949
 20
6.9725
 30
0.0000
 42
1.0000
  0
SEQEND
  8
0
  0
INSERT
  8
18
  2
ROUNDV
 10
1.5240
 20
7.0358
 30
0.0000
 41
0.3048
 42
0.3048
 43
1.0000
 50
0.0000
  0
INSERT
  8
18
  2
ROUNDV
 10
1.5240
 20
7.0358
 30
0.0000
 41
0.3048
 42
0.3048
 43
1.0000
 50
0.0000
  0
INSERT
  8
18
  2
ROUNDV
 10
6.9850
 20
6.8072
 30
0.0000
 41
0.3048
 42
0.3048
 43
1.0000
 50
0.0000
  0
INSERT
  8
18
  2
ROUNDV
 10
6.9850
 20
6.8072
 30
0.0000
 41
0.3048
 42
0.3048
 43
1.0000
 50
0.0000
  0
POLYLINE
  8
15
 66
1
 10
0.0000
 20
0.0000
 30
0.0000
 40
0.0000
 41
0.0000
 70
1
  0
VERTEX
  8
15
 10
1.5240
 20
7.5946
 30
0.0000
  0
VERTEX
  8
15
 10
3.5052
 20
7.5946
 30
0.0000
 42
1.0000
  0
VERTEX
  8
15
 10
3.5052
 20
7.7470
 30
0.0000
  0
VERTEX
  8
15
 10
1.5240
 20
7.7470
 30
0.0000
 42
1.0000
  0
SEQEND
  8
0
  0
POLYLINE
  8
15
 66
1
 10
0.0000
 20
0.0000
 30
0.0000
 40
0.0000
 41
0.0000
 70
1
  0
VERTEX
  8
15
 10
3.4513
 20
7.6169
 30
0.0000
  0
VERTEX
  8
15
 10
3.5021
 20
7.5661
 30
0.0000
 42
1.0000
  0
VERTEX
  8
15
 10
3.6099
 20
7.6739
 30
0.0000
  0
VERTEX
  8
15
 10
3.5591
 20
7.7247
 30
0.0000
 42
1.0000
  0
SEQEND
  8
0
  0
POLYLINE
  8
15
 66
1
 10
0.0000
 20
0.0000
 30
0.0000
 40
0.0000
 41
0.0000
 70
1
  0
VERTEX
  8
15
 10
3.5560
 20
7.5438
 30
0.0000
  0
VERTEX
  8
15
 10
3.9370
 20
7.5438
 30
0.0000
 42
1.0000
  0
VERTEX
  8
15
 10
3.9370
 20
7.6962
 30
0.0000
  0
VERTEX
  8
15
 10
3.5560
 20
7.6962
 30
0.0000
 42
1.0000
  0
SEQEND
  8
0
  0
POLYLINE
  8
15
 66
1
 10
0.0000
 20
0.0000
 30
0.0000
 40
0.0000
 41
0.0000
 70
1
  0
VERTEX
  8
15
 10
3.9909
 20
7.5661
 30
0.0000
  0
VERTEX
  8
15
 10
4.1179
 20
7.6931
 30
0.0000
 42
1.0000
  0
VERTEX
  8
15
 10
4.0101
 20
7.8009
 30
0.0000
  0
VERTEX
  8
15
 10
3.8831
 20
7.6739
 30
0.0000
 42
1.0000
  0
SEQEND
  8
0
  0
POLYLINE
  8
15
 66
1
 10
0.0000
 20
0.0000
 30
0.0000
 40
0.0000
 41
0.0000
 70
1
  0
VERTEX
  8
15
 10
5.6419
 20
7.6931
 30
0.0000
  0
VERTEX
  8
15
 10
5.7689
 20
7.8201
 30
0.0000
 42
1.0000
  0
VERTEX
  8
15
 10
5.6611
 20
7.9279
 30
0.0000
  0
VERTEX
  8
15
 10
5.5341
 20
7.8009
 30
0.0000
 42
1.0000
  0
SEQEND
  8
0
  0
POLYLINE
  8
15
 66
1
 10
0.0000
 20
0.0000
 30
0.0000
 40
0.0000
 41
0.0000
 70
1
  0
VERTEX
  8
15
 10
4.0640
 20
7.6708
 30
0.0000
  0
VERTEX
  8
15
 10
5.5880
 20
7.6708
 30
0.0000
 42
1.0000
  0
VERTEX
  8
15
 10
5.5880
 20
7.8232
 30
0.0000
  0
VERTEX
  8
15
 10
4.0640
 20
7.8232
 30
0.0000
 42
1.0000
  0
SEQEND
  8
0
  0
POLYLINE
  8
15
 66
1
 10
0.0000
 20
0.0000
 30
0.0000
 40
0.0000
 41
0.0000
 70
1
  0
VERTEX
  8
15
 10
5.7150
 20
7.7978
 30
0.0000
  0
VERTEX
  8
15
 10
6.6091
 20
7.7978
 30
0.0000
 42
1.0000
  0
VERTEX
  8
15
 10
6.6091
 20
7.9502
 30
0.0000
  0
VERTEX
  8
15
 10
5.7150
 20
7.9502
 30
0.0000
 42
1.0000
  0
SEQEND
  8
0
  0
POLYLINE
  8
15
 66
1
 10
0.0000
 20
0.0000
 30
0.0000
 40
0.0000
 41
0.0000
 70
1
  0
VERTEX
  8
15
 10
6.5567
 20
7.8186
 30
0.0000
  0
VERTEX
  8
15
 10
6.9326
 20
7.4630
 30
0.0000
 42
1.0000
  0
VERTEX
  8
15
 10
7.0374
 20
7.5738
 30
0.0000
  0
VERTEX
  8
15
 10
6.6614
 20
7.9294
 30
0.0000
 42
1.0000
  0
SEQEND
  8
0
  0
POLYLINE
  8
1
 66
1
 10
0.0000
 20
0.0000
 30
0.0000
 40
0.0000
 41
0.0000
 70
1
  0
VERTEX
  8
1
 10
7.0024
 20
7.4442
 30
0.0000
  0
VERTEX
  8
1
 10
7.0675
 20
7.4594
 30
0.0000
 42
1.0000
  0
VERTEX
  8
1
 10
7.0328
 20
7.6078
 30
0.0000
  0
VERTEX
  8
1
 10
6.9676
 20
7.5926
 30
0.0000
 42
1.0000
  0
SEQEND
  8
0
  0
POLYLINE
  8
1
 66
1
 10
0.0000
 20
0.0000
 30
0.0000
 40
0.0000
 41
0.0000
 70
1
  0
VERTEX
  8
1
 10
7.1040
 20
7.4798
 30
0.0000
  0
VERTEX
  8
1
 10
7.4414
 20
7.8171
 30
0.0000
 42
1.0000
  0
VERTEX
  8
1
 10
7.3336
 20
7.9249
 30
0.0000
  0
VERTEX
  8
1
 10
6.9963
 20
7.5875
 30
0.0000
 42
1.0000
  0
SEQEND
  8
0
  0
POLYLINE
  8
1
 66
1
 10
0.0000
 20
0.0000
 30
0.0000
 40
0.0000
 41
0.0000
 70
1
  0
VERTEX
  8
1
 10
2.3876
 20
7.7597
 30
0.0000
  0
VERTEX
  8
1
 10
1.6891
 20
7.7597
 30
0.0000
 42
1.0000
  0
VERTEX
  8
1
 10
1.6891
 20
7.6073
 30
0.0000
  0
VERTEX
  8
1
 10
2.3876
 20
7.6073
 30
0.0000
 42
1.0000
  0
SEQEND
  8
0
  0
POLYLINE
  8
1
 66
1
 10
0.0000
 20
0.0000
 30
0.0000
 40
0.0000
 41
0.0000
 70
1
  0
VERTEX
  8
1
 10
1.6833
 20
7.7595
 30
0.0000
  0
VERTEX
  8
1
 10
1.5182
 20
7.7468
 30
0.0000
 42
1.0000
  0
VERTEX
  8
1
 10
1.5298
 20
7.5948
 30
0.0000
  0
VERTEX
  8
1
 10
1.6949
 20
7.6075
 30
0.0000
 42
1.0000
  0
SEQEND
  8
0
  0
INSERT
  8
18
  2
ROUNDV
 10
1.5240
 20
7.6708
 30
0.0000
 41
0.3048
 42
0.3048
 43
1.0000
 50
0.0000
  0
INSERT
  8
18
  2
ROUNDV
 10
1.5240
 20
7.6708
 30
0.0000
 41
0.3048
 42
0.3048
 43
1.0000
 50
0.0000
  0
INSERT
  8
18
  2
ROUNDV
 10
6.9850
 20
7.5184
 30
0.0000
 41
0.3048
 42
0.3048
 43
1.0000
 50
0.0000
  0
INSERT
  8
18
  2
ROUNDV
 10
6.9850
 20
7.5184
 30
0.0000
 41
0.3048
 42
0.3048
 43
1.0000
 50
0.0000
  0
POLYLINE
  8
1
 66
1
 10
0.0000
 20
0.0000
 30
0.0000
 40
0.0000
 41
0.0000
 70
1
  0
VERTEX
  8
1
 10
2.3876
 20
8.3947
 30
0.0000
  0
VERTEX
  8
1
 10
1.7145
 20
8.3947
 30
0.0000
 42
1.0000
  0
VERTEX
  8
1
 10
1.7145
 20
8.2423
 30
0.0000
  0
VERTEX
  8
1
 10
2.3876
 20
8.2423
 30
0.0000
 42
1.0000
  0
SEQEND
  8
0
  0
POLYLINE
  8
1
 66
1
 10
0.0000
 20
0.0000
 30
0.0000
 40
0.0000
 41
0.0000
 70
1
  0
VERTEX
  8
1
 10
1.7094
 20
8.3945
 30
0.0000
  0
VERTEX
  8
1
 10
1.5189
 20
8.3818
 30
0.0000
 42
1.0000
  0
VERTEX
  8
1
 10
1.5291
 20
8.2298
 30
0.0000
  0
VERTEX
  8
1
 10
1.7196
 20
8.2425
 30
0.0000
 42
1.0000
  0
SEQEND
  8
0
  0
POLYLINE
  8
15
 66
1
 10
0.0000
 20
0.0000
 30
0.0000
 40
0.0000
 41
0.0000
 70
1
  0
VERTEX
  8
15
 10
1.5260
 20
8.2296
 30
0.0000
  0
VERTEX
  8
15
 10
4.4470
 20
8.3058
 30
0.0000
 42
1.0000
  0
VERTEX
  8
15
 10
4.4430
 20
8.4582
 30
0.0000
  0
VERTEX
  8
15
 10
1.5220
 20
8.3820
 30
0.0000
 42
1.0000
  0
SEQEND
  8
0
  0
POLYLINE
  8
15
 66
1
 10
0.0000
 20
0.0000
 30
0.0000
 40
0.0000
 41
0.0000
 70
1
  0
VERTEX
  8
15
 10
4.3911
 20
8.3281
 30
0.0000
  0
VERTEX
  8
15
 10
4.6451
 20
8.0741
 30
0.0000
 42
1.0000
  0
VERTEX
  8
15
 10
4.7529
 20
8.1819
 30
0.0000
  0
VERTEX
  8
15
 10
4.4989
 20
8.4359
 30
0.0000
 42
1.0000
  0
SEQEND
  8
0
  0
POLYLINE
  8
15
 66
1
 10
0.0000
 20
0.0000
 30
0.0000
 40
0.0000
 41
0.0000
 70
1
  0
VERTEX
  8
15
 10
4.6990
 20
8.0518
 30
0.0000
  0
VERTEX
  8
15
 10
5.4610
 20
8.0518
 30
0.0000
 42
1.0000
  0
VERTEX
  8
15
 10
5.4610
 20
8.2042
 30
0.0000
  0
VERTEX
  8
15
 10
4.6990
 20
8.2042
 30
0.0000
 42
1.0000
  0
SEQEND
  8
0
  0
POLYLINE
  8
15
 66
1
 10
0.0000
 20
0.0000
 30
0.0000
 40
0.0000
 41
0.0000
 70
1
  0
VERTEX
  8
15
 10
5.9436
 20
8.5344
 30
0.0000
  0
VERTEX
  8
15
 10
6.6243
 20
8.5344
 30
0.0000
 42
1.0000
  0
VERTEX
  8
15
 10
6.6243
 20
8.6868
 30
0.0000
  0
VERTEX
  8
15
 10
5.9436
 20
8.6868
 30
0.0000
 42
1.0000
  0
SEQEND
  8
0
  0
POLYLINE
  8
15
 66
1
 10
0.0000
 20
0.0000
 30
0.0000
 40
0.0000
 41
0.0000
 70
1
  0
VERTEX
  8
15
 10
6.5704
 20
8.5567
 30
0.0000
  0
VERTEX
  8
15
 10
6.8993
 20
8.2279
 30
0.0000
 42
1.0000
  0
VERTEX
  8
15
 10
7.0071
 20
8.3356
 30
0.0000
  0
VERTEX
  8
15
 10
6.6782
 20
8.6645
 30
0.0000
 42
1.0000
  0
SEQEND
  8
0
  0
POLYLINE
  8
15
 66
1
 10
0.0000
 20
0.0000
 30
0.0000
 40
0.0000
 41
0.0000
 70
1
  0
VERTEX
  8
15
 10
6.9042
 20
8.2234
 30
0.0000
  0
VERTEX
  8
15
 10
6.9360
 20
8.1967
 30
0.0000
 42
1.0000
  0
VERTEX
  8
15
 10
7.0340
 20
8.3133
 30
0.0000
  0
VERTEX
  8
15
 10
7.0022
 20
8.3401
 30
0.0000
 42
1.0000
  0
SEQEND
  8
0
  0
POLYLINE
  8
15
 66
1
 10
0.0000
 20
0.0000
 30
0.0000
 40
0.0000
 41
0.0000
 70
1
  0
VERTEX
  8
15
 10
5.5149
 20
8.0741
 30
0.0000
  0
VERTEX
  8
15
 10
5.9975
 20
8.5567
 30
0.0000
 42
1.0000
  0
VERTEX
  8
15
 10
5.8897
 20
8.6645
 30
0.0000
  0
VERTEX
  8
15
 10
5.4071
 20
8.1819
 30
0.0000
 42
1.0000
  0
SEQEND
  8
0
  0
POLYLINE
  8
1
 66
1
 10
0.0000
 20
0.0000
 30
0.0000
 40
0.0000
 41
0.0000
 70
1
  0
VERTEX
  8
1
 10
6.9967
 20
8.1797
 30
0.0000
  0
VERTEX
  8
1
 10
7.0872
 20
8.1937
 30
0.0000
 42
1.0000
  0
VERTEX
  8
1
 10
7.0639
 20
8.3443
 30
0.0000
  0
VERTEX
  8
1
 10
6.9733
 20
8.3303
 30
0.0000
 42
1.0000
  0
SEQEND
  8
0
  0
POLYLINE
  8
1
 66
1
 10
0.0000
 20
0.0000
 30
0.0000
 40
0.0000
 41
0.0000
 70
1
  0
VERTEX
  8
1
 10
7.1294
 20
8.2152
 30
0.0000
  0
VERTEX
  8
1
 10
7.4414
 20
8.5271
 30
0.0000
 42
1.0000
  0
VERTEX
  8
1
 10
7.3336
 20
8.6349
 30
0.0000
  0
VERTEX
  8
1
 10
7.0217
 20
8.3229
 30
0.0000
 42
1.0000
  0
SEQEND
  8
0
  0
INSERT
  8
18
  2
ROUNDV
 10
1.5240
 20
8.3058
 30
0.0000
 41
0.3048
 42
0.3048
 43
1.0000
 50
0.0000
  0
INSERT
  8
18
  2
ROUNDV
 10
1.5240
 20
8.3058
 30
0.0000
 41
0.3048
 42
0.3048
 43
1.0000
 50
0.0000
  0
INSERT
  8
18
  2
ROUNDV
 10
6.9850
 20
8.2550
 30
0.0000
 41
0.3048
 42
0.3048
 43
1.0000
 50
0.0000
  0
INSERT
  8
18
  2
ROUNDV
 10
6.9850
 20
8.2550
 30
0.0000
 41
0.3048
 42
0.3048
 43
1.0000
 50
0.0000
  0
POLYLINE
  8
1
 66
1
 10
0.0000
 20
0.0000
 30
0.0000
 40
0.0000
 41
0.0000
 70
1
  0
VERTEX
  8
1
 10
2.3337
 20
1.3874
 30
0.0000
  0
VERTEX
  8
1
 10
2.2702
 20
1.3239
 30
0.0000
 42
1.0000
  0
VERTEX
  8
1
 10
2.3780
 20
1.2161
 30
0.0000
  0
VERTEX
  8
1
 10
2.4415
 20
1.2796
 30
0.0000
 42
1.0000
  0
SEQEND
  8
0
  0
POLYLINE
  8
1
 66
1
 10
0.0000
 20
0.0000
 30
0.0000
 40
0.0000
 41
0.0000
 70
1
  0
VERTEX
  8
1
 10
2.3289
 20
1.3460
 30
0.0000
  0
VERTEX
  8
1
 10
1.5288
 20
1.3968
 30
0.0000
 42
1.0000
  0
VERTEX
  8
1
 10
1.5192
 20
1.2448
 30
0.0000
  0
VERTEX
  8
1
 10
2.3193
 20
1.1940
 30
0.0000
 42
1.0000
  0
SEQEND
  8
0
  0
POLYLINE
  8
16
 66
1
 10
0.0000
 20
0.0000
 30
0.0000
 40
0.0000
 41
0.0000
 70
1
  0
VERTEX
  8
16
 10
1.5240
 20
1.2446
 30
0.0000
  0
VERTEX
  8
16
 10
3.5027
 20
1.2446
 30
0.0000
 42
1.0000
  0
VERTEX
  8
16
 10
3.5027
 20
1.3970
 30
0.0000
  0
VERTEX
  8
16
 10
1.5240
 20
1.3970
 30
0.0000
 42
1.0000
  0
SEQEND
  8
0
  0
POLYLINE
  8
16
 66
1
 10
0.0000
 20
0.0000
 30
0.0000
 40
0.0000
 41
0.0000
 70
1
  0
VERTEX
  8
16
 10
3.5565
 20
1.2669
 30
0.0000
  0
VERTEX
  8
16
 10
3.5692
 20
1.2796
 30
0.0000
 42
1.0000
  0
VERTEX
  8
16
 10
3.4615
 20
1.3874
 30
0.0000
  0
VERTEX
  8
16
 10
3.4488
 20
1.3747
 30
0.0000
 42
1.0000
  0
SEQEND
  8
0
  0
POLYLINE
  8
16
 66
1
 10
0.0000
 20
0.0000
 30
0.0000
 40
0.0000
 41
0.0000
 70
1
  0
VERTEX
  8
16
 10
3.5916
 20
1.3335
 30
0.0000
  0
VERTEX
  8
16
 10
3.5916
 20
3.6449
 30
0.0000
 42
1.0000
  0
VERTEX
  8
16
 10
3.4392
 20
3.6449
 30
0.0000
  0
VERTEX
  8
16
 10
3.4392
 20
1.3335
 30
0.0000
 42
1.0000
  0
SEQEND
  8
0
  0
POLYLINE
  8
16
 66
1
 10
0.0000
 20
0.0000
 30
0.0000
 40
0.0000
 41
0.0000
 70
1
  0
VERTEX
  8
16
 10
5.9329
 20
3.5910
 30
0.0000
  0
VERTEX
  8
16
 10
5.9710
 20
3.5529
 30
0.0000
 42
1.0000
  0
VERTEX
  8
16
 10
6.0788
 20
3.6607
 30
0.0000
  0
VERTEX
  8
16
 10
6.0407
 20
3.6988
 30
0.0000
 42
1.0000
  0
SEQEND
  8
0
  0
POLYLINE
  8
16
 66
1
 10
0.0000
 20
0.0000
 30
0.0000
 40
0.0000
 41
0.0000
 70
1
  0
VERTEX
  8
16
 10
6.0249
 20
3.5306
 30
0.0000
  0
VERTEX
  8
16
 10
7.3838
 20
3.5306
 30
0.0000
 42
1.0000
  0
VERTEX
  8
16
 10
7.3838
 20
3.6830
 30
0.0000
  0
VERTEX
  8
16
 10
6.0249
 20
3.6830
 30
0.0000
 42
1.0000
  0
SEQEND
  8
0
  0
POLYLINE
  8
16
 66
1
 10
0.0000
 20
0.0000
 30
0.0000
 40
0.0000
 41
0.0000
 70
1
  0
VERTEX
  8
16
 10
7.7517
 20
3.1703
 30
0.0000
  0
VERTEX
  8
16
 10
7.8050
 20
3.1753
 30
0.0000
 42
1.0000
  0
VERTEX
  8
16
 10
7.7906
 20
3.3271
 30
0.0000
  0
VERTEX
  8
16
 10
7.7372
 20
3.3220
 30
0.0000
 42
1.0000
  0
SEQEND
  8
0
  0
POLYLINE
  8
1
 66
1
 10
0.0000
 20
0.0000
 30
0.0000
 40
0.0000
 41
0.0000
 70
1
  0
VERTEX
  8
1
 10
7.8515
 20
3.1971
 30
0.0000
  0
VERTEX
  8
1
 10
8.2138
 20
3.5569
 30
0.0000
 42
1.0000
  0
VERTEX
  8
1
 10
8.1064
 20
3.6651
 30
0.0000
  0
VERTEX
  8
1
 10
7.7441
 20
3.3053
 30
0.0000
 42
1.0000
  0
SEQEND
  8
0
  0
POLYLINE
  8
1
 66
1
 10
0.0000
 20
0.0000
 30
0.0000
 40
0.0000
 41
0.0000
 70
1
  0
VERTEX
  8
1
 10
8.1601
 20
3.5348
 30
0.0000
  0
VERTEX
  8
1
 10
8.1925
 20
3.5348
 30
0.0000
 42
1.0000
  0
VERTEX
  8
1
 10
8.1925
 20
3.6872
 30
0.0000
  0
VERTEX
  8
1
 10
8.1601
 20
3.6872
 30
0.0000
 42
1.0000
  0
SEQEND
  8
0
  0
POLYLINE
  8
16
 66
1
 10
0.0000
 20
0.0000
 30
0.0000
 40
0.0000
 41
0.0000
 70
1
  0
VERTEX
  8
16
 10
3.5154
 20
3.5687
 30
0.0000
  0
VERTEX
  8
16
 10
5.9868
 20
3.5687
 30
0.0000
 42
1.0000
  0
VERTEX
  8
16
 10
5.9868
 20
3.7211
 30
0.0000
  0
VERTEX
  8
16
 10
3.5154
 20
3.7211
 30
0.0000
 42
1.0000
  0
SEQEND
  8
0
  0
POLYLINE
  8
16
 66
1
 10
0.0000
 20
0.0000
 30
0.0000
 40
0.0000
 41
0.0000
 70
1
  0
VERTEX
  8
16
 10
7.3299
 20
3.5529
 30
0.0000
  0
VERTEX
  8
16
 10
7.6906
 20
3.1922
 30
0.0000
 42
1.0000
  0
VERTEX
  8
16
 10
7.7983
 20
3.3000
 30
0.0000
  0
VERTEX
  8
16
 10
7.4377
 20
3.6607
 30
0.0000
 42
1.0000
  0
SEQEND
  8
0
  0
INSERT
  8
18
  2
ROUNDV
 10
1.5240
 20
1.3208
 30
0.0000
 41
0.3048
 42
0.3048
 43
1.0000
 50
0.0000
  0
INSERT
  8
18
  2
ROUNDV
 10
1.5240
 20
1.3208
 30
0.0000
 41
0.3048
 42
0.3048
 43
1.0000
 50
0.0000
  0
INSERT
  8
18
  2
ROUNDV
 10
7.7978
 20
3.2512
 30
0.0000
 41
0.3048
 42
0.3048
 43
1.0000
 50
0.0000
  0
INSERT
  8
18
  2
ROUNDV
 10
7.7978
 20
3.2512
 30
0.0000
 41
0.3048
 42
0.3048
 43
1.0000
 50
0.0000
  0
POLYLINE
  8
1
 66
1
 10
0.0000
 20
0.0000
 30
0.0000
 40
0.0000
 41
0.0000
 70
1
  0
VERTEX
  8
1
 10
2.3337
 20
9.0074
 30
0.0000
  0
VERTEX
  8
1
 10
2.3210
 20
8.9947
 30
0.0000
 42
1.0000
  0
VERTEX
  8
1
 10
2.4288
 20
8.8869
 30
0.0000
  0
VERTEX
  8
1
 10
2.4415
 20
8.8996
 30
0.0000
 42
1.0000
  0
SEQEND
  8
0
  0
POLYLINE
  8
1
 66
1
 10
0.0000
 20
0.0000
 30
0.0000
 40
0.0000
 41
0.0000
 70
1
  0
VERTEX
  8
1
 10
2.3749
 20
9.0170
 30
0.0000
  0
VERTEX
  8
1
 10
1.5240
 20
9.0170
 30
0.0000
 42
1.0000
  0
VERTEX
  8
1
 10
1.5240
 20
8.8646
 30
0.0000
  0
VERTEX
  8
1
 10
2.3749
 20
8.8646
 30
0.0000
 42
1.0000
  0
SEQEND
  8
0
  0
POLYLINE
  8
16
 66
1
 10
0.0000
 20
0.0000
 30
0.0000
 40
0.0000
 41
0.0000
 70
1
  0
VERTEX
  8
16
 10
1.5240
 20
8.8646
 30
0.0000
  0
VERTEX
  8
16
 10
2.5857
 20
8.8646
 30
0.0000
 42
1.0000
  0
VERTEX
  8
16
 10
2.5857
 20
9.0170
 30
0.0000
  0
VERTEX
  8
16
 10
1.5240
 20
9.0170
 30
0.0000
 42
1.0000
  0
SEQEND
  8
0
  0
POLYLINE
  8
16
 66
1
 10
0.0000
 20
0.0000
 30
0.0000
 40
0.0000
 41
0.0000
 70
1
  0
VERTEX
  8
16
 10
2.5857
 20
8.8646
 30
0.0000
  0
VERTEX
  8
16
 10
2.5857
 20
6.4110
 30
0.0000
 42
1.0000
  0
VERTEX
  8
16
 10
2.7381
 20
6.4110
 30
0.0000
  0
VERTEX
  8
16
 10
2.7381
 20
8.8646
 30
0.0000
 42
1.0000
  0
SEQEND
  8
0
  0
POLYLINE
  8
16
 66
1
 10
0.0000
 20
0.0000
 30
0.0000
 40
0.0000
 41
0.0000
 70
1
  0
VERTEX
  8
16
 10
6.3734
 20
6.3977
 30
0.0000
  0
VERTEX
  8
16
 10
6.3861
 20
6.4104
 30
0.0000
 42
1.0000
  0
VERTEX
  8
16
 10
6.2783
 20
6.5182
 30
0.0000
  0
VERTEX
  8
16
 10
6.2656
 20
6.5055
 30
0.0000
 42
1.0000
  0
SEQEND
  8
0
  0
POLYLINE
  8
16
 66
1
 10
0.0000
 20
0.0000
 30
0.0000
 40
0.0000
 41
0.0000
 70
1
  0
VERTEX
  8
16
 10
2.5318
 20
8.8869
 30
0.0000
  0
VERTEX
  8
16
 10
2.6080
 20
8.8107
 30
0.0000
 42
1.0000
  0
VERTEX
  8
16
 10
2.7158
 20
8.9185
 30
0.0000
  0
VERTEX
  8
16
 10
2.6396
 20
8.9947
 30
0.0000
 42
1.0000
  0
SEQEND
  8
0
  0
POLYLINE
  8
16
 66
1
 10
0.0000
 20
0.0000
 30
0.0000
 40
0.0000
 41
0.0000
 70
1
  0
VERTEX
  8
16
 10
6.7711
 20
6.4104
 30
0.0000
  0
VERTEX
  8
16
 10
6.7838
 20
6.3977
 30
0.0000
 42
1.0000
  0
VERTEX
  8
16
 10
6.8916
 20
6.5055
 30
0.0000
  0
VERTEX
  8
16
 10
6.8789
 20
6.5182
 30
0.0000
 42
1.0000
  0
SEQEND
  8
0
  0
POLYLINE
  8
16
 66
1
 10
0.0000
 20
0.0000
 30
0.0000
 40
0.0000
 41
0.0000
 70
1
  0
VERTEX
  8
16
 10
6.8377
 20
6.3754
 30
0.0000
  0
VERTEX
  8
16
 10
7.3914
 20
6.3754
 30
0.0000
 42
1.0000
  0
VERTEX
  8
16
 10
7.3914
 20
6.5278
 30
0.0000
  0
VERTEX
  8
16
 10
6.8377
 20
6.5278
 30
0.0000
 42
1.0000
  0
SEQEND
  8
0
  0
POLYLINE
  8
16
 66
1
 10
0.0000
 20
0.0000
 30
0.0000
 40
0.0000
 41
0.0000
 70
1
  0
VERTEX
  8
16
 10
7.4453
 20
6.3977
 30
0.0000
  0
VERTEX
  8
16
 10
7.4681
 20
6.4206
 30
0.0000
 42
1.0000
  0
VERTEX
  8
16
 10
7.3604
 20
6.5283
 30
0.0000
  0
VERTEX
  8
16
 10
7.3375
 20
6.5055
 30
0.0000
 42
1.0000
  0
SEQEND
  8
0
  0
POLYLINE
  8
16
 66
1
 10
0.0000
 20
0.0000
 30
0.0000
 40
0.0000
 41
0.0000
 70
1
  0
VERTEX
  8
16
 10
7.4143
 20
6.3983
 30
0.0000
  0
VERTEX
  8
16
 10
7.4143
 20
6.3983
 30
0.0000
 42
1.0000
  0
VERTEX
  8
16
 10
7.4143
 20
6.5507
 30
0.0000
  0
VERTEX
  8
16
 10
7.4143
 20
6.5507
 30
0.0000
 42
1.0000
  0
SEQEND
  8
0
  0
POLYLINE
  8
16
 66
1
 10
0.0000
 20
0.0000
 30
0.0000
 40
0.0000
 41
0.0000
 70
1
  0
VERTEX
  8
16
 10
7.3607
 20
6.4202
 30
0.0000
  0
VERTEX
  8
16
 10
7.7443
 20
6.0418
 30
0.0000
 42
1.0000
  0
VERTEX
  8
16
 10
7.8513
 20
6.1502
 30
0.0000
  0
VERTEX
  8
16
 10
7.4678
 20
6.5287
 30
0.0000
 42
1.0000
  0
SEQEND
  8
0
  0
POLYLINE
  8
16
 66
1
 10
0.0000
 20
0.0000
 30
0.0000
 40
0.0000
 41
0.0000
 70
1
  0
VERTEX
  8
16
 10
6.3322
 20
6.3881
 30
0.0000
  0
VERTEX
  8
16
 10
6.8250
 20
6.3881
 30
0.0000
 42
1.0000
  0
VERTEX
  8
16
 10
6.8250
 20
6.5405
 30
0.0000
  0
VERTEX
  8
16
 10
6.3322
 20
6.5405
 30
0.0000
 42
1.0000
  0
SEQEND
  8
0
  0
POLYLINE
  8
1
 66
1
 10
0.0000
 20
0.0000
 30
0.0000
 40
0.0000
 41
0.0000
 70
1
  0
VERTEX
  8
1
 10
7.8517
 20
6.0421
 30
0.0000
  0
VERTEX
  8
1
 10
8.2067
 20
6.3971
 30
0.0000
 42
1.0000
  0
VERTEX
  8
1
 10
8.0989
 20
6.5049
 30
0.0000
  0
VERTEX
  8
1
 10
7.7439
 20
6.1499
 30
0.0000
 42
1.0000
  0
SEQEND
  8
0
  0
POLYLINE
  8
1
 66
1
 10
0.0000
 20
0.0000
 30
0.0000
 40
0.0000
 41
0.0000
 70
1
  0
VERTEX
  8
1
 10
8.1528
 20
6.3748
 30
0.0000
  0
VERTEX
  8
1
 10
8.1925
 20
6.3748
 30
0.0000
 42
1.0000
  0
VERTEX
  8
1
 10
8.1925
 20
6.5272
 30
0.0000
  0
VERTEX
  8
1
 10
8.1528
 20
6.5272
 30
0.0000
 42
1.0000
  0
SEQEND
  8
0
  0
POLYLINE
  8
16
 66
1
 10
0.0000
 20
0.0000
 30
0.0000
 40
0.0000
 41
0.0000
 70
1
  0
VERTEX
  8
16
 10
2.6619
 20
6.3348
 30
0.0000
  0
VERTEX
  8
16
 10
5.9843
 20
6.3348
 30
0.0000
 42
1.0000
  0
VERTEX
  8
16
 10
5.9843
 20
6.4872
 30
0.0000
  0
VERTEX
  8
16
 10
2.6619
 20
6.4872
 30
0.0000
 42
1.0000
  0
SEQEND
  8
0
  0
POLYLINE
  8
16
 66
1
 10
0.0000
 20
0.0000
 30
0.0000
 40
0.0000
 41
0.0000
 70
1
  0
VERTEX
  8
16
 10
6.0381
 20
6.3571
 30
0.0000
  0
VERTEX
  8
16
 10
6.0788
 20
6.3977
 30
0.0000
 42
1.0000
  0
VERTEX
  8
16
 10
5.9710
 20
6.5055
 30
0.0000
  0
VERTEX
  8
16
 10
5.9304
 20
6.4648
 30
0.0000
 42
1.0000
  0
SEQEND
  8
0
  0
POLYLINE
  8
16
 66
1
 10
0.0000
 20
0.0000
 30
0.0000
 40
0.0000
 41
0.0000
 70
1
  0
VERTEX
  8
16
 10
6.0249
 20
6.3754
 30
0.0000
  0
VERTEX
  8
16
 10
6.3195
 20
6.3754
 30
0.0000
 42
1.0000
  0
VERTEX
  8
16
 10
6.3195
 20
6.5278
 30
0.0000
  0
VERTEX
  8
16
 10
6.0249
 20
6.5278
 30
0.0000
 42
1.0000
  0
SEQEND
  8
0
  0
INSERT
  8
18
  2
ROUNDV
 10
1.5240
 20
8.9408
 30
0.0000
 41
0.3048
 42
0.3048
 43
1.0000
 50
0.0000
  0
INSERT
  8
18
  2
ROUNDV
 10
1.5240
 20
8.9408
 30
0.0000
 41
0.3048
 42
0.3048
 43
1.0000
 50
0.0000
  0
INSERT
  8
18
  2
ROUNDV
 10
7.7978
 20
6.0960
 30
0.0000
 41
0.3048
 42
0.3048
 43
1.0000
 50
0.0000
  0
INSERT
  8
18
  2
ROUNDV
 10
7.7978
 20
6.0960
 30
0.0000
 41
0.3048
 42
0.3048
 43
1.0000
 50
0.0000
  0
POLYLINE
  8
1
 66
1
 10
0.0000
 20
0.0000
 30
0.0000
 40
0.0000
 41
0.0000
 70
1
  0
VERTEX
  8
1
 10
2.3337
 20
9.6424
 30
0.0000
  0
VERTEX
  8
1
 10
2.3210
 20
9.6297
 30
0.0000
 42
1.0000
  0
VERTEX
  8
1
 10
2.4288
 20
9.5219
 30
0.0000
  0
VERTEX
  8
1
 10
2.4415
 20
9.5346
 30
0.0000
 42
1.0000
  0
SEQEND
  8
0
  0
POLYLINE
  8
1
 66
1
 10
0.0000
 20
0.0000
 30
0.0000
 40
0.0000
 41
0.0000
 70
1
  0
VERTEX
  8
1
 10
2.3749
 20
9.6520
 30
0.0000
  0
VERTEX
  8
1
 10
1.5240
 20
9.6520
 30
0.0000
 42
1.0000
  0
VERTEX
  8
1
 10
1.5240
 20
9.4996
 30
0.0000
  0
VERTEX
  8
1
 10
2.3749
 20
9.4996
 30
0.0000
 42
1.0000
  0
SEQEND
  8
0
  0
POLYLINE
  8
16
 66
1
 10
0.0000
 20
0.0000
 30
0.0000
 40
0.0000
 41
0.0000
 70
1
  0
VERTEX
  8
16
 10
1.5240
 20
9.4996
 30
0.0000
  0
VERTEX
  8
16
 10
2.8118
 20
9.4996
 30
0.0000
 42
1.0000
  0
VERTEX
  8
16
 10
2.8118
 20
9.6520
 30
0.0000
  0
VERTEX
  8
16
 10
1.5240
 20
9.6520
 30
0.0000
 42
1.0000
  0
SEQEND
  8
0
  0
POLYLINE
  8
16
 66
1
 10
0.0000
 20
0.0000
 30
0.0000
 40
0.0000
 41
0.0000
 70
1
  0
VERTEX
  8
16
 10
2.9083
 20
9.4031
 30
0.0000
  0
VERTEX
  8
16
 10
2.9083
 20
7.0282
 30
0.0000
 42
1.0000
  0
VERTEX
  8
16
 10
3.0607
 20
7.0282
 30
0.0000
  0
VERTEX
  8
16
 10
3.0607
 20
9.4031
 30
0.0000
 42
1.0000
  0
SEQEND
  8
0
  0
POLYLINE
  8
16
 66
1
 10
0.0000
 20
0.0000
 30
0.0000
 40
0.0000
 41
0.0000
 70
1
  0
VERTEX
  8
16
 10
5.6470
 20
6.9743
 30
0.0000
  0
VERTEX
  8
16
 10
5.7867
 20
7.1140
 30
0.0000
 42
1.0000
  0
VERTEX
  8
16
 10
5.6789
 20
7.2218
 30
0.0000
  0
VERTEX
  8
16
 10
5.5392
 20
7.0821
 30
0.0000
 42
1.0000
  0
SEQEND
  8
0
  0
POLYLINE
  8
16
 66
1
 10
0.0000
 20
0.0000
 30
0.0000
 40
0.0000
 41
0.0000
 70
1
  0
VERTEX
  8
16
 10
5.7328
 20
7.0917
 30
0.0000
  0
VERTEX
  8
16
 10
6.0198
 20
7.0917
 30
0.0000
 42
1.0000
  0
VERTEX
  8
16
 10
6.0198
 20
7.2441
 30
0.0000
  0
VERTEX
  8
16
 10
5.7328
 20
7.2441
 30
0.0000
 42
1.0000
  0
SEQEND
  8
0
  0
POLYLINE
  8
16
 66
1
 10
0.0000
 20
0.0000
 30
0.0000
 40
0.0000
 41
0.0000
 70
1
  0
VERTEX
  8
16
 10
5.9659
 20
7.1140
 30
0.0000
  0
VERTEX
  8
16
 10
5.9710
 20
7.1089
 30
0.0000
 42
1.0000
  0
VERTEX
  8
16
 10
6.0788
 20
7.2167
 30
0.0000
  0
VERTEX
  8
16
 10
6.0737
 20
7.2218
 30
0.0000
 42
1.0000
  0
SEQEND
  8
0
  0
POLYLINE
  8
16
 66
1
 10
0.0000
 20
0.0000
 30
0.0000
 40
0.0000
 41
0.0000
 70
1
  0
VERTEX
  8
16
 10
6.0249
 20
7.0866
 30
0.0000
  0
VERTEX
  8
16
 10
7.4092
 20
7.0866
 30
0.0000
 42
1.0000
  0
VERTEX
  8
16
 10
7.4092
 20
7.2390
 30
0.0000
  0
VERTEX
  8
16
 10
6.0249
 20
7.2390
 30
0.0000
 42
1.0000
  0
SEQEND
  8
0
  0
POLYLINE
  8
16
 66
1
 10
0.0000
 20
0.0000
 30
0.0000
 40
0.0000
 41
0.0000
 70
1
  0
VERTEX
  8
16
 10
7.7317
 20
6.7465
 30
0.0000
  0
VERTEX
  8
16
 10
7.7774
 20
6.7338
 30
0.0000
 42
1.0000
  0
VERTEX
  8
16
 10
7.8182
 20
6.8806
 30
0.0000
  0
VERTEX
  8
16
 10
7.7725
 20
6.8933
 30
0.0000
 42
1.0000
  0
SEQEND
  8
0
  0
POLYLINE
  8
16
 66
1
 10
0.0000
 20
0.0000
 30
0.0000
 40
0.0000
 41
0.0000
 70
1
  0
VERTEX
  8
16
 10
2.7579
 20
9.5219
 30
0.0000
  0
VERTEX
  8
16
 10
2.9306
 20
9.3492
 30
0.0000
 42
1.0000
  0
VERTEX
  8
16
 10
3.0384
 20
9.4570
 30
0.0000
  0
VERTEX
  8
16
 10
2.8657
 20
9.6297
 30
0.0000
 42
1.0000
  0
SEQEND
  8
0
  0
POLYLINE
  8
16
 66
1
 10
0.0000
 20
0.0000
 30
0.0000
 40
0.0000
 41
0.0000
 70
1
  0
VERTEX
  8
16
 10
2.9845
 20
6.9520
 30
0.0000
  0
VERTEX
  8
16
 10
5.5931
 20
6.9520
 30
0.0000
 42
1.0000
  0
VERTEX
  8
16
 10
5.5931
 20
7.1044
 30
0.0000
  0
VERTEX
  8
16
 10
2.9845
 20
7.1044
 30
0.0000
 42
1.0000
  0
SEQEND
  8
0
  0
POLYLINE
  8
16
 66
1
 10
0.0000
 20
0.0000
 30
0.0000
 40
0.0000
 41
0.0000
 70
1
  0
VERTEX
  8
16
 10
7.3553
 20
7.1089
 30
0.0000
  0
VERTEX
  8
16
 10
7.6982
 20
6.7660
 30
0.0000
 42
1.0000
  0
VERTEX
  8
16
 10
7.8060
 20
6.8738
 30
0.0000
  0
VERTEX
  8
16
 10
7.4631
 20
7.2167
 30
0.0000
 42
1.0000
  0
SEQEND
  8
0
  0
POLYLINE
  8
1
 66
1
 10
0.0000
 20
0.0000
 30
0.0000
 40
0.0000
 41
0.0000
 70
1
  0
VERTEX
  8
1
 10
7.8517
 20
6.7533
 30
0.0000
  0
VERTEX
  8
1
 10
8.2055
 20
7.1071
 30
0.0000
 42
1.0000
  0
VERTEX
  8
1
 10
8.0977
 20
7.2149
 30
0.0000
  0
VERTEX
  8
1
 10
7.7439
 20
6.8611
 30
0.0000
 42
1.0000
  0
SEQEND
  8
0
  0
POLYLINE
  8
1
 66
1
 10
0.0000
 20
0.0000
 30
0.0000
 40
0.0000
 41
0.0000
 70
1
  0
VERTEX
  8
1
 10
8.1516
 20
7.0848
 30
0.0000
  0
VERTEX
  8
1
 10
8.1925
 20
7.0848
 30
0.0000
 42
1.0000
  0
VERTEX
  8
1
 10
8.1925
 20
7.2372
 30
0.0000
  0
VERTEX
  8
1
 10
8.1516
 20
7.2372
 30
0.0000
 42
1.0000
  0
SEQEND
  8
0
  0
INSERT
  8
18
  2
ROUNDV
 10
1.5240
 20
9.5758
 30
0.0000
 41
0.3048
 42
0.3048
 43
1.0000
 50
0.0000
  0
INSERT
  8
18
  2
ROUNDV
 10
1.5240
 20
9.5758
 30
0.0000
 41
0.3048
 42
0.3048
 43
1.0000
 50
0.0000
  0
INSERT
  8
18
  2
ROUNDV
 10
7.7978
 20
6.8072
 30
0.0000
 41
0.3048
 42
0.3048
 43
1.0000
 50
0.0000
  0
INSERT
  8
18
  2
ROUNDV
 10
7.7978
 20
6.8072
 30
0.0000
 41
0.3048
 42
0.3048
 43
1.0000
 50
0.0000
  0
POLYLINE
  8
1
 66
1
 10
0.0000
 20
0.0000
 30
0.0000
 40
0.0000
 41
0.0000
 70
1
  0
VERTEX
  8
1
 10
2.3337
 20
10.2774
 30
0.0000
  0
VERTEX
  8
1
 10
2.3210
 20
10.2647
 30
0.0000
 42
1.0000
  0
VERTEX
  8
1
 10
2.4288
 20
10.1569
 30
0.0000
  0
VERTEX
  8
1
 10
2.4415
 20
10.1696
 30
0.0000
 42
1.0000
  0
SEQEND
  8
0
  0
POLYLINE
  8
1
 66
1
 10
0.0000
 20
0.0000
 30
0.0000
 40
0.0000
 41
0.0000
 70
1
  0
VERTEX
  8
1
 10
2.3749
 20
10.2870
 30
0.0000
  0
VERTEX
  8
1
 10
1.5240
 20
10.2870
 30
0.0000
 42
1.0000
  0
VERTEX
  8
1
 10
1.5240
 20
10.1346
 30
0.0000
  0
VERTEX
  8
1
 10
2.3749
 20
10.1346
 30
0.0000
 42
1.0000
  0
SEQEND
  8
0
  0
POLYLINE
  8
16
 66
1
 10
0.0000
 20
0.0000
 30
0.0000
 40
0.0000
 41
0.0000
 70
1
  0
VERTEX
  8
16
 10
1.5240
 20
10.1346
 30
0.0000
  0
VERTEX
  8
16
 10
3.1445
 20
10.1346
 30
0.0000
 42
1.0000
  0
VERTEX
  8
16
 10
3.1445
 20
10.2870
 30
0.0000
  0
VERTEX
  8
16
 10
1.5240
 20
10.2870
 30
0.0000
 42
1.0000
  0
SEQEND
  8
0
  0
POLYLINE
  8
16
 66
1
 10
0.0000
 20
0.0000
 30
0.0000
 40
0.0000
 41
0.0000
 70
1
  0
VERTEX
  8
16
 10
3.1953
 20
10.0838
 30
0.0000
  0
VERTEX
  8
16
 10
3.1953
 20
7.5768
 30
0.0000
 42
1.0000
  0
VERTEX
  8
16
 10
3.3477
 20
7.5768
 30
0.0000
  0
VERTEX
  8
16
 10
3.3477
 20
10.0838
 30
0.0000
 42
1.0000
  0
SEQEND
  8
0
  0
POLYLINE
  8
16
 66
1
 10
0.0000
 20
0.0000
 30
0.0000
 40
0.0000
 41
0.0000
 70
1
  0
VERTEX
  8
16
 10
3.2176
 20
7.5229
 30
0.0000
  0
VERTEX
  8
16
 10
3.2253
 20
7.5153
 30
0.0000
 42
1.0000
  0
VERTEX
  8
16
 10
3.3330
 20
7.6231
 30
0.0000
  0
VERTEX
  8
16
 10
3.3254
 20
7.6307
 30
0.0000
 42
1.0000
  0
SEQEND
  8
0
  0
POLYLINE
  8
16
 66
1
 10
0.0000
 20
0.0000
 30
0.0000
 40
0.0000
 41
0.0000
 70
1
  0
VERTEX
  8
16
 10
6.8763
 20
7.8201
 30
0.0000
  0
VERTEX
  8
16
 10
6.8916
 20
7.8354
 30
0.0000
 42
1.0000
  0
VERTEX
  8
16
 10
6.7838
 20
7.9431
 30
0.0000
  0
VERTEX
  8
16
 10
6.7686
 20
7.9279
 30
0.0000
 42
1.0000
  0
SEQEND
  8
0
  0
POLYLINE
  8
16
 66
1
 10
0.0000
 20
0.0000
 30
0.0000
 40
0.0000
 41
0.0000
 70
1
  0
VERTEX
  8
16
 10
6.8377
 20
7.8130
 30
0.0000
  0
VERTEX
  8
16
 10
7.4143
 20
7.8130
 30
0.0000
 42
1.0000
  0
VERTEX
  8
16
 10
7.4143
 20
7.9654
 30
0.0000
  0
VERTEX
  8
16
 10
6.8377
 20
7.9654
 30
0.0000
 42
1.0000
  0
SEQEND
  8
0
  0
POLYLINE
  8
16
 66
1
 10
0.0000
 20
0.0000
 30
0.0000
 40
0.0000
 41
0.0000
 70
1
  0
VERTEX
  8
16
 10
7.7507
 20
7.4547
 30
0.0000
  0
VERTEX
  8
16
 10
7.7710
 20
7.4471
 30
0.0000
 42
1.0000
  0
VERTEX
  8
16
 10
7.8246
 20
7.5897
 30
0.0000
  0
VERTEX
  8
16
 10
7.8042
 20
7.5974
 30
0.0000
 42
1.0000
  0
SEQEND
  8
0
  0
POLYLINE
  8
16
 66
1
 10
0.0000
 20
0.0000
 30
0.0000
 40
0.0000
 41
0.0000
 70
1
  0
VERTEX
  8
16
 10
3.0906
 20
10.1569
 30
0.0000
  0
VERTEX
  8
16
 10
3.2176
 20
10.0299
 30
0.0000
 42
1.0000
  0
VERTEX
  8
16
 10
3.3254
 20
10.1377
 30
0.0000
  0
VERTEX
  8
16
 10
3.1984
 20
10.2647
 30
0.0000
 42
1.0000
  0
SEQEND
  8
0
  0
POLYLINE
  8
16
 66
1
 10
0.0000
 20
0.0000
 30
0.0000
 40
0.0000
 41
0.0000
 70
1
  0
VERTEX
  8
16
 10
3.2791
 20
7.4930
 30
0.0000
  0
VERTEX
  8
16
 10
4.0284
 20
7.4930
 30
0.0000
 42
1.0000
  0
VERTEX
  8
16
 10
4.0284
 20
7.6454
 30
0.0000
  0
VERTEX
  8
16
 10
3.2791
 20
7.6454
 30
0.0000
 42
1.0000
  0
SEQEND
  8
0
  0
POLYLINE
  8
16
 66
1
 10
0.0000
 20
0.0000
 30
0.0000
 40
0.0000
 41
0.0000
 70
1
  0
VERTEX
  8
16
 10
4.0823
 20
7.5153
 30
0.0000
  0
VERTEX
  8
16
 10
4.3871
 20
7.8201
 30
0.0000
 42
1.0000
  0
VERTEX
  8
16
 10
4.2794
 20
7.9279
 30
0.0000
  0
VERTEX
  8
16
 10
3.9746
 20
7.6231
 30
0.0000
 42
1.0000
  0
SEQEND
  8
0
  0
POLYLINE
  8
16
 66
1
 10
0.0000
 20
0.0000
 30
0.0000
 40
0.0000
 41
0.0000
 70
1
  0
VERTEX
  8
16
 10
4.3332
 20
7.7978
 30
0.0000
  0
VERTEX
  8
16
 10
6.8225
 20
7.7978
 30
0.0000
 42
1.0000
  0
VERTEX
  8
16
 10
6.8225
 20
7.9502
 30
0.0000
  0
VERTEX
  8
16
 10
4.3332
 20
7.9502
 30
0.0000
 42
1.0000
  0
SEQEND
  8
0
  0
POLYLINE
  8
16
 66
1
 10
0.0000
 20
0.0000
 30
0.0000
 40
0.0000
 41
0.0000
 70
1
  0
VERTEX
  8
16
 10
7.3604
 20
7.8354
 30
0.0000
  0
VERTEX
  8
16
 10
7.7236
 20
7.4721
 30
0.0000
 42
1.0000
  0
VERTEX
  8
16
 10
7.8314
 20
7.5799
 30
0.0000
  0
VERTEX
  8
16
 10
7.4681
 20
7.9431
 30
0.0000
 42
1.0000
  0
SEQEND
  8
0
  0
POLYLINE
  8
1
 66
1
 10
0.0000
 20
0.0000
 30
0.0000
 40
0.0000
 41
0.0000
 70
1
  0
VERTEX
  8
1
 10
7.8517
 20
7.4645
 30
0.0000
  0
VERTEX
  8
1
 10
8.2043
 20
7.8171
 30
0.0000
 42
1.0000
  0
VERTEX
  8
1
 10
8.0965
 20
7.9249
 30
0.0000
  0
VERTEX
  8
1
 10
7.7439
 20
7.5723
 30
0.0000
 42
1.0000
  0
SEQEND
  8
0
  0
POLYLINE
  8
1
 66
1
 10
0.0000
 20
0.0000
 30
0.0000
 40
0.0000
 41
0.0000
 70
1
  0
VERTEX
  8
1
 10
8.1504
 20
7.7948
 30
0.0000
  0
VERTEX
  8
1
 10
8.1925
 20
7.7948
 30
0.0000
 42
1.0000
  0
VERTEX
  8
1
 10
8.1925
 20
7.9472
 30
0.0000
  0
VERTEX
  8
1
 10
8.1504
 20
7.9472
 30
0.0000
 42
1.0000
  0
SEQEND
  8
0
  0
INSERT
  8
18
  2
ROUNDV
 10
1.5240
 20
10.2108
 30
0.0000
 41
0.3048
 42
0.3048
 43
1.0000
 50
0.0000
  0
INSERT
  8
18
  2
ROUNDV
 10
1.5240
 20
10.2108
 30
0.0000
 41
0.3048
 42
0.3048
 43
1.0000
 50
0.0000
  0
INSERT
  8
18
  2
ROUNDV
 10
7.7978
 20
7.5184
 30
0.0000
 41
0.3048
 42
0.3048
 43
1.0000
 50
0.0000
  0
INSERT
  8
18
  2
ROUNDV
 10
7.7978
 20
7.5184
 30
0.0000
 41
0.3048
 42
0.3048
 43
1.0000
 50
0.0000
  0
POLYLINE
  8
1
 66
1
 10
0.0000
 20
0.0000
 30
0.0000
 40
0.0000
 41
0.0000
 70
1
  0
VERTEX
  8
1
 10
2.3876
 20
10.9347
 30
0.0000
  0
VERTEX
  8
1
 10
1.6840
 20
10.9347
 30
0.0000
 42
1.0000
  0
VERTEX
  8
1
 10
1.6840
 20
10.7823
 30
0.0000
  0
VERTEX
  8
1
 10
2.3876
 20
10.7823
 30
0.0000
 42
1.0000
  0
SEQEND
  8
0
  0
POLYLINE
  8
1
 66
1
 10
0.0000
 20
0.0000
 30
0.0000
 40
0.0000
 41
0.0000
 70
1
  0
VERTEX
  8
1
 10
1.6780
 20
10.9345
 30
0.0000
  0
VERTEX
  8
1
 10
1.5180
 20
10.9218
 30
0.0000
 42
1.0000
  0
VERTEX
  8
1
 10
1.5300
 20
10.7698
 30
0.0000
  0
VERTEX
  8
1
 10
1.6901
 20
10.7825
 30
0.0000
 42
1.0000
  0
SEQEND
  8
0
  0
POLYLINE
  8
16
 66
1
 10
0.0000
 20
0.0000
 30
0.0000
 40
0.0000
 41
0.0000
 70
1
  0
VERTEX
  8
16
 10
1.5247
 20
10.7696
 30
0.0000
  0
VERTEX
  8
16
 10
3.5008
 20
10.7874
 30
0.0000
 42
1.0000
  0
VERTEX
  8
16
 10
3.4994
 20
10.9398
 30
0.0000
  0
VERTEX
  8
16
 10
1.5233
 20
10.9220
 30
0.0000
 42
1.0000
  0
SEQEND
  8
0
  0
POLYLINE
  8
16
 66
1
 10
0.0000
 20
0.0000
 30
0.0000
 40
0.0000
 41
0.0000
 70
1
  0
VERTEX
  8
16
 10
3.4925
 20
10.7950
 30
0.0000
  0
VERTEX
  8
16
 10
3.4925
 20
8.3160
 30
0.0000
 42
1.0000
  0
VERTEX
  8
16
 10
3.6449
 20
8.3160
 30
0.0000
  0
VERTEX
  8
16
 10
3.6449
 20
10.7950
 30
0.0000
 42
1.0000
  0
SEQEND
  8
0
  0
POLYLINE
  8
16
 66
1
 10
0.0000
 20
0.0000
 30
0.0000
 40
0.0000
 41
0.0000
 70
1
  0
VERTEX
  8
16
 10
3.5148
 20
8.2621
 30
0.0000
  0
VERTEX
  8
16
 10
3.6520
 20
8.1249
 30
0.0000
 42
1.0000
  0
VERTEX
  8
16
 10
3.7597
 20
8.2327
 30
0.0000
  0
VERTEX
  8
16
 10
3.6226
 20
8.3698
 30
0.0000
 42
1.0000
  0
SEQEND
  8
0
  0
POLYLINE
  8
16
 66
1
 10
0.0000
 20
0.0000
 30
0.0000
 40
0.0000
 41
0.0000
 70
1
  0
VERTEX
  8
16
 10
7.3743
 20
8.5708
 30
0.0000
  0
VERTEX
  8
16
 10
7.7439
 20
8.2011
 30
0.0000
 42
1.0000
  0
VERTEX
  8
16
 10
7.8517
 20
8.3089
 30
0.0000
  0
VERTEX
  8
16
 10
7.4820
 20
8.6785
 30
0.0000
 42
1.0000
  0
SEQEND
  8
0
  0
POLYLINE
  8
16
 66
1
 10
0.0000
 20
0.0000
 30
0.0000
 40
0.0000
 41
0.0000
 70
1
  0
VERTEX
  8
16
 10
5.8433
 20
8.5484
 30
0.0000
  0
VERTEX
  8
16
 10
7.4282
 20
8.5484
 30
0.0000
 42
1.0000
  0
VERTEX
  8
16
 10
7.4282
 20
8.7008
 30
0.0000
  0
VERTEX
  8
16
 10
5.8433
 20
8.7008
 30
0.0000
 42
1.0000
  0
SEQEND
  8
0
  0
POLYLINE
  8
16
 66
1
 10
0.0000
 20
0.0000
 30
0.0000
 40
0.0000
 41
0.0000
 70
1
  0
VERTEX
  8
16
 10
3.4462
 20
10.8097
 30
0.0000
  0
VERTEX
  8
16
 10
3.5148
 20
10.7411
 30
0.0000
 42
1.0000
  0
VERTEX
  8
16
 10
3.6226
 20
10.8489
 30
0.0000
  0
VERTEX
  8
16
 10
3.5540
 20
10.9175
 30
0.0000
 42
1.0000
  0
SEQEND
  8
0
  0
POLYLINE
  8
16
 66
1
 10
0.0000
 20
0.0000
 30
0.0000
 40
0.0000
 41
0.0000
 70
1
  0
VERTEX
  8
16
 10
3.7059
 20
8.1026
 30
0.0000
  0
VERTEX
  8
16
 10
5.3975
 20
8.1026
 30
0.0000
 42
1.0000
  0
VERTEX
  8
16
 10
5.3975
 20
8.2550
 30
0.0000
  0
VERTEX
  8
16
 10
3.7059
 20
8.2550
 30
0.0000
 42
1.0000
  0
SEQEND
  8
0
  0
POLYLINE
  8
16
 66
1
 10
0.0000
 20
0.0000
 30
0.0000
 40
0.0000
 41
0.0000
 70
1
  0
VERTEX
  8
16
 10
5.4514
 20
8.1249
 30
0.0000
  0
VERTEX
  8
16
 10
5.8972
 20
8.5708
 30
0.0000
 42
1.0000
  0
VERTEX
  8
16
 10
5.7895
 20
8.6785
 30
0.0000
  0
VERTEX
  8
16
 10
5.3436
 20
8.2327
 30
0.0000
 42
1.0000
  0
SEQEND
  8
0
  0
POLYLINE
  8
1
 66
1
 10
0.0000
 20
0.0000
 30
0.0000
 40
0.0000
 41
0.0000
 70
1
  0
VERTEX
  8
1
 10
7.8517
 20
8.2011
 30
0.0000
  0
VERTEX
  8
1
 10
8.1777
 20
8.5271
 30
0.0000
 42
1.0000
  0
VERTEX
  8
1
 10
8.0699
 20
8.6349
 30
0.0000
  0
VERTEX
  8
1
 10
7.7439
 20
8.3089
 30
0.0000
 42
1.0000
  0
SEQEND
  8
0
  0
POLYLINE
  8
1
 66
1
 10
0.0000
 20
0.0000
 30
0.0000
 40
0.0000
 41
0.0000
 70
1
  0
VERTEX
  8
1
 10
8.1238
 20
8.5048
 30
0.0000
  0
VERTEX
  8
1
 10
8.1925
 20
8.5048
 30
0.0000
 42
1.0000
  0
VERTEX
  8
1
 10
8.1925
 20
8.6572
 30
0.0000
  0
VERTEX
  8
1
 10
8.1238
 20
8.6572
 30
0.0000
 42
1.0000
  0
SEQEND
  8
0
  0
INSERT
  8
18
  2
ROUNDV
 10
1.5240
 20
10.8458
 30
0.0000
 41
0.3048
 42
0.3048
 43
1.0000
 50
0.0000
  0
INSERT
  8
18
  2
ROUNDV
 10
1.5240
 20
10.8458
 30
0.0000
 41
0.3048
 42
0.3048
 43
1.0000
 50
0.0000
  0
INSERT
  8
18
  2
ROUNDV
 10
7.7978
 20
8.2550
 30
0.0000
 41
0.3048
 42
0.3048
 43
1.0000
 50
0.0000
  0
INSERT
  8
18
  2
ROUNDV
 10
7.7978
 20
8.2550
 30
0.0000
 41
0.3048
 42
0.3048
 43
1.0000
 50
0.0000
  0
POLYLINE
  8
1
 66
1
 10
0.0000
 20
0.0000
 30
0.0000
 40
0.0000
 41
0.0000
 70
1
  0
VERTEX
  8
1
 10
3.3274
 20
11.4173
 30
0.0000
  0
VERTEX
  8
1
 10
4.8108
 20
11.4173
 30
0.0000
 42
1.0000
  0
VERTEX
  8
1
 10
4.8108
 20
11.5697
 30
0.0000
  0
VERTEX
  8
1
 10
3.3274
 20
11.5697
 30
0.0000
 42
1.0000
  0
SEQEND
  8
0
  0
POLYLINE
  8
1
 66
1
 10
0.0000
 20
0.0000
 30
0.0000
 40
0.0000
 41
0.0000
 70
1
  0
VERTEX
  8
1
 10
4.7569
 20
11.4396
 30
0.0000
  0
VERTEX
  8
1
 10
4.9271
 20
11.2694
 30
0.0000
 42
1.0000
  0
VERTEX
  8
1
 10
5.0348
 20
11.3772
 30
0.0000
  0
VERTEX
  8
1
 10
4.8646
 20
11.5474
 30
0.0000
 42
1.0000
  0
SEQEND
  8
0
  0
POLYLINE
  8
1
 66
1
 10
0.0000
 20
0.0000
 30
0.0000
 40
0.0000
 41
0.0000
 70
1
  0
VERTEX
  8
1
 10
4.9047
 20
11.3233
 30
0.0000
  0
VERTEX
  8
1
 10
4.9047
 20
8.5894
 30
0.0000
 42
1.0000
  0
VERTEX
  8
1
 10
5.0571
 20
8.5894
 30
0.0000
  0
VERTEX
  8
1
 10
5.0571
 20
11.3233
 30
0.0000
 42
1.0000
  0
SEQEND
  8
0
  0
POLYLINE
  8
1
 66
1
 10
0.0000
 20
0.0000
 30
0.0000
 40
0.0000
 41
0.0000
 70
1
  0
VERTEX
  8
1
 10
4.9271
 20
8.6433
 30
0.0000
  0
VERTEX
  8
1
 10
4.9186
 20
8.6349
 30
0.0000
 42
1.0000
  0
VERTEX
  8
1
 10
5.0264
 20
8.5271
 30
0.0000
  0
VERTEX
  8
1
 10
5.0348
 20
8.5356
 30
0.0000
 42
1.0000
  0
SEQEND
  8
0
  0
ENDSEC
  0
EOF
